<mxfile host="app.diagrams.net" modified="2021-05-10T13:45:56.835Z" agent="5.0 (Windows NT 10.0; Win64; x64) AppleWebKit/537.36 (KHTML, like Gecko) Chrome/90.0.4430.93 Safari/537.36" etag="sNOu8UPgC_sjNhJNzbKy" version="14.6.0" type="github">
  <diagram name="Page-1" id="929967ad-93f9-6ef4-fab6-5d389245f69c">
    <mxGraphModel dx="652" dy="317" grid="1" gridSize="10" guides="1" tooltips="1" connect="1" arrows="1" fold="1" page="1" pageScale="1.5" pageWidth="1169" pageHeight="826" background="#ffffff" backgroundImage="{&quot;src&quot;:&quot;data:image/jpeg;base64,/9j/4AAQSkZJRgABAQAAAQABAAD//gA7Q1JFQVRPUjogZ2QtanBlZyB2MS4wICh1c2luZyBJSkcgSlBFRyB2NjIpLCBxdWFsaXR5ID0gNzAK/9sAQwAKBwcIBwYKCAgICwoKCw4YEA4NDQ4dFRYRGCMfJSQiHyIhJis3LyYpNCkhIjBBMTQ5Oz4+PiUuRElDPEg3PT47/9sAQwEKCwsODQ4cEBAcOygiKDs7Ozs7Ozs7Ozs7Ozs7Ozs7Ozs7Ozs7Ozs7Ozs7Ozs7Ozs7Ozs7Ozs7Ozs7Ozs7Ozs7/8IAEQgEsAfQAwEiAAIRAQMRAf/EABsAAQEBAQEBAQEAAAAAAAAAAAABAgMEBQYH/8QAGQEBAQEBAQEAAAAAAAAAAAAAAAECAwQF/9oADAMBAAIQAxAAAAHoPnekAAAAAAAAAAAAAAAAAAAAKAqUAAAWCgAAoAAFlAAFlAAFlAoEoAAKACpQACgAoAFgoQCigFlAFgoAKlAKlAKQnLrx575cunLO01ld+rydrn23j268gsWCgAqUAAoAFgoAKlsAAqUAAqUAAUHG8Zbx1yxrPLVOG+kXPPXmXpy5S679PL0X630fjfV1x7DWQAAAAAAAAAAAAAAAAAAPgjj0AAAAAAAAAAAAAAAAAAAAAAWWgAAAKlAAFlAAAKlAAKAACigFlAQBZQBYKABZQBYKACpQEWWgAKACpQBZQBYKADPHrz5782d8871mhvGl9Ho8no3y7DpgCpQACgAqUAAqUAWEooBYKABZQBQcrzlzzzxxvWUQ1m5zz7Ym+PLrya5xLdzeV9X0/k/RY+jc63yCgAAAAAAAAAAAAAAAAAPgjj0AAAAAAAAAAAAAAAAAAAAAACqlAAAFgoAAKAABZQABZQABZQKAqVAAKACpQBYKACpQBYKEAooBZQBYKACpQBZQInDtx578+d85uzOmrqaS9eWk9nTy+jry1K1mAoAFlAAKABYKACpbAAFlABRYHPOZbyebGtcdJc6udTcuS5SXPHca5t8rcyl6ez53sZ+308/o3xCgAAAAAAAAAAAAAAAAAPgjj0AAAAAAAAAAAAAAAAAAAAAAClgoAAAKlAAFlAAAKlAAKAAKqUAWEoAFlAFgoAFlAFgoAKlARZaAAoAKlAFgoFlEM3HPpy575ce/NrlqW3VxZetxqOnfzb1z9t49uvOTUslAACgAWUAAqUAWEooACgUHLPPOtZnLGnCYrVsN4mrMLmiQ1lmac7hctGserz9U+z7PnfQ1xosCgAAAAAAAAAAAAAAAAPgjj0AAAAAAAAAAAAAAAAAAAAAAACqlAAAFgoAAKAABYKABYKABZaABKlAAKABZQACgAqUAWChAKloBZQBYKACgWIkZ57vLUxrGemWvLO3LRrOqu8byuudjt6PF23j2a83TpjoXWZNDLQgAAKABYKACpbAFlFgcJwzrUnLG7xz5a9HTj3TSSrzmKrPOujOqGYTVlznpzm7vnqPp/R+V9TfHcs1mgAAAAAAAAAAAAAAAAA+COPQAAAAAAAAAAAAAAAAAAAAAAACoqgAAAqUAAWUAAAqUAAoAAKloBYSgAWUAAoAFlAFgoAKlARYqgAqUAqUAWCiXnl5+fTeOdxrpbuJntqzz672vM7jz67DlrcRZLOmuU1PRfPbPTfLrU9LhqzrM6sXI0yNMU0lBalEKIoLkee+bG7jG+epy3x05cd706duW4ZubMxnS5Yts55ruxs0x1zNTUzrnLqa9f1Pl/U1y6w1hZQKAAAAAAAAAAAAAAAA+COPQAAAAAAAAAAAAAAAAAAAAAAAAKqUAAAWCgAAqUAAWCgAWUAAWUCgKlQACpQBZQACpQCpQBYKEAqWgFlAFgoALnWc3j5vTx59OPbXdWrJLWrJnUM0WSoBEuZS5WywSyrVstlsRlagrKTd5q7Xz2z0Xz2vQ81T0a8yvRjhYnO4zrLOacN+bUvs8/ot1LiTOOmKl5527TgOmcytzOx15ajrZcMt8869f1PkfW3z7w1hYKKAAAAAAAAAAAAAAAA+COPQAAAAAAAAAAAAAAAAAAAAAAAABYqgAAAqUAAWCgAAqUAAoAAKloBYSgAWUAAoAFlAAKACpUAWWgAKlAKlAGaxrm7axvnqkjSoRLAkSWGZdzI3MCpF2WIUKBbIVYuUkozdRcwjpMymHCvTfH0XvnGLOszbOfLXDU5ufr031zrLOdc4vLPDo7XzZ3n1Y45s7vNT0OHWXfXHfN1U561jKX2fU+X9TfLsNYAqUCggKAAAAAAAAAAAAA+COPQAAAAAAAAAAAAAAAAAAAAAAAAKAoAAAFgoAAKlAAFgoAFlAAFiqACpUAAqUAWUAAoAFlAAKAEqWgFgoAgupZq3OopY1mxJAsQzJUuYk1nNsZW5sNXnuWxS3MNkstbszbkLTLSpN5l5zUjKieT18rfH057uuuoS8s8NZ1yzdt9+Pok3bcufDtxrlw9XDpOOenHeWDeVupd+nj2xenbHXnq41nOufTPSX0fU+Z9XfLY1gACigAAAAAAAAAAAAAAPgjj0AAAAAAAAAAAAAAAAAAAAAAAAAAWKoAAAKlAAFgoAAFlAAKAACpaAWChAFlAAKABZQBYKABZQEWWgABZWtalzqpZQlWzKxJOmDC5VmyGNZzZklkSWppZZJdWVFqxZqy2LNRKtzY0xqrlJZnUlzGznOsPLw+h5LrnOfPbpzmtTnu9LOnXOsTrljJnpbPNy9Xn6vLx9Pk6Y5rneddOfWXp6fL7uet7zvnqc+uMax1vRfR9Lwe/px0LkACpaCAoAAAAAAAAAAAAD4I49AAAAAAAAAAAAAAAAAAAAAAAAAAApZQAAACgAAoAAFgoAFgoAFgooBZUAAoAFlAAKlAFlAAKgoChbqVrWpc1CahE1alWzM1LJLIzN4XOdYzWWc2yZlmLma2ztVbTOmrJcaSzG7N5a1M2RdpzjtMUUhipZpKqIY6xfn+T6/j3fF0xrbXTn0Ttvj0zm6zY1iSseXty658mdePrjbHezXWaxrt6OfTGunaMayt52adF9ft83p68aLAAAKAKAAAAAAAAAAAAA+COPQAAAAAAAAAAAAAAAAAAAAAAAAAABYqgAAAqUAAAoAAKlAAKlAAKloBYSgAWCgAoAFgoAKlC6M66al5XrY53dlxbazbksLAlXOrNNNZi2sY64jnjeJZKl5ZuMWZsmsXO2ta1pJcmdYubLc2lxbNbzaytk5taXG9SEzpU1qMBY1CXOocuhfDy+j5bfLpOkd+He5qM2ZZ2fOx5+vKLreddee16b5ernevp4+vGpnd5XLUzuduXq1n2ds668gAAAFlAAoAAAAAAAAAAAD4I49AAAAAAAAAAAAAAAAAAAAAAAAAAAAqpQAAACgAAoAAFgoAFgoAFiqAEWUAAqUAWUAAoAFu4vV0WNZEACyIGRm5XVzpNbz01EubFyssslxy7cc3MJcc+nDOrMJp3xtNyLMtLJdyxm5svSZNa55rrM5kFVNpc6yXpMopIqUmkGs6HDvJr5ufVx0zut5kubM/M34OubLOmNaat1Z6M3r05evnenWdcXNTlrPPUmun0PF9PeOljpzWUAAAAoAoAAAAAAAAAAAD4I49AAAAAAAAAAAAAAAAAAAAAAAAAAAAAqgAAAWUAAWCgAAqUAAqUAAqWgASgAWCgAqUAWC6nSL2nSWaSkEKIlWSxJnWVmdWXPVapi52zqyyxEstzz68c3GbjGs8+nGUz0l1aso1nRNTU1TM7c7M57RJNRZZUyuZqLrN575w6Z1DVWMXSXNuC6xugM+f2YmvFO3LUz4e3y+ueN6a644XTUbvXOnrx6udnq56zelxrFYszZM4t930vmfT1z2N4AoAAAFiqAAAAAAAAAAAAD4I49AAAAAAAAAAAAAAAAAAAAAAAAAAAAAKloAAACgAAqUAAAoAFlAAFiqABZUAAqUAWUAWaNdsd5dWBISalUlC5JJmLLVWVKZ1CWy6zTWUsJC8dcsajLGs8985p1zbN5zbL0LLprUmqsGrMzWU5uuV524Jx3qWzTOpMMu0xo1BbrGovPcqazRYS2M6zw9eD53k+ry1fDz+h5euflX0Omd9enXOs70wTeY1cYOnl8az0d56pr0fR+d72O6XeAFgoAAAqpQAAAAAAAAAAAD4I49AAAAAAAAAAAAAAAAAAAAAAAAAAAAAAqgAAAWUAAAoAAKlAAKlAAFloAEoAFgoAKlL0z1jXXOpbLnUILc7JbCZslznQu+etTWIsvLpysdOVOlxuWzUTOLmWcenLGpczOs3Go1rlrUu+XWrvPe5aasiylksWWzOdpeDtxjM1iamLiXdzuWW2Na49Bci6lLLktxqyaqWRInLvjGuHL089PJj2c9zG5qtLchoz876nGvjfT7d9TLXLne3u+d79T0axrrzoQCpQAABYKKAAAAAAAAAAA+COPQAAAAAAAAAAAAAAAAAAAAAAAAAAAAAKWUAAAAoAAKlAAAKACoKAACigRZQACpQC2aNdsdirIjVrnbTOgSxc5vKLx4/nuuPsc/gumPu9PzWq/Y6/P/AEo9m+W8a79MbxbhIYZmsY1nNvPpjOpNDDpmzW50s30x01LrO9ZxnUGN5VuVGLJZjczeWO/OXnN4lzaCDe80uuWjS0xpE0xqt2ArNmdXN58/RmXz8fbi3xXtypcq0zqN4xlO7yY09zy9Ze3s+f7bn1dOPXpz2l1kBYKAAAKqWAoAAAAAAAAAD4I49AAAAAAAAAAAAAAAAAAAAAAAAAAAAAAAqgAAAWUAAFAAAFlAAKlAAFloAEoAAKDW89LN9ue5dRomrqzGt2znjvmzg1jG8cN/L1Pk+X1fX9HL4vh+/wCnefyk9mV8/wBPlnL9B6flfQ5b99y5bmWMrlZrM65l5zeYzneq5a3bJ1x1NVd5tzN40hZi5zehow1Jc5szpcXNmeuThOvKLrnTU0qbxDtMgEu86rUg2yjVSVVM42l5cPRiXzZ7Yt56sqcO3PTjnd1bvmjv7fH68T09vN21z7axrpiiwCgAAAWUACgAAAAAAAAPgjj0AAAAAAAAAAAAAAAAAAAAAAAAAAAAAAAWWgAAAKAABZQAACpQBYKAACigFhKAC2U1159rN9MbladtZx1t6ZlW5zneY48u+MdPF8r6vLrnPwvv/kt5+t5OWDtx42z9r+S48T3/AHfg/oeHT1TLj0Sol1tcZ65TljrDnrayZ65JrOjWs3WdSXcA5LJemWDpPOl9GOfTFCWypZneY5Y6YJvG61rmNs6Kss2xSpsmrC3NLZSCXGOuca8/P08l4rgmd+bbXOTbfXz9ZfR38vo5z0dvP3Z775de3PQ1kACgAAAqWgAAAAAAAAAPgjj0AAAAAAAAAAAAAAAAAAAAAAAAAAAAAAAWKqUAAAWUAAAoAAFlAAKlAAFloAChALrOjp1599TWm4vXO+uLTeREmNc+enPfFfm3h17Zx+b/AE3wzg74rw57+Wzfbze+X6P1fN7PN13WuO2rSVLLhzNRupaszjeCazYusNTVzNTecZNuXls9Hi+T5Nz7Hb4HOz9T3/JeuP0u/j+/GvRnWuW5vlrGt41kSDZSUrTnqzoyS7xaqSVrGjbNs1nKXcIxnec648+/OXn4/bz0+fnr5ul69OHW31+jy+jk9Hbh0mPT14duuN2XeAAKlAAAFloICgAAAAAAAPgjj0AAAAAAAAAAAAAAAAAAAAAAAAAAAAAAAAWWgAAAKlAAFlAAAKABYKAAKoAFhKC7x0rp1x0s3159LntrG+uBNQZzc8t8+W9+fry1Pm8PT5Ok9X576/ydTpnz9qnl9HKTz/d5/d59MdbrzdZtM3SXWVZrObom7ElSs89YzVzF1M5uejzY1PVy8/j6Z6/I5+npnzen7v1t5/BeX+lfI1n8ZPX55d+nw2X9B9f8b9vlv6cPP16649saWROkssXOqpUtzVS4Ns3K5SrdSgNzKEszc56c5rlz78jj4vfx6Xyb21evo8/o5u/Xj1znt14demO2sb64BAFgoAAAKlAoAAAAAAAD4I49AAAAAAAAAAAAAAAAAAAAAAAAAAAAAAAAAqpQAABYKAACgAAWCgAWUAAWWgAKlTXTn2s69eXo1N7m9YWzpmwM51jGsYvPl03y1zs8/l+h59T5nL6Hn3PlvfvTz+v1+vlrPTblvNmZqxQtZzOmTO1pNZsmdc5c8unHGkzk1jPHpnt4M+Ltz6+LN6Z9H6Tw/auenzPd+br0+v8AOZs69fBamOu48vfnY+77fz32eHb09/L24dOzViaLNXUsy1DG6lJCTcjOgqUk0WVlKkzUslnPrhfPjv59a4To0vfO8OnTn2menbh23ntrG+vOiwACpQAABYKKAAAAAAAA+COPQAAAAAAAAAAAAAAAAAAAAAAAAAAAAAAAABYqgAAAqUAAWUAAAoAAKAAKogKWaTXbn21Onbn3ud9M3riwsglcunPGuPHry5dGajObbOPL3SvJ6emlzq5zpggajNappbIsqpEksXOd5y5cu+M68mN+StcOvm7Y8/m35/Rynr8X1NZ+76vNrF4fm/sfn9TWuc1M9eMr24xqM46dzz+3P0OPT3b1vz9Z1lyazDcWyXQzpTK4lqozQpmqCXRJNZmskzWemM3nw9XK3z7tpuajeufRN9uXbeeu867c6lQAACgAAAqUCgAAAAAAPgjj0AAAAAAAAAAAAAAAAAAAAAAAAAAAAAAAAACqlAAAFgoAAKAABYKABZQABZaAaztOnfj6NZ7dufbeLE3FgssHPWed8/Lvw5dSbWNLJq6JLmWZsiNlmlsiwtksudZMtJWUK52Vy68o5cemV4+X3Z6Y+Dx+p4PRy83scOmf0d+d6cXzfK+x86ufn9uNTxO+LGs+mNe/eM3X1Hq49MzpeeuetzNxpuud3U5twzdZWINSWI1TGOqudsiLAslTWM3FXNzneZedWlsG8aOnfh03n0b59OvMLKAACpQAABYqgAAAAAAA+COPQAAAAAAAAAAAAAAAAAAAAAAAAAAAAAAAAAKWUAAAAqUAAWUAAAqUAAqUACqC7xtOvp8/p3j06zvpmEsCBCc9s3jz7Zx04XecW71qs5uSSwagjUBKqIqWksiUiZ0XjpmHPfOXPLpJZnW9Z+d879J5u/P85j7/AJOmfB9DzTU9/wAz6XOz4+/qdrPhdPrZl+d7+vry8n2L2xq51Oe5ZcrQbjU1NK5umIzNo5txcXRcqQkqTaM3QzLiXLTGsrnNmdTOuc64BozoN9OPXU9O+XXtyosqUAAAoAAAFlAoAAAAAD4I49AAAAAAAAAAAAAAAAAAAAAAAAAAAAAAAAAAAqgAAAWCgAAoAAFgoAFgoAFlL059dTt6vP6943rm3npBIpJNZWmo5TryzrG6zqY1zJmZNRTSQrGTo56W3OpbrNRnUWEixk1iyWc+mY893Jc9JpLLrpnljs3ny8Po5Pl8vrrPnY+h0r53s7bib0mrMs3SayusWytXUmmrJOks5XRcXUIuYkiXUlNS2stZiQJnUzc41JqNTNyTGpneJbc6JNRLvn01PR24duuNDWVgoAAKlAAAAqgAAAAAA+COPQAAAAAAAAAAAAAAAAAAAAAAAAAAAAAAAAAAKWCgAAAqUAAWCgAAqUAAoAFls115drPR6vP6N43z6TecdOcO0KRqJZLNTyeCPp8PlctX6ePnJfo9PmZj6u/j9F+nPH2Trnnc3rrO826SXWoW2DK5hlJWOuZcrDGdjntSxbnOOjUjMN5kNyaV0zM3ecyLqF6XNstXebvN1nW8UsQpkskGJiW26M6pM3cqUlgiQWLnNjec3GdM6xncxcalUq5m5a7dvP2646DWQKlAAAKAAABZaAAAAAA+COPQAAAAAAAAAAAAAAAAAAAAAAAAAAAAAAAAAAACpaAAAWCgAAoAAFgoAFlAFlTfbl33PR6OPbeKluWNSXPTnqzVs1MfK8Xy9vsY+Puz2TwyvdvxQ92eFNTfOW68mj6nq+D6sX7XXwenN629M3jrepdRIkx0lkuJdYqWZ3IyQzqg3a5568rJjdjGtSW5kmqmkVQlsuprUVreWs6sqWyWgDHPtmXz25Nb56joza1EBM0UzaIJZms3JM6nPec6zqyNXGkllrXbj13O1zrpzAAoAAFlAAAAqgAAAAA+COPQAAAAAAAAAAAAAAAAAAAAAAAAAAAAAAAAAAABYqgAAAqUAAWCgAAqUAAoFls334+jWfT15XeerltNS0ml3L8z6X5bU+Nyxy6Ttnj1CQ1ecOvTyj6GfFT2zybj1a8vWX1/V+D1y/Tej4X283prNzU1Zc3VzeeO2ZeTeJrMqEua1kk3Zqmd6rz3tI4O2JeE7o49NrMzos5zpaxtmzeuerOia1JaCUTQzajnOhed2MTcMNIzdQhFudIxUlZ1JctTNzmsamdZlbzbNSibyrv04duvPQsAWUAAWCgAAAWWgAgKAA+COPQAAAAAAAAAAAAAAAAAAAAAAAAAAAAAAAAAAAACigAAFgoAAKlAAFgoAFgus6s7erzenePReGNZ7zz6X09PP3s3JN5n5H9X8XT8nx9fi3J6PP3Gd4ECYYNawO7HQvXz7j1ZWX2/ofh/ay9ms7zaM1ZmXWNTNzncmsSyXLplMt0b5W53JK6JqiyMtDE6SzObKiw1MjVBqLNJQUtg0glQsslkgloiwy1mEslhVSIDOs895xrMM29JbEsqJY69uHTpnsl3gACgAAWUAAAAooAAAD4I49AAAAAAAAAAAAAAAAAAAAAAAAAAAAAAAAAAAAAFiqAAABZQABYKAABZQAC9efaz0+rh6evO46Ys546WXn2mrneGOk5/M93zK+T8T9h8fc+H6u9OGbDM1k5Z686msI69vN2LYj078vrX6P1vmfUy9fTnuNawzdZc83VzrNsZmtZTNudQxuaslss1c71IsGsE1cboU5TcJNU5a6ZM0LUFpTMjVyrczUViXUlJQrIrMl0gzLYilyki5jOkmMWszOulx0sCrcWN7573O+uXTpihAFlAAAKAAABZaAAAA+COPQAAAAAAAAAAAAAAAAAAAAAAAAAAAAAAAAAAAAACpaAAAWCgAAqUAAAoBTXfj6dZ9Po5dOmN87myazsvPpiznjrx3OHxPr/M08DwWzrw1gznXM3jpmoz0PPn2w8V78zN11L7ceiPo+7h7Jeu+PfK2Jdss2yXNualzLM2yaWVbGdNZqyymq56lDdOerCyQ3hpMbmV1lIayLEl057KgqACmSyIqYXTItiWoSZsWTpjNYucaZZzbZY3ZaWWoti7xrU69OPXpjQsAAoAAFlAAAAqgAAA+COPQAAAAAAAAAAAAAAAAAAAAAAAAAAAAAAAAAAAAABYqgAAAWUAAWCgAAWUWDp6fN69Z9PXnrpjpjhLOt8ml9eOXTWeXLry1OXz/f4tPg8Pq/OMwrPHv506VTGeuKx155O/PHQ36MeiO3TPpl9Xq4emN75yO+ePll+ljEy3cTN3vzdpUrOiJd2b1mWNTbCzczqt5lNXnRYi656NSaqSwYqJZojVXM2jBoyQSIWChYgQiZsWsyXTNgsic+nPGsxM61cbs6XBNxqpZpWsjrvh03nvcb3gABZQAACpQAABZQAKA+COPQAAAAAAAAAAAAAAAAAAAAAAAAAAAAAAAAAAAAAABYqgAAAoAAKlAAAKDp383fWfT059umMuyzld8zPPfOzXGcdL4O/LU8Xm9nGvBy9HI5cu/CzprnurmlzOnROPq67jPp4dpfV0nc16fP2jln0alvH0dI57uctFlubmWROepFt105budVdSGbLWajULIjV5jpLF1ee00xoy1kZC3Jd5zY3MhElJDTCEVc6UY1CEiolEEslxnecWSJdazZbrGrKastylrOjfTGtzrvnvpihAAKAABYKAAACigAPgjj0AAAAAAAAAAAAAAAAAAAAAAAAAAAAAAAAAAAAAACgKAAABZQABYKAABZTXo4erWfV149d4udTU53eFxz1mzjy7cLPFj0eLTHPXKs8PTxrhw9nnuebtDnvVG5V6ejz07+jNj1evzdo8f09Ius2N3wemXvPHM32OWJfTnPOXphMXoi3WuetZ63F1NZEIqNSBpZKMbuDdxTczU1rENZZNZxuUsJbJZARiWxYIABampSVmNZIzz3nOsxnN1JJda56OtmjK5KzTWsWum+fTU6dOXTeNCwABZQAACgAAAWWgAPgjj0AAAAAAAAAAAAAAAAAAAAAAAAAAAAAAAAAAAAAAACqlAAAFgoAAKlAAFlN+nzejWfZ14dd41E1Jm05cvRxXh5fd5bPDj1+XTyXpzsxjpzqeX3eezOtQubDlrOjt6fKPX3+d9QnXxeuPX5PX5c3rrfQ+Z9PGs1d2Xnq4xdZ6ZlWWUuau+W7ndy1NsWtSC75ZO052OjGixCywZzmOmue1jUsk0WEjbEjUmV3JAaJqkzbak1Y5usXJiVliNYMaznSXJmNSaNazqwSWsbNbzqzbGq3059d53ZdZAAAqUAAWCgAAAqUCvgjj0AAAAAAAAAAAAAAAAAAAAAAAAAAAAAAAAAAAAAAAACqAAABZQAACgAWDffz99T2dvN6N43GtZmd4Xlzuo4+f0cTyeP2eXU5Y7eLbvPNz1PRfETt6fk9z1b403NRfPvptMe3hlfp+nw7y9Hp+V783d4dD0cd8MvRmYzrevJ3jeuXSaZ3IjOisWzpeOtTtOe6lRLYLLJasLZk3nMhpTMqluiVk1MSNZFlaJdUy1Uy0rJCs2NZYluUlksjGeuc6yuZZCL0zs1c5HOwu86N3OrLvNrfXn03nY1mgAAWUAAAqUAAAWKoj4I5dAAAAAAAAAAAAAAAAAAAAAAAAAAAAAAAAAAAAAAAAAqoKAAACgAAWUAA12497PR6OPbpjdSxy1zKuTE2OHm93hr5Pk78d58Pn+nw28OfTzueVsrreQ+u8Ml+lvw7O3bw+vN9ucejN6d+XTF4+maiZ3iXqmpec6yLZV1zWOaqnHpmzVzo6dOXSzawWWstYy0zFusiNDGrUzeisNypmoljNVKtVI3ay1Kmd2TFpcy0556s3lekOeOuJeU65zebWM6pYzrWq5TrziW0INaza3vGk6dOW9zrc63hYKAACpQABYKAAACpa+COPQAAAAAAAAAAAAAAAAAAAAAAAAAAAAAAAAAAAAAAAAAKqUAAAWUAAAoANduHaz19/N6emdyy549JTJoxqaMfO+l5K/O8Pp+PU82Orc446Zs4c/XLPFr0Dy59WDnj0c6no4Jfqe74Psxfs9fn/AEMa7ybykus3OmqWYib82D0TyctPdPB5LPrvDzPr7+d75dWzN6747RVqSpZFiWSqujV56s1cyqkLmspLF1ZtJpbLrCtwEzohTLSXGenOJnVlzbjNzjXDOt893NzpDprlDWbAtiTVp0zaqWzp059Nzpc61kEoAAFgoAAKAAABYr4Q49AAAAAAAAAAAAAAAAAAAAAAAAAAAAAAAAAAAAAAAAAAFiqAAACpQABZQC9Oe7PV6vJ6d57Zs1lULEMmIvLavn/M+149T5PP38dPFz9ONThnrmzCibi3GdkxOlOU6ZOvs+czfp+v8/2y/UXxeDN+ny+Jyr7nD5uLPo8/n9a7+fvzr2eL19JfN29Psy4e29s1OmcXVztSwtwLANUzq2xZKtguSMzVM6ujNpFzqrWYsQJF3MC1JRC4YxXNmarFzds4l6zlpLLJQNWWypRc6NbzrU1rnqu2+XTeNJbFgoAAKlAAFgoAAAPhDl0AAAAAAAAAAAAAAAAAAAAAAAAAAAAAAAAAAAAAAAAAACqAAABZQAACgdOez0+jyeneO9xrU0lRjWTE1FmbbOXn9OTyeX6fmt+R5vq+LefJr0c9Thx9fIZ67PNn0YMdsdjzulOGepOOenOno4eqXOPdiXz49/KPNn29K8/a6jW+m864+m7ydddo527OdJVkiEXes7saWyWZreYJKhbqstDG8yOklS3MLmlk0isw2xTUhZjWMmbc6xNc83WcSVlV3rnTeSJrMOlyNTNS6mqawN747rv05dOmN2XWQKlAAFgoAAKlAAAPhDl0AAAAAAAAAAAAAAAAAAAAAAAAAAAAAAAAAAAAAAAAAAClgoAAAKlAAFlFg7+nyejWfT049d50gTVsw3gznXOVneTl5vTzPJ5vdx1PDj0504u+jz73kxrtDzb7aPJn2ZTx8PfivBfdDhfd1l8uPZrF8W+9a43e4zz77k8vp1o67lGpstxomdZLEjUUlKu+dreZUjUJqUrMGoqyyBSCKhakNQLMyEiWUjUzzzrWc5l6XnqNZkKxV1lmNSQ6Zmi6wOmuW02lq6zV6deHXeO1zrpgBYKAACpQABYKAAD4Q5dAAAAAAAAAAAAAAAAAAAAAAAAAAAAAAAAAAAAAAAAAAAAqpQAABYKAACg3383ez19OHbeN6mqjWLJnWZc51mGVJjcs4+T381+fx9nCuPbn0pLo5XVi9ZTPSbjxPUryXvIrrJfP01iXFuiO1jnOuzn0m7JuhZRLCyQCAFKCrYLZqzLQzaMtCWUk1kXNixVigDOemM3MJbKjnnWc6tliZ2M53I5XUUmV3myogtnRFtS6KqWW9OPSz0dOXXrgsuQKlAAAKAABZQAD4Q5dAAAAAAAAAAAAAAAAAAAAAAAAAAAAAAAAAAAAAAAAAAAAFloAAACpQABZR056PV6PJ6N479OW9QhJmyVjeVxaTFnU553F48fVmPDj3Ys5Tvo48/VDzdNFrcOeeuY53WjDclxO1OW+g5ulMa0M0spCwICLTDQzbCxF3M0usasusVNY1KtmxqWzOeuTndSIqXMpc25i5Zlszc1SWYZlY6ZjIl1cw6M6GblXPeZcE0uuek6XFTpefSzQhZY3vF069OPXeetl3iAAoAAKlAAFgoAPhDl0AAAAAAAAAAAAAAAAAAAAAAAAAAAAAAAAAAAAAAAAAAAACqlAAAFgoAALYOvp8np1n0b59NSkREGbFZ3lKQZujOeuZec6Qw0MlMTpky3CTcl53QKIzS3FTV501JKtyLcw1IFQ1c0qCxCxTN3ktzqpoTRqsNrJc6EsDKUZioVnWYkjNTUlZ1M3nOuZZnVXIhZSZ1hZbguRZasFGhLVCDWsbN6zuy7x11OmjeILAKlAAFgoAAFlAPhDl0AAAAAAAAAAAAAAAAAAAAAAAAAAAAAAAAAAAAAAAAAAAAAWKoAAAKlAAFlNejz9rPT059dZtlsZsqTUiY6czQKkFyl6YoxNZISERdyE1Mw1zZOkg1Ck1BZSSwlmY6MWrGjF1CamToxqUtpWrnOgk3azcjWsVOl46rpMi3FVjaON0iXMlvPcObrM3CyWY6ZzcGZVzpVli5sXMmV3MKWUXNTaUus7kamiY3kdM7su5bOvTjvc7XOt5ixAFgoAAFlAAAKD4Q5dAAAAAAAAAAAAAAAAAAAAAAAAAAAAAAAAAAAAAAAAAAAAAAqpQAAACgAWU13497O3TGtZ3eejcikRGdZlstqSyMkjTNqyIsUxNUxNjF1mpz64jU1Ky1KliBDUgFMNlw3mLcU3m2sOhJrNrWs6stBEqzUJSQZUkjbmOjFNQJipcNxYM1m5zZKiZ6SXnbldM5GLhazVKMtUjdTOiS3VATNpW82zXTnqt9OXTU73j03mrLkABZQAACgAAWU+EOXQAAAAAAAAAAAAAAAAAAAAAAAAAAAAAAAAAAAAAAAAAAAAABYqgAAAWUAWaN+jj3s66ts5kzd3Fs1mzUsAmrJnWYQlBWA1c0BIWpEJlk3vnTWdQznpkl57jWbqsy0zFWyok0Jasm82uhqzm6ZLcaLvnqwsMtYgQIlsZlszoTUMasLIls1MpjbOued5GbJazhenEWZ3kzN5tWWG86LZU2mpIDRRcbRrVsUq6nTUvXOtyyy5AAWCgAAWUAAA+GOXQAAAAAAAAAAAAAAAAAAAAAAAAAAAAAAAAAAAAAAAAAAAAAACpaAAAWCgbx0Ovo4ejWd6gmNSVc2KjUBLc2xnUXIEsjFVRItzaERLLczSMwNpRKszjplalLCGaLc2k1mLZU3JqtaxuzVwpNq5zpmEQ1eVNzUMzWYxalzQLCJmXd56NDNxN5zcZ6DDeV556yXMYlYstjWjDoMXVTNu0l6VOeqIWGpa1c3UaaLrLU6b59dZsLJZQACpQAACgAA+GOXQAAAAAAAAAAAAAAAAAAAAAAAAAAAAAAAAAAAAAAAAAAAAAAAKoAAAFlHTns9Ho83o1nosszNZzYJaihE3Is1EpKJnWQslioiUS5oCWUznryNyyKza1EM24OkUZ1CVk1Lkb5dDqzuzN1mzV56NJaMhcI3mjKZjWJtWlqUM56YyxNlxqozlJdM6lWyJjWJZElxnZcXRctLM2WRt0sbVLmZKm7c61UTTUmtKCJvOrOu8a1LLLICgAAoAAFlAAPhjl0AAAAAAAAAAAAAAAAAAAAAAAAAAAAAAAAAAAAAAAAAAAAAAACqlAAAALrOjt6PN6NTtZblLIwsmkshEKhNs3SoRnUE1FZsgBKMkLKpnUIIgNQGbk1VGbBENXGzE6Q1rG9TVwqySN3FNsUsgubzNM7OU7BN6rOdwk0yzrNqlzcy2XE3zJlnN1M5l3nml3eY3FJENpup0u7JaszOmUlaqassFrUaIIdM7rWpbESwBYKABZQAACgA+GOXQAAAAAAAAAAAAAAAAAAAAAAAAAAAAAAAAAAAAAAAAAAAAAAAAKoAAALZTr6PP6LO2s61mLCSyVKzcywk1mFjTVzbCCyiCIsBBKJNQSwzrOhKWSxJnUjWs2oqk1mEujFlC4OiSs6mDsyN3FhliulzRbuwzSyKqyDnJe0zbEkzdZzJdTVjnnbN4ztlcZ6SXLeDM0M61qptbNM5s6TO7M71QSyxuluUuUW6x0Naz0stlsZsAAKlAAKAABZQD4Y5dAAAAAAAAAAAAAAAAAAAAAAAAAAAAAAAAAAAAAAAAAAAAAAAAAKloAABrOjr6PP6LO2s61lLBFlZqMywyqWSxJZC3A6MWtJRLCAWACSwxvGjTNIQyqNZQtWpJSkFzSpDeLkubk1rEOkDS6s5zqrlvVI3ozm4NZwixtc61qsWzLMuZbLDNmpZKhnZeN6EzdQzekrlrrbOU7KxrRJZKrVRLaxaiS1ZvOjdx01LoTMsAAFgoAFlAAAKlPhjl0AAAAAAAAAAAAAAAAAAAAAAAAAAAAAAAAAAAAAAAAAAAAAAAAAWKoAAGs6Ovo8/os7azvWYsICLJZNQzNSIsMzUlwUysNa5U6MWy5ZjbNXTGrGdZISNTMNsw2gkuTeuWyZuTeZk6sWtZQ1lk1hqNamqztuyb57pN8y9Oek1nllemdIxOtXltoy3msNMszSWFLJgRmWs5Trvn1LdqlWzWU0qaRaEQubSKJdCZ1CXOpd759bNEsksCUAAoAAKAABZT4Y5dAAAAAAAAAAAAAAAAAAAAAAAAAAAAAAAAAAAAAAAAAAAAAAAAAApZQABrOjr6PP6bO+s63mLCTUiKMKiSxYuRLDM1IzNZlmbmKwOkzDo503rjqujnDfNiOjKlwOznS5zTVmbOkgVCagsaGdDn1z0siw1uWyWWsY7YXPTSBohI1MUqZrrOe5WLRGIuKMZ6F5Y9uk8e/TTl02MrKhLNJaWCoRVKhawNs2FRTFy69OfbUssszLCWCgAWCgAWUAAA+IOXQAAAAAAAAAAAAAAAAAAAAAAAAAAAAAAAAAAAAAAAAAAAAAAAAAAKoAGs6O3p83p1O2prWEoy1kk1CSyIkXUkKzZWdDE3iMZ3JeLpkxSMtVZRE1DM1BkqNQsBQlqxbSS6TN1ms9JqjdJrO7JqWpVRmJdIKzsskluLCNaOV6ZLIjQXGtLM50jOpK3c7FsqwMtoxdDDds53pa53cMtDOdo53dXF1iJnUXOjN1149bOsNZyCCWpUCgKlAAKlAAPiDl0AAAAAAAAAAAAAAAAAAAAAAAAAAAAAAAAAAAAAAAAAAAAAAAAAAAWWgG8dDt6eHp1npqa1mSrMzUJCWSwmekXnNoysJLmWolY0TnnojlNxctwzNDM2jOOqubpkyoyaCkaxK6MdKttslaTG9aqXnoqhZKJk1Jzi7z0KgialyarN0I1Ik1klUTcOV6CabqKSXSs0hnUUQ1cWzTFKkSgXOV3JS5TNSpWdSW757Trc63mSwCVYSigFgoAFgoAPiDl0AAAAAAAAAAAAAAAAAAAAAAAAAAAAAAAAAAAAAAAAAAAAAAAAAAACqC9eXY9Hp4ejpjVLlCpLIzN5WSoiFsCZ1IxnpmXF1IZoiUznpDm1lUtjGmTbFOkQyqo1Uk3o43riyamql1qznrrkRK1qUudZi5mS8+kOWe1G+WjWaNJyXpqbIsSkEslmmjDRI0Wo1CIpus2yEqJKqNKk1CLBEGsDUaEqWGc24slnXl0jvc3phBQgCpbAAKlAAKAD4g5dAAAAAAAAAAAAAAAAAAAAAAAAAAAAAAAAAAAAAAAAAAAAAAAAAAAAFlrXfj3s9Po4d950s1lNQysMzUjIlkRU1lEJWNSJnUMxJdMq0yjUzVmdwzNyMSw3ckaxV1LqxcrLqyoizpcaN3G6y1kllJNyOetZM60M2aM3SsY7coupDtOUjreehStXOggJRoGbazq1AqRJYUbg0ksuRZajLdrDcjK5hm5WxM24TGp05aPVee+uEIqUAWLKABYKACpQD4g5dAAAAAAAAAAAAAAAAAAAAAAAAAAAAAAAAAAAAAAAAAAAAAAAAAAAAFlrffh3s9Xo8/feekl1mSjMsJLJYCSyMqMzUlkuQmZdZUzZYzUKgWCZ3DlnpZZWjFtrOs2zWOmUnTGq2SyRk3vz6O0z0q3KGVGpammiZohTntSY3Y82O/ll9HTy9Trcas2kLWgZrUaJqK25pNZkBSbhdIQWoDSUqQuZM1mpc1STWc3OdZzqbx0O2pemIBZQACpbAAKlAAKlPiDl0AAAAAAAAAAAAAAAAAAAAAAAAAAAAAAAAAAAAAAAAAAAAAAAAAAAAamq16OXos7dsdNZpLBmyxKkslSiSyJLBElZoyIjcrON5lyjN1ZbEokBncMbDWarRbIbrF3kzpqxN0ysEujnnpmNuVOjNog0kG+WjUkjpMURs4zvDjrorO8Q6uWjaK0UJsEiZ1lFlCZNSVS0WkEWoEZiolJJdZzM3WJM29OPWu9l6YAAqUAWEooBYKABZT4g5dAAAAAAAAAAAAAAAAAAAAAAAAAAAAAAAAAAAAAAAAAAAAAAAAAAAFapu9C+jn2Om8W51DUIsSypLBEgQRFubDM1IjQzdDnnoOOemM1rmOswLnplWs0sE1casayrpOWi6ua3rnU6ZmrMtwmd4WY1IqiS0jUM1tc3WkzvNJVGZKuppKlM515l664pe2+WrOmuSzrnMLm2Mumjm6ysN5MzolxdqzOmYxnrDlOmo4TvlcrIkszWdTOsTWc2deW69Osb68wAFgoAKlsAAqUAA+KOXQAAAAAAAAAAAAAAAAAAAAAAAAAAAAAAAAAAAAAAAAAAAAAAAAAWpq7M9NdDPTW1baiaXWYs1mLLJLBZCxBLFhTNCZ2ObWYlgRBi4zV56jSWk2M1CpRvja65dbOU7rOd3kxapq0yQmpSyU3mSKlNSYWXjs650TV0qS5M9OWzbBOjnDl5fVJefWaG7TVmtRdU53oOd2MNjE2M0LnUIomdyMXUXLWc2SyJneM6mbjNslzZvn009Gsb681lAAKlAFhKKAAoAPijl0AAAAAAAAAAAAAAAAAAAAAAAAAAAAAAAAAAAAAAAAAAAAAAAFJbqprezHXe5c7u5ZrVsjUuYrUktsysREqLFgiEKkNMrLlFJIrIsZgmZZdWKTS5qs42y5a1k0zqtdeSzvMZs2dDOdwlzg6Yll3eWrE1C65dSy5I3TNuS7xqtOUTeWyb1TOdWuc2JbsxOkOM65M7g1caNFqEKiJUNXIqC3FhnUXOdyMy5lWM2Z1jOpLM2ZuYu+fTT0bzrrzAoAFgoAKlsAAWUA+KOXQAAAAAAAAAAAAAAAAAAAAAAAAAAAAAAAAAAAAAAAAAAAAAAaqavQz011jHTW5rN0HTPSyl1mZ1m5jSpLLJLCSwksliiSwSwIEQSyCKmdyXnNyM9cbKsqAZ0OE75MdJosLMbuk1rmq3NGOkM8+sXm3E2Qxu0LS3lTpy6Zqa4c49Tho7b47rcYTq503YrSQuZg2lhSq0JSqgZ3mMN5FllJCsjTKNsVbJM2ZZzWNzGsSyEZW9uXbU7bzrrgEWUAAqUAWCiwACg+KOXQAAAAAAAAAAAAAAAAAAAAAAAAAAAAAAAAAAAAAAAAAAAABWqnS9TPXW5c7qW2WVqa1m6LlTWWdLMqqS5EsJjcjM0WRSEERUgS1ObaMNWsXUXObnJoIqolNS0zNrMaUmwuLbMwNyaGoNMqnPrDLpDWRLzuJcdVNaWuOe1OV7I4biunPdOd3g1rO0S4q41DOpDeudOlxTd501cDTNgBncMtFzncjDWVRYxNzNzLzzrWcs2RM1Et16PN6dTvc66c6LAKAACgAWWwABZT4o5dAAAAAAAAAAAAAAAAAAAAAAAAAAAAAAAAAAAAAAAAAAAAFuqdNdjPa6lltlzqaJastmrlV1kssSqksJmwgJLCElRIRBBZNEgLZFqWpjpiMXQjWIhampREN6zqzOd5MrC6arGOskzvKrZ0JCrvNSJVZuTO90Z1C5mTehN5wF1axNyJNDOoq6xYqqmekM1CsSOzkXpJUi1Y0JKCSNSSWyJWbIiSambMWZ1mWTUlzEt3383oue+86686lsAWCgAWUACqEAA+MOXQAAAAAAAAAAAAAAAAAAAAAAAAAAAAAAAAAAAAAAAAAAWpq7J2vcz01ZZUloLVsVu5lt1mK1GaSXWamdZJLJYQk1kZslZsiLJQIsoliyqhCTWSyQrOjN3gKrNWLrKyyLGlMrkJsWaIQlsJrFFKvTFNYzzPTJCdOWT0Y5bLrnTq47KxtGrCCk2jOlpqBNExnZcTpIzUrTNl0zDcSGNYms51nFSoyuV0xJdubN1Mi5ZlgXXfz+jWe+s6687YsoAKlAAKABZUCgPjDl0AAAAAAAAAAAAAAAAAAAAAAAAAAAAAAAAAAAAAAAAAW7rOunQ59tdDPRqWLCFlWktm9Zul3lKucyxbc7sZ1msrCRJUIksJCWSyJLJUoiwsgpmtRTMomNZhZoairnNsqU0tM22pGU3hlWroxLUmlEtqWaMtQzjaMaBVrHL0co5dsl1iQ3049E6XO60ssazRA0mgqoSLEFkjTNWZ1IiwjWZUZzbM3NiFRmW5jNEKgksVKjPo4dtT06xvrzosqUAWCgAWUAAosA+MOXQAAAAAAAAAAAAAAAAAAAAAAAAAAAAAAAAAAAAAAAC6danXfUx01ozalIjWU0Ui6zsu13zWN50iySxWlSZ1kkRUSIQSSWxFi5hElIiXKLAXNWixGQgugsLGVq24Lc6otMzVMW6RnUqVTOrAzslUmNZS7CLTMuKNSXOevOMXVJnplfP6/L1O15as3RNSUtitMU1CE1a5zrmOV3mVCWxATNCXE3mWQMy5xZjUlSxYirrNNWBvn1ue3TnvrjQsWCgAqUAAoAFloE+MOXQAAAAAAAAAAAAAAAAAAAAAAAAAAAAAAAAAAAAAABqdK16J6LJ0pZYyuSVKsilWaLqa1nRreJa1mSyVcaNS5sS5GbFZqM53lczSMrksSWSoyslksiGVqQ2zS5sTDQsKtK1VsRSSypZmLcaroaSQpcizWhGSXOjO9RKgsuTHTOhlsY2XN2s546SOU3ZedSXprFs2brnuxLIWg0hNMlsiM56SXE1JYZl2xTbIY6ZjljtjOuc1jOrEMzRZZZNWWr059LOvTnvpjVl1kCpQBYKABZQAEqWvjDl0AAAAAAAAAAAAAAAAAAAAAAAAAAAAAAAAAAAAAAFL259679+XayxFRM0CoKlG5u5u5reFN5SwmWZbuWKTUkQQWCJmxZLmLEiEUiJLJZKjLUWEBYlkqqAsoomrGdUyguLSbUsWwsrFljTNE0prGjUkNVBrNGblNWKzrOpVLK0Oc2jHD04l59OW16axLO0xosWGdQixQiUBC51IxN5lzVW3NsY2jljrM6446Yxrm1mUarOkKg115drOm+fTpjdl1kBYKACpQACgAWVPjDn0AAAAAAAAAAAAAAAAAAAAAAAAAAAAAAAAAAAAAAWarfo4+k7bxossXNiLYCC6zutbzreNazrWBNZuUmpEzrdzUo1mGVSBEiSyXK5LmyWEEslk1CSzNIEoliEsNChbLLkpKos1JTOpoiCyWrOlTlrSwWWsystZhvOhVonM3ZUtwVJs2hN4Q0hc53DmvOOusaDQlkl1mwZ2Mt5JZQkNJojY5XUCUTZcY3nLniznvGOmZrFQoIVddufW43vG+mdWXWaACpQBYKABZQAD4457AAAAAAAAAAAAAAAAAAAAAAAAAAAAAAAAAAAAAAaza7eny+g73FNsJdM2URLZa3rO9Z1udOmINZhImbnOolzrWsWzTLUuYGdQhBnWckRUsIiVKJLBEgUzN5iCWApS3Ctc7qzUlpM01KTOma6S6M6zpFitWZs1iIlttrIaUzNZHO2LrMN5ZXWsbRNBm5N3mrdUmOuY5UOjnY3JVILrI0zqixJNwwQ1vlTozBNSLcaVnWJeXPtx56yZzqyVU1DIOu8budbxvpnes61mpQACgAqUAAoAPjjnsAAAAAAAAAAAAAAAAAAAAAAAAAAAAAAAAAAAAABYOvfy9a9d5blqJdJSykus9LNdM73jVl6YSyyS5mpi4zu6xrF1c61ErWZLCEAJEyksWSyWQiwCKudQysi5pcqjN0M25jUlqLhN5Ws1S6xurGUXmNpqms2kI1rEstzoayNWDONFalQQzGjS5NTNjUgaLdSDTFi8+g4u0Jc6NXnTWaEEtzqtawrpMaSSxctSJZSxSElxz7cs64565565OmZqZQXOzfTOtZ1vOt53rOtZWCgAWUAWCgNebc73j2sHM//8QAKRAAAgEDAwQCAwEBAQEAAAAAAAERAhAgAxIwITFAcARQE0FgIjIUBf/aAAgBAQABBQL0Y7PBFL+wbtUSO0WZI3ZGnUL1sx4plL+ubs2Md2MqqOrvSzTZQ/WrGPKkX1jZI2STdkjHSTaBFJpv1sx5Ipf1cjGycYIGNkSQK1JpsXrWoeaYn9S2MdRU+BjpIsxEmmynt6zYx8CYvp27NjqJv3OxN3d2bEzTNP1qxjzQmL6Vu0jY8J4HaDsUM0360Y7NcCYn9I6rSNjYiCLQNkkkkk4Tak0/Wrsx8CYqifoaqrSOoqqJIwdRM5wRdGmL1q7NEcCEyfPqqJJGxskpEQdhu03keaNMXrNsm8G02Gw2m02m024SbjcbifJqqG7sqEhWkeEZK0WRplHb1gxsmyRBBBHLJJuNxuJJJJJJNxJJPHUx4OomRIV2ybO02RNlgigp9Y1XpRHjSSTaSbSSbjcbjcbjcbjcbjcOokZJIyplIrt2Vpt0wRONBR6wY7KkVP0sk2kmzs7Nj6ulCxbJyTurRago7esINolzT5DNxuJJJwbHUIWEjZNnaSTcbiRCwoKO3rOOafCd5sxuDcTabsqdqVg7Nkm43G4m6pFSIi02oKPXU80+FVhFqmbiRWVmOzHeb02QrwJFBR7PWLyqQ+6ZJI6hu6QlaBjpIgdqnihCFgmafen1ZHhzhGasnhObux0EQbh1EjshK7u0OkdI1grU3doEjTF7Hiy4VwQQV0kDeFN5JIIGNlVUDe4dkIp7qyuhFAvVUEeG8lZLGcETaZOxPA0V0jVldXSs3auqCGxuBuyVqVanFGn6qjwHk8/1wTGHe03nF0ldBthivNptI2bTUrGxCV0hLKko9RwQQR4bwnBEEYPCbzZkWWSyqHQRFuxMiw7jhGpqWiytSIpV4vSUL1DBBBHDPE7O7wYljOEkXgeMi65RhA0VKzEsaqtqr1ZurrqKkpQrRhpoXqBCRHluzEKzvArMStGG7CLLigqQ1ZYNwatc3V0pEoF1KVaLOyNNeoEhLlnkeDus3b9m4m76kWVp5X1Kli3Bq6hM5JQJSU0iyoRT6fSI5mhXnwljFoNvHFpJ4Wh03bg1ax9WkMV6UKkpXBplPp5CXlu77WSyjgbEjudrKzRGEcCs0OkfQqK+r2m0YhCRQrU3m7cCqNMp9PLlmywnKbu7slghWWEXggmzZ1YlF++UEDFk0OkrpPxn4yukYimg2lKs+gnduCrVJbKEUFPp1C5JtHJIx3dlf98MY7RdCbyJkncjkY6TaQVo2Co6pCVkMizq2lerLoUlNAqSkp9OoXJAiMGLgY7sWCGJcvcg7G7BCfO7NSOg2wLGCDWTKdPrp6ZFqSn04uSb7jcSTaomEni80MmyEupGSvFmSNkEEECwjOM2iLRwNSLTEh2pKfTaFy7irXpRV8lH/pP/AFFPykLVTUkiYsXnArKyzWUEEkkkm4kVpxXBBBBtGuHcKsmbU96RemkLGM2auqqVq6u5yyTcKs0tYp1JEQU4PF2/ZFkuFZwNG02kEWVossVxNDpykbumSUspF6aXBBF2V9F8nU66em9Qqo2JybWQJtGjWU1lLkXMuBn7tGTs2TaLSSTaSCMVwMaxYybIkpKRemULCCCCLO7NfUZRovW1KqadCjQ0v/RqfL0dPT04IP8Ax11Kml0VUVmm54GsIIsuB8kDxYs5FxMjGpEEEklIhC9MLCM2QVmst5paa0tPX1d1enqfipq1qtSvUdOzR/7XyNDT0NatV6tDNBdOBkYfvgbtPI7biRcM8bIxdoFSUiEIXpZCFdLgZUU00t/Kq26Tc1bug31Tgq1HUkaSl6XSnCCLReCCMFwdiTebzeSiLzdqypkiCScYvHHA8GySSRMTEIQvSyFdcLPkVbV8ZyfO/wCVT1izvT1elRBT2skRlHJJNqtRFeuj8wtakWrSJySyRnUTw7WhEcbFwtWZXTghCExC9LIXJqPp8j/S+N0PldV2fcgqV9KmTTXRWWLyeE4TZs1NXatTXbPyDrZvYtWop+S0aWvuExObTePBkkbzatUpK1dCEIQhelEK6zd6yvqUVbatT/VNXSuzKqSJPjafSBLN2S491nUauvBXquop03Wf+dxXRGCrgXyKjQ15JlMVRJN44Z53apIdJAikQrIXpRCslZcElRWju6q9pqtFOobkOtEOo0PjlNG1EeDIzcbh6qK9UqqdT0tHcaHx4FTpFXxNHUWv/wDL6aml+NxZFNW00NeSbJxhOE4vnY7NWRSKysvSiEIXGyqkqUDpkq0pHoC0mLRRp6NJRQlaOCLO7ykbRVXDr1EOqTSo3PR09q7HytXaaPy9RGp/9B7a699dX49kDVqKoelqylZZxdeE0OzshCshC9JoQuBjJN16kbYGmOSnTqZTpFNEEc7s7Sbipjr66jmyUv42mIqqhfJ1Jr3QP/WLQiivaaepKExc0czsxISsroXpJCEIWbHhJ0HSfjZ+MVMcMcTsyTcVVFTKnbRpl6ShN9NSr/OrVNRIyjq2rVCINGZS6QLxYzY0ReLoQvSSEIXAx4RIlaCPDdmis6kFSKnf45QVM16/8vvZiNzdu5TpONppaTFSyCOCMI8F5IQvSaEIXAx5R4zOo6TaNFaK6SCqk+PUU1DZrdUqR0DpZBF9Kht1dFo6ZTTeLwRePGeaF6TQhcTGQK8Yxxxm5JtBCNam3RqNtWnqSbitSqujkaHfT03U/wDNFNFL1HTpwJWjGCOSPEQvSSKRcTHhHjTaRpH7NprabY9Joho6lDhqpM2uNUVR1NlTFpVC0WUdFTpup0aSp5II44II4XhF0L0ihFPE1Zq6XjMjJED05KtBFWgfiF/l06nR00VC0aDZQNUoiTYzS00ymhI68s3gjGMXaMoIyQvSKEU8cW2kcU2nk63doFaCCB6aHooel0p02bKh6dRRpyU6cG2kVKVp5Y8GeRC9IopFaeVk5T4E2gayd2jabDsyEK8+FPJBBHGhekUUis0J8LgddKHrUj1kflFqG5Em43Ekm7mjB5zZknRkCWKzjzYzXpFFIrtCeUpFesirXqHW3hPTez8jPyi1EblnJOcXgi8YQRZEYSThOU8DdoItHHHIhej0IpxaE8K61SV60kofQdRutMkknW0i1GinVQmJ2kQym0k2jkiz4II8B+cvR6ELJoVqntXyfk9fzM/MPWlbz8h+Xp+Q3yTapm43ElGsU6iFVIlaCLMgQ7T4Ekk+I8ZJ8dej0UlL4fl6myiuqapvuJJJN4tRi1h6h0dpJKK+unqCqkWUEcsDRF4IIyXNBBtNpBF48VC9HIpQkdTcTi+3ztSRsbN15zk3EiZItQ0NWSnGPBggi0EEEEWgj6xejkilCtBGLfT5icjsh4zZO6Yr6HfTbjnjKLwQRyT9MvR1ImyaiWbmfkFUK7Z8qhVLVp23pHg8FdMQu+koNNi4mIgjgTwjOco+nXoxFKEiDabUfjRsFZjNQ1qZKlDKEPB4K6JKO9BpCeU8rtHFBFp5p8ac16MpKRZzatlVQqUzX+N1/CPosGsUyRMk0yhGmhYsi85RgueLQdsZJ45znwET6LpKbuyIu2VGs9ovkMfyKmVajHlA6cqUUIoRT0EycIw28jJ4Yshq03knGeKcp8BC9FIpETgrO1QzXp6Pvk7SdDYmOiCCBIpoKehpxEdKcp5IwaFxz5r9MopEReUKokbGxsfQ1HJqKHwyKodVkiikgpokoUCw3EjqJNwqiRs3Em4VRImSTlP2Ek5L0SikTNxvZLO4uhNmh9CpyVKDUoTIjBi7ZJCRDKJIgoEPpapwtzmkqRSVIVLtBBBBBtNptwm3fKbwR4ck8jwV4zXolCYm7QbTaQdiSRsq6DbZUxoatIxZKiRUipgpKabU9BGq2jSZUpSo6wIi0WjjjwpJJ8aR5SSTZYr0VSISwbtFnUVOSo2orQyLMg7YKkSINxtqKJtuQh0yKgWU2nBeLHnTyKy9FUlKzZBVSVHUbGzaMaHbvam3YTP1sFqQUVyNKpbKlXT/AMiJJNyJRJPiRaSLT4s3jlXEvRKKRZN2bGxwV1M/XcfQdqhIjrArRJt6JMoNsunTSS6ChoUDcL8nWlyqyln6nruJ5+2MZyN2nzlhPo9FIrzZsgYyocsdJUdkNI29KhLp0EirpZdCShm+HI9WFp17xvaPW60Nt6rcaae5LoxK3fnTJJ4pJxknyo5l6HRSLFIdmVIgrdmMg/TpEjadh0yNCUnYkp709q6G3pUQPqfh60qDuOiBYdjvmvBecEeBFpwnCSbwRisF6JpEK3e7syorZUJSPB9lV1/XdvttlRB3aQhVQqXJ+k+v/Sv2Y3AnbtyzwTZ8Mk5RhBHNF1dvhXohCFi+rgZBVSOln/KqfV6kH5j8o9aTcLV6UtDqFbb1aKRvrpvo9UVTbpq6N9aWST1KuoujsrO83kkm8ck+FOMk8atI+BeiUU2V6uohu0DpNRQq6hoac9Zd5N0G80n0ffT/AOtRiqKVIhqSiiCCP9LFqRdCMZtLlOyFi7TaTvdeTBBHHPpOkQrtixZq9qu50HQbTbaCLb4p/IUanV1qUymoTKSYE5vNldopfBFkJ8sebBGSIHaPSNIhX7uyuzXXSuzvVSbB0xirJirNOspqO5Sh2gYsH3kZI6jeipwU1Jk2VqXyJ+DF44mSO8XeEWjBC9EIQrMVngzUUmpQNEDXQmzNptNhtNpBFqXAtQo1elNaZKykbHWPUhPW6U60vUrg/L1/L0VfWnUkpfNHC+SeJ2SIItJPIvRCKRWfBUVorIsxrN5UlNcD14NPXkTNxXr7RfJK9c/9Ep60n5JKqxVxU3vohykynTZRSU2XiwbSOOSScJJJJwn0uikXDFnSalJtK6YIHkhrqRJsxbNOra6dVbK9ZzVW6jqIq6ElJtk/GUI29aaSkSNvhT48jxknwV6HQhcM2Y1I6CuiR0wR1aEiqmyUkQ3ZEjQhipGrbilSOgVPV0ESfiRtgpEbSOiF1SR1tHhx5TsuWbT6IQhZxgyBlRUipG21SNpT0dSs6BDo6JDUEEDIFR1oRtI6lVBTTA6dyWmRtdKP3+ORUwK0c03gjgknOcos85wkkngRIvQ6ELOMWMaKkPttHSfjNgqZPxw4NnVLrVT12kQM2ybRU9EnO0dBtEQLpapSL/IupTk/Dm84RyvGOGSeFeh0IXC7vqNEFSGhXjr2dkh0m02dajYKgdHWmk2ogdJBB2dugqSBeBPjSTjJNp5pE816HQhczRUh9Eu/7R+4supAj9lVPXbZKXtGjqT0INvSCDaL6iMo4Zwi08SF6HQhcLxaK6SBoXS3cgppjCBoRHWD9X2ixgXjTePEfJJN1woXodCELiZF2OkdJBHSDaR1ERf9u3Yk7m0SIIII8aM44pvOckm43E5PKSScYtIn6GQhCzd0uuMG0SIIGiBK7IwgSII8ueGOZk2ggjCcHgsFwL0OhC4ahE+HHhzzRmneSSScpHyznPEhehkUi4X4bQvMjgjCCOCeCbTlHhr0OhC8398c80Xi08T4ItF5xi0kk2kfMrr0Sheb++SeSOSSSScI4ItGUEEWknxF6GQheM8oP3yRhN4+hm8EXk3E8Mcq9DoQvEXD+/Fgjzo4pJ4Y4kTZehUIX0ifNIrQRlBBGEEeFN3hHFOaWK9DIQvCfE/HWDWEk3eM5ReM4vJPLGSygXoVCF9xBGMk8s4PNm025xxxjF5F6EQheE/ppwdossYxkm0k8Mk8cEEcy9CoQvCfK/MnObznBB2vOcj4URhJPEhehUIX2SFaLTacZsyCLJ+NBF3dCyS9IoX2s8zFaScJvBF44J4YyjhS9DoX3k5wbSMI4Hi3wqy4oyXohC+nYudieUk3WU8G4m83gjKCBK8k5TkvRKF92sVwySTwwbSMYIIIygjCOBeiEL6d87wnNYQSSTeCCCCLQRebQOkiyWcel0L6F+dGG27urK03km0YSTjFtpBHphC+rWM4zguKR1Ekk2gjCTuRg8JJtBHDBHpNC8aSfGeCxdouh5sRBFosiCOKcFxz6UQhePPFObFabxwrCbt3WcXm8Wkm0kEG0VIqSPIS9DoQvKknCST95onlQxIgggkYiLRlJOMkkG0g2CRBBHkoXodC+iiz4FnGEEEEZRwsStOEckEEYRwQRkheh0U/awRdZST4sccEeCvQyEIX0zYuKCBLimyxQ7wRwLCCCCPJXoZFIvMjOCLxms5FlI6rTihi5Y8SfSKKReHHiwQQRaLwbcVlBFlhA+ZZwR5C9DIpF5cZSTxQRaBZzaSbO0WkdpOsxjN4+lXoakp86MYFhGHYk3Ek8knci0ERePCjwINvImL0IikX1CIxgjhgi8EYTZ3kkn6aSSboXoRFJSLxotBHEiCMpE7SSSTluJxi8WizRFqcZ8yeJC9CIRSL6lDygaFjBtxngqOpImIX1C9CoQvo4ssIvttIiLQRaBkM7E80Gw2xjJOUEcM8MEcSF6ESEhfXRjOEk3nCbTaM4ItPgTxSSbuJC9BoQheRBBHgxlNo4txusiMni0RecZJJvBBHLHEvQcECF9VJuFWTnJI8YvBHFGDZv6zPjwQRyIXoCCCCPoo4YNo0bSLThPIyTcbicJETdsrqsibL6JC/v4IEiCPOfBN5snwIgjKcWdRK0Cp4tpsNhtI8SOdC/vYIEiCPoksIvDwQrzjJJN3hFu5BtIxmyRFoxga4p8pC/u4IEiCLx58i4ZurSSKz4WjsJ5SLCOBeFN5J8FC/uoEiCPpIFnA0bSMUsv3aRYK0YQTzSTwzxz4CF/cQQJEEebOcc8EZxaCMIvJJNmMliZIneSRPFkZx40Zr+4gSEiPoY5JwjwotNnbsTaCBIjNYybsZ8OSbSTjJJT/bpCRH3qtOG0i8W7kYxaOSCPIgjhRT/awJCRH3b4FjJAlaLTg7R4Ek+BGE8KF/aJCX2kcq4YIIO2U5wRwyT4M81Iv7JISEvukrMkm0Ecm47jssFnPBBBtNpHDGM3kknhRSL+xSEhL72LRdDu8pG7zZ1CqvJOC5ZvGMkk+GikX9fAkKkj72eKLRwsYrz4E8sk5TyU/10CRtI/gkrxmh4RdjIvFl4M4TxzZ8EYU/1sCQkR9zF54GLkjigfQkp7TyxaCM+niIX9WkJEci+yjwWLFvKCLNDQnZcE+FBHOhf1SQkR9qiSeGcFwQMm3cjjjCCBiwjyIHyoX9SilCX3EWniXmRdi5ZtPM+VC/qUU/wqWM+RFoGmibp+BHjIX9QikX8U7xhN14LsvEjhjiX9UhC/kHjHAs2R4M+A+Bf1SF/GxhFkovNpFecWTi7J8MEcMEEYQRZ8SF/UoX37u7TaM3dePBt5YII5nxL+qQuVfcLOcZO93ZiyWSxgk3E8kEPkf9ohfdRxySThODFi2Ti+eCPAjjaI/spExMngXC+CPPknGOac340EeU8IwXir/pr5H461rH+lq07zTWql//xAAiEQACAgIDAQEAAwEAAAAAAAAAARFgMEACIFAQEnCAkKD/2gAIAQMBAT8Boy+tD3nW10ew+3Ktrox6kYWOvtacY3WV3aI0IyOsrDBBBGNLLyrCywQQQQQQfkg/JGblWFvz25XZ9+V2fd3xjur7u6zg5XSPsduV1gju6tJPiR8dVbJJ8ZjqEk/GPovFdPn4vjfVZ51mOmvCkJZZJJE9Z1ZIWhImLUdMf1dIIPyLG8HF6jp60WPAtR0t9ELQY8C1HS31Wi9xjpL7STpwQQQRrOkvBJJJOhGy6Q/VdIe3JJJJOu6O/WdHd8Y74/YdFd9fsuiP2X/hy9OCCPEdEfsv+e3/ANEDvrvrvrvrvr9l/wBd3QX7jvrvrvr95++/dY6A76/bfuKgMf1Xl9F7Kztkkn//xAAhEQACAQMFAQEBAAAAAAAAAAAAAREQIGACEjBAUGFwgP/aAAgBAgEBPwHBnVC67d6xt2LrSPInYhPqTkbdyfTb41jLvTJ6DfIsZfBJuNxuJJ4m6LjWMPmkkkk3G43G43G7jY6acYfbdEiCCKOqzBUdVYx1WXqrqqsY6rL0ybVVjHVZghDokJUdGOiyOOdUSEqsbHXTjr6yFVsmjqsdfXWoWo3DZJNIGLFoIIIsfYkWomqZNFiq0m02kD8VYfBBAzShWauFdxPDkiCB0St18KuaI6Ko6IWGpVZptZqfJBtNpsHpGugmIY6LDEKjohVk1ah8SEhKyDVpGugqOmnDFV0kTNxuHqG+JIWkSv1LoKzThaFVjrJPGjSaaq3UPp6cLVjGLn0s0u9sbpBBFsEcSwpCta6CNLJFWSRsdkEcLuQsJV8EEEcqJNxuNxuNxPVQsJV0EEG0gggjmknsLCEK2LIrBBHjLCFalwwRxwQQQQR1kLB1VdmOq7VgyFVemsGQvQd6wVdhdl3rBV7CwVZ6vZWCIXsLBFeuB+UsEQrlwNEWQQQQRkyvngggggggiryVcCdkk2ySSST4awRcc0kmkj1Ekkkk+GsNkkkmsk+ShYIvZWCL2Vnq/e1/cbzt2xWCP0pdyCOaCCMQXsrBFnq9lYIvXdFgi9lZ6s9WerPVnqz1ZtN6z1CzxC91e+he6sAXtogXsu9e2lV+vAx3L2kKr9hjuXtKx+yx2rhSk2fTb9P/xAA0EAAABAMFBAYLAAAAAAAAAAAAAREhAiBwEBIxQZADQICREyIjMmFxQlBRoKGwwNDh8PH/2gAIAQEABj8C+lRXDfMcHr14BEe28QQ65ML1ikHCEHsMyrqkiVzX1Q3HhgMJnqs++uGIgsIQ6sOMN5aVhiEUKevagXTkQ5Wry9em4x3DceSV6WvKbmmus4YPp+Nx6LIweuaWPp2rIlr1xYPInudi8eSlXdrUrskih61pI+vEv37yJRAXTQXihO8Zln/QVza7PCL0eWXkO/DFs0zY8vDz5gr0cHefq5cv32jtI4I2yLNvz8B//8QAJRAAAwEBAQEBAAICAwEBAQAAAAERECExIEEwcFFhQGBxUIGR/9oACAEBAAE/If6NPL9yjdwT/wDobYwytJ3EGIWCH7k9X9asYc/dRAp/825N4NcJcEkNBj/CMHStI6nUov61bVDxCGG/+W8H8KlKcDo6IdGiF0YTo+S/rR/DdQ//AMs8HpPsTQ0eLHQxzgypHjp+jZNz+tHp+fEFz/5VXFpoKsSZYeiQynWCgcG/xhQzuPf62KjZRahZN/8AGbhTbsdC4US0Wj08XQbo3P6zbGxtkhcLiKNg3P8A4jczo4WfR4Jj8H/gdeU7rzDsSo7HL+tEOB9+BMomIumv/hNzK0eOwzb6dHA2xBKFY5y8my6lFjHF5/WLKNnRBD0UQiixMichYn/ObmDZxoqhULhTiIZeHpMp7rzH6Mef6xbGxsqGyo4ZCCWUoi0sEU9hCf8AIbmDD17tiCHY9LgbbE4IMXWxo8GH6Pz+sWX56od/Z6jEU5F8DfiE+J/M3NVMe1HlcGa1pDDXxcQZaE7/AFkGPj0I4CKCwnPpr5uEViijBJJJJBIkIKX+Buan7jeTtgkLiEdFEZ0bHUMRing2NiUSM8/1gzwM/SguMhP5nlKJ4obFZRRWUWJv4D6DzOhj0MsQ4JWJwlPMH04GyGNpDY4KMag1EPcYnBunj+shoqSW/mQg1jz9/iSxfw0pcuielGLi4toLBvGyBY2W56RoqQTGJTgfo/n9Yj1hkIJZRso8vwZdS1L7fxMQhjzC1M2j4NnA7C1iniG6WDyuxNEM83WCsQYo2JdPf9Y0EiYtea0THlx4uLG/m4hlJcmIeYbOsiCDfMJjZycBJ05CUH08HGzth4sdiYuspghwMYTPZ4/rBIhCa2e68P4efuIuUQpRbYPokMSGiD4TJR+C0XGJiTaEfCY7HRLEJ8bPWEhsYTExBcygxrh08k6Jz+rUiCRIXEhjIJ48fhRjxvu0ot/T81Y8Qmt8N5wOMC4POVRsXdhLFjHg6HpBIS6cHfwN/AeP6rggkT7hSfD8xlxS4hYUQxLT0bExC6xsWPzEydTnB4QUkJCw1lSSGMmNlKLeid4JBCQg0VknTz/VSQkQXxMYj8Hj+GfoxlIIbzwoqGIeM9PGXLqDeQZ6JEwwyjnJMWIJix0KjlDJFRQYwiRTo4WSiw8QTop5/qiCQvsRNfmP0a4QeMXowx+ifBMYg1hRFP04R19KTD6hYf4MIPEs8+N34MpYeBKsXNNYWFxoXwj2sQKMSpISyTglxiQ0dsQXn9SwgkJCEKXaTYQYhrG5l6PpYP0bFiVJMoQ2XohKlhf0tYwtZ6LhBJhNDYg1SQUGUR/gLBo5F0sELi0hDn4NF0J8DGdYfgvSSLMSg38IL/UU0RQhCZcYtXxCDUHiUkGxh9xnWUFwYsLzH7lVnno/yLg1E2f7j/1jQkMiDyn5iFh5WBfFbmGT0vxDrF0LguId4QaEGhC1kF/UEEFuhCEIQZ5hahIgifIhnoaHidyW0QbrPMYX6FnbEglkULzP6ZB9Y1BIYhc62506yW/ognPw90iwVuQwWIteG4en6dBOf0+hP4B7sHlEJCW/pcY0N9GMemiOmJ8vAkPRvw/clyosbnTrzOsaYjYoIhkPC7wSIPJ2IISEGhSlUxiC4cHOK2CRxjUrp3/UCloLhR/VylOGeiQltKIeMQo/Cj9KWi69TQ3ROFDfDkTMdbPMFI1ThH+x0TgqU9I8gkPgmXSRKJDKSFvDpixCWRhkLtGs7Cxf08lgjJlGxL4aJjP0oJBLSdeT4Yz9GMfcSEL0fmqmQaFaIlhQ6z/wh/oiR6eDR+C4WjcVXpxl9Ez0aFwSoxFyA1MQOPBwhhbiRVnA7iSOCy9xHTPH9OoTBfE+bjR5iEhDeL3PwusYbG9nnIIvBIa4IeHpIidGskPwP0H0MN8Gp4NYmR3ImSiDeWkEPD0kDuDsU5xol1UjgosUokJbH6eP6dSFFjep/DGyjFuJlPRdvwbGKPwYZ0LC1D8EEg+nglJPk2w44JiYRnCHpaU9E5nhXiwTuEPouFLlcsuHPohBC9EOWJH6NGFKLXp/gE6dctz+nEIJ8X6eoLVG8mJ/Jhhv4IMTE6HwTokImQg0cFKhxj/0NhQ0Y2pwbhyf5SBcYsEy/CPTwSz/ABwdjgfB9ZOWCQnRas1i0HyQ18YHs8i/ppISE/gTWNYS4az8HGE8WtlGG1josY/BCdp08kJZMvNaGiFg63BsVDplRwSGEI9GMSpCDPCjVEscY0INbhAmJcEiYawa4h/ogKMfowv6aQguCZRlKLol8MXEiJP/AGQenggbF6Io8MbGMo8OLk9G5gQhCDENjDJh8E6QsbYyskg4J5R0TL0uNMQ8x0SGTDgaH0QSEIoniypExoU6eV/TKEEEvmCQhoo6Pno1Qp6fmH/sKf0afpzB2OiB29bKMM/RrgyH6PBITokJn5v58GzoxoeTgiHYpJOiRtfggmmidIO4bEyaiYYZY6EF83h4xqhI1EOAwwv6YQghNmIQpcbGy7WR5X/kfZIlKz8InBBOHhSjDYx+4gkSD04Yu6JxZ+ZNSY3sGhvcbZwMyJdEGsLDODZ6IUQ/iohCpIaxixxjS7+o4wv6XQsLYQgkMsQeGTBjdXGXyUVupcwsaenf0ssfKGyjY2MlJHjWfp+jQuLwR4X4INnuvBsTKJTqGCxA6ihFIU6GzKxEKN8JEIMQgNDKJkDjDbF4MJ3DCYv6WQnwWFqgg0Pg8EE1lPGqjX0QRP8Awf5fhDfBdYP8OBMPyYx4xISykGxI9bTuLwQ2XLhMSpEj0Y10a+GkMpDrE2mWkQgk2sohMY6PCNk2lGhi0YaIhomhIOBYuMMJ/wBLLCyCCQlsGhBjlEE9CG3sHPTfKMpwcrqOIdIgqNSsPMtlOEEeOlGJEEh+iYgvcSD48T4JjFjwR0uFZR42ylF1EeNH+hH+koStDf5GQhBI4Qn+TkXRc+JjGhiD00xiQ6IoOBxhhhf0otExYT5bHjuo8x05CxaZJfp+gS1OoCOjUQSA2Vi6JdwjBidGLV4Xp+ZeJ42Tp+lgZaoRRTjokE1h9Ghh4hGKEKjorkYmY6hJsSkSEWFF8MaGEHwdH4TY873m+Iv6UWEEQQXyxsZyPoi2h7KHhuOpHsbE+ChJckSkBCFxseEsfMYnl4IbLweFgg/TzJnrrzOH7hL9FYz/AAuC5xjHpQ4yiPRODdEUbE8ML5Y0NYQWoZR8Eyj5fBhhP+lFhBISEifFGx5AI4DeREKgNBj9x+45kR6IgliY3jHuJcEeHSLkxSjP8C/hA/YGHGU3WMH+0U/RV6fqZ+9EIOQhCdxh9EJlEqSHREF8MjEoILAnrGNYeEBAsE/6cZEExPC+mL3PJ+Q6zHR9AmpzEEJ0rwPhtEpcIIR4e5P4Ax5RlL0jwbEJ0Qz6PPTxiXQeTqfmeM/OQ+nmYSBwMFWIcOhqCeQRTnwqKNkxI/deNDQoxxHc507wsML+klhCYJfRsbP3Hgg2xL0Iox51CvGNiIIU8KtNBcUhIpkiGLPEM/RIkQtbGylGG4OD/I8RNe5Nv5FTUJcTEhydSHfqDEg0GNUySNkNETXCjooxsTEH0jPCMWoxJkGLaI7sGMSijVxYggsE8LC/pJaIIQS+GMeuOZHwp6JQenwtI+CgICYqGIfySwuH7hjfRso3Tn0cRxn4OMPD0i0cEl4Ge3R93kXvghvBdFXpPomMsj2hquCfenjVkInvzTR0rKIo98zuNiQ8OB9FFlsK/wBKxfFQltx4YkYbo/Cwws4Ie4M/RKeYsGz9xYkQh4TGeDlH7jwcPXoa5cyKTgkWByKW3CumNxnWJETJvFwgk+5MmiCROikLlpENf4LsxNhBlLk19FHwS6iWELDf0mQTKfTw5O64KxRjYJf0UgllHkITC5ihwo3jTJljtMfA0TzQ+40gi8VNsGi5H6NwJeaQsiiLhQcZRNDeV5RMaOIuOipwbKU9+Dxr5RISEEvhT+kVogovm/T06dEJjgqPWt6kRkJi6TODmR64K/DwPofHR/v4SY+jF8G4JJMhr8TNOoSHRDT4FqYqcQh+CmEJqyEWeIZKIPFiWLOnBjYsY0IQSFwVOiHA4v6RWqibflNpnokQQS1surJthRsrpSlKUT/A02DS1i2+DZEMXuWLolcZyyWp1P8AGIDcQXMWmyQfoQpERMJDWiRHhXGhY0QhBiHndh4j9PB9EIJE1ap/0isKKL+BsXRMWJlGeiEFtExkGsTGikHSQ3LeHBQgzxjQk1l4QbJGXSwUkKUH4fm9K1n+OJSEswZNcDzmO/UIGserG8h4PETKJi/pMWehf4HpCMgkLLfxOEybCb0usZEG4NW48kgcaF0eCKOjH0+63Pp/BoxlOz8A2j9QvJCHUKfDmrIJHCDRMMyEGiE1DaHpwQaSGya8QXC6SEPhf0esJTkX8PA/1g/DrzfBj+KfhNpS5C/VB/7GkMaEJR89FN4QeHGpFf4EBOSE+wU/Dxym/wAT/SIOo8VHRxfCLih3GjqxKQYQhB6nw0PTgg1jRNEiZRYcX9HrCiCcL9wg56ONECUfBjZRvFvBbi0gil1MZTjGvwP/AGNFUQysH3Lof5IOIY7Bfgoy/wAUb5C/yIvGP/CkW4khwhBCWM6dOia2dz0hCE2UkG8XGUb+YLVf0etF4QXyuLH0aaesMNn7iR+jFY+ixF2fD8+LVHgS1alQlhBA/E4z/wDQe+kKcloliZ+6iEHt14u3X8tnvBjRBvXi1X9HrCHkmH46/h4yI/UEv0/ExqUeUsSweD5FQn3VDpHkQ0QeMYThaP3CuLzGJtPCfT/Q5I7o4/8ADpwiXpRjxNghK6bZd4Mbg3Riy53X8+DZBoeMLYJCWV/R6+ZT9URcZbvMYSQc8Z6jG2/0t4OopUj/AGCX6xf7H7iy4J0UTEJC4QSSZXSM6MtI8Ml0fEKHgWMlofQ/BudHTpD08HWKyUXMekEQ8EKUmPLkmzoUEwkspfqMQfDpCYl0hCfBv6QLhfH+Mhx56JdE494nwbv3pHQinsr9QpdGy/8AB8DHVl17wYFsoLg2GZR16eYakpwXJlKOMgmQgxfw4IJcERIf+j0gtIQS1fbQ0VqYndXxS5NbPdb/AIE8r+kFRbS4dCUEsZR0Y/8AMXRsqU16f+hIF0Il2T9IE0iCl0YuNji9yIISxKsQ9HgYfT/D4aP0hCQoxrvD0RKuEaHgtUYsWcxfbGhCHgmUWDZcmTae/DJtLqWE/wCjzYXYTJn7hXoaHGVosbCbNI/yhvhUT6D/ANC/zwxehS9YnwNV8dEsMNQhC7M/SkJzHU8HUx1jfCCRBrHhM4KEXz7joqQdkohkEEEJiCxsnw2QhPiCSODh0YYX9GLCGceDgX+QledEsaMz9jRTU9Q4vhRFQuloTnWDjwYl6UJmPVs+DRBoZDwo2IXpBU/SEwwxHhJ8CaMTELEtX1KSfVxvaPZrePUQhRPC/oxbNIbo0Za8E3+iKMdSLLHj9Gq+jFIlo7gwvBlpXiLq6QRDpRjZRlH3PRI9CKj8F7qEWI+UFkIeCZcUpWV/by7Bk+H9QfC4kIZcWU/6MRQj5kzkIJY1WWCDmBobYhj18N8/zTwdwIgRBDxHIIZaWHGQgnMNMcP/AA/RZe5+I58PBqjR3GcFpD0k1CC+L8PITLj3mUbLlGNDRBZR4hMYX9FIUWJJGmTBR4c7dJD06uFk/SfWesf2fmeyEhLY3VRkME/8nMp4dMhcgyjuIjExSiIQ46J0s9KUSo0OnSDwmKi09PClKdyj1hOjEynNuPYNHENlxspcUWQUOYX9FIQXTLlLltM5C24L2GdqKfBMEPHo09TEzpBA6fMJaFT5RjOio6eZuvokIdyIga/wX8Z54WngsuSkaFP0iJCCYgQ0R/IkMuefFmOiG8mm2N62UbExCWUohYQX9EoTCOaRDQY6SHqGtUIfpwBga5R5aOxiPNv+Dub6c1nXwTC9pSkMk8PD0Yk+U2e7/wCCbOkL8MhCHc5jjGPBr6Iyi34KQhcWkJ8uFK+KUYrZ0bG8ZCCRdYtR/RZSUINvPBMQp0f45lhWMZeiExDr3I4cix8DsURkPghCmeY2JilUKNjQhIa1IfB5ih2G4I5nCDpBP/I1/jXp4e4ybSEJlG/h/Fx5EcQ2UbKUTET6QhP+ilC/5EJzGv0S/PgDGJFZK1irIND4xeY0PExDON49OlSBTdJv9FiQmkUi4kJ2OF0S9Cb4lhJDxSnaWo8EG0Uome5Cwo4eHolkITJtKX4aIPGVlKX4Y/hQTKQdasTQwn/RaNEh04MmnjpsUh2xgEDsIbtlH4ex8QZBrZwpcHqMTdIdtYaCpjRTi3OlfBWhzFBJzuOMJCRI0ScEIyMX4ZV+Y8PwXRorEKIYYjGhI6LfD1639Va0oylK9hBwbVrrEYliKUVyv6KTBF+n+pQg1HA+ztFGMkHHfCbiKHYdGw1H5lJSEGML8Yzr8PWJploT+iQMbHiE6z/gxwJXEHHg+nh+iFiHvRBOFpejb/BMYllKNjZUir8KUWHRYUZPmjYiY2XJ8UbFMjGsh5pR34UWF/RCxf4NfpIUp/gGm/RqNw6H6iEhsdIrguGhOi4Ex6dRGy4hI8UTNheyRz4Fx9L8TPNEJ0QlwpCVJD9E9N4bGXh6xY/BZejdJtaE+lo+CfRq+C4JkHQlNo+iiLt+L8XHNjJkxtDYxWdEz0SILhVlPRNL+iELRCRcfCNkSQ2MOxEKsH/kdYciPRYyngp+EEaEvpOxCeBNML9DkgpunEn5HBIPeHGEHhMdDKNl6SnghPLj39LCXp1C6hjqFa7hOaTRUNUhwlJMmXWy/Fx0mEhiyDGt58FsxYnpC/olcQxKj4Os/Ac1m9MuiGl0xJsOOvTiQlYuHHA6QglHRgoF/CnzKgMvvC4hqF2Y64Z6hS6hn6UJ0OkPspOixPFjYunjPSEp3jEhrp/6NSsTKVER1Y/wnX6f6F/ztIIYxZcm9+GIbGyjO5St4TRUcGF0udEmITF/RTpaOC0/wHfp/qJw4KCC6W3Fg+vpAOaE7mgoQG6MOkcT8Im8HBPMScGvDDsrQRbw4jqYkg1OE78wXgmXEM/D/IJUNGUpflwYjbOvbBYJ42XWy/EJvSHBvGPGRkD4Ji7npMQkJFKJjf0QbPp4j/06yA41iwkXpZxHBvwSoqj7GUEOhM+gg8CiHItkqPFkvRJHFsjGlyQWD8gv9kGqdcXJOnjLjLRplylx6mMT5k3/AEKxHCjzrLTPCl+IJfUIPBh9HwuKN48qJMWEg2J/JLCF/Qyw4wl+jEgzkfduXBoN6JR+UZWmfseM50RBzJASvBtgxMVtnIwSCNYcXGJR8PV0/wAB7muVP0Tsfeno+FpdT/MQxvCfxRDxRrrRWUVILmjYy5BCCRNIirWNDZ6MhCYxCac2SFClxMX9EFl8281uelBwssNpcNhXoig/9j2SQfdR4GNfoinaH1w6hEF0RJUf4JWOXH5qYtho8iZyHcmeqo9H7B8Z4E4enBUUXIj0T5ekxD4xiZzXojgxjfwkQRS7RjrIWFwxchMbx3ExijQZCxYsWF/Q6ygvBNfwhJg0OzgIK3CpYGg8ZcKRVE+x/aH9H+E4w9RCUPGIQ4RTHkaYl0Xmp20P8j/ZeDykPo0CuIJjRdLDfBMsO0fmKyCU27CfdZcnxBhYNIbK8YuF1Uo9EvhMTKIQmL+hlr0eFII9XOtjQkyz/Oeg2NBTGXBFpOlchP8AuR70JudTtjz0h50VDfRuZGcP9n4MfpenpIxrhT08CqxBjV+f3g3npYWiP9RISIQn2iEEhrIQeMhBwmNaMaxI4IIIiCxdQsTExf0MsP8ABhODUx68Q/AI0R3omJXS8dEuD7waOENujUPEf53yY3BdwhwdLnEBUhf0XGKdynsWIh6jjOJ6PfD3PCU8FhNePGUhMWLh6QcHhogh0ZSsW4Gp4JiRiSRdd1BBLEIIL+hkOPvgT9F7icynggOg4fWJVD/yP9jJogiEensfA5KIxjE0LfTFXoncFMQ1RcIFkHBHA9ouVzr/ADnRQqTGMkUQ1wQhMusXD0aK0Luq0Wk2lGxExFh1i4U/S/CFHiQxjndLg8xR6QpSiKUohDF/osdH5kHtE4KgjX4UzqcOSqo6kR43RCG6MTyfp2j/AOxf7GNxkMpdE/or9C/1keh+xjUL4G+Dao6H7kbUwtXosPwbvxRPG8bosTezXkOscCxELBveHPqQcDL2onhsbyluJEyidEhFExMX9DmGLz6bQ23hrhRkcpSjs5UQ2NcFP0a7wnNDw/xFnnBpv8EmvS/7GD+vh1rmnnT/ANDt9CP/AMH+IwpjdOjlxj9kin4IkvBDEglBroteXUiCRNupi+pjxvINEINZRuJSDWuMqkbJsEhoWouUWE/6Ja+WMbnhTxC8iiTL/kKMULXVkgyJynpweS3RILeHTe1wyasR7ghwcoF+Xo2cVSiUliZeB56KD14JoJ36MRBIny8YnpqCLl1led+ObCjg3npEOECSxS6srZMSIeYTEEL+hzjCFtGzoah6JCVnAlWa5rik6chc4a9JQ1dFdhakfgPzFvpwMynoIgkQUG2oZ0z8wmoLgYh+ED9BgeETQoZ+E+GsQnrLi/BFk1MqHhTmUpZ8KhsfcyabZ0nSFKKTSwbYmL6IN/QyH2RS5NsfMhyL8PIcDpEJQSkJodqEiXRWkdcysVDgr4FvAqR1EEHfBGEioVthwsSE4W/aE1DGiamXG2Jyl+ifHuPg3lEUYbIIYkGkTaURfgWrEhKDC/oVDj4RfmjeF4MTGwqF0Ij/AETh0KxbqH4XKi/AmCdg0h28IDl0YI0WIIHovcUOReDEfh4J1D+btLhP4uX5m0pSlPRvDrPSFGHR0oTZS5TvxREXwKXaJ0cv9Dnwnsx48Z6QaOVHPAvY8YJpIdBQeMRNYfAlOHqnCOHCphxn+hTCkQ9jQlFVkEP+FPEQSxeExcyjF8UnxNYfC60MSCIh6zuLjXwJ4kJCXwhhv6GQ4+F8sevEP/J6NY3QnQyiQNNBL0x3zBMSELMT8HI5dF0SDXRo8CNCIQSp7EEifVL8L6TJTzF+z27Ph7Sob4mMaIQZ3DHoxBIgltKvhX9DMONj816xdZ+j3iFBBoU44rMvwL9loztE+CCViVQkHB4p0R+AgkQgvi/w3UQQ8H1EIQWGi7CEyiFG8N5BjWMI0JjrENDxtTxOYWFLkEEhR/Q4w4+KX6JHh7B+a0NDseBhcZeTpn6J0YXghqnjVwQhBFGXKUuykIQmPKJ4mXHuITylGl9IQg2XFj4Nj0aazKxFsbOiD+SX2RRYX9CoccYvzRvPB5xdaIQgxD6NC9HkGiQghMZSlKUuXXtE8X4hMTEP7JlKN4Nl+Aw2ekGoUWHSdPw7lLSDZR9LMt0gkTF8riYhL+kQMmdC8HiWNE16z9J8cMXH6fnzfmlKUYvmlEyJjCLqyXEETHGPYND1RExnMcx6Qg0NYaJ8QSyE3wosWKJf0Ocf6ev0/CE1EGvl+C+W+CYpd/MRSlKIPpCE+E/lLUxBCouIn0a24xr5mxi35eYeV+BFEy7BYxiExCC4J/0Mt18P4/fqiePJjEy9KUbeJDovifMGmhCieQg8T+S4NHmwgiHUX5Cno1iFKW61iDQaLlPcsQPDFy7YJ4n8eiQsTExP+iion9z4erLrEEshCDCL308yl+kyiFx0SYhCeI9IQaIeFLjKcxPgiU8GenUXPBsbx6QeUOIZYbCGiEIQRHhKYhcKPouCeIW00X+iExF/nY3zTPz6g/CfMP0fzzJqyXFC4IXxWi0sLdm9O4meFQxPXkGj/wBiUHjXwxvSlyE2CxSlPRKFFpBVif0IsKJjEyl/kees8+F78NlExDWMbnwNfc+TCHY4E9RE0cYeH8E2FGsRV8NlY7lHhI5G8axMomJlEJl+ExM9wgsWE/6EQuzH9sWP4WMLh7/B4Fifw0eCefmPzFkovhrS80WUWFyhMeXLZRP4TUJnBjOiQozTEh49WruJYmLH0QgtQgn9DFFFj/4D9/hYyah60eM9xFjH08FjLl6ThBI8EdDgg0dQhwI1Ma1rYJbcW54dEx4nMSiMIiGhsWQQgliKzokTJRfJBCf9EjQ/5H8eBL7YsfmP0Xyxi308+LlysomJlExb8EMNTH5jKdE2jwbEULSj6TIQejZR9IQiIshBBBYaENiR6TEt8PRf6KT/AI38l4M/P4UJ9tYvhiyZeiOMmrIeYb2jLmlYvg0NEwjA3TzcxsbLjr56UWIxCY3osmISynogn9EJDxr7v3+/xIfuPw/dYnlH4L34/fh8zxhYfBCw6xnuKCkH/oYfBBEyZUNjZMgxnXi1oZR51iHmITRMYzwmESEQSJ8IQv6FQ+Vr+6X6/f5mLGLHj6ycF8UuQTjF4JzHpIQ8Ez3HrKNjCYmw2IeEljrEIMPYOZVhvHqQkJCxBoRBGQoifE0S/oRbrX/DfhiP3+Fi81ix4suJ0a+HixoThzKNlF3PBBsTxvF07wg0j/8ACXMxITxsQw3RnS4dyb4NlGEILXqx9FhZS4Qi/wBCLdf8960QR+nB09YhrJqGiieMULClovPoRk2lw2J5fhjolJBlukIxCY2eiCweFwxWxImNioh4N6ghCX9Crdfxvbjy/d+/3HiP0YvhIeQ/BiZ+Ct1i9LRjFGTp4MmcFIUuIg0OBZ1DKNiRwbPR5PTJqihIUZRViCTWKiJY3jFiUX9DLdfwvITaP+eD9F59F7jFl14hiGxhM/S4/BPJR8I5worQme/AZ9JROI1l/AkEOD0WDgmLSR6JYhoQSIJEGLG6QmMSEsX9DLdf8GiZS/d+LheC17+b+Ys92lGej4JjxeCFjCRwlEJBsYYvBi6jG9XiTEcaSyXMFqhMbKxImzZiYhLH/Qi3X8L+XsyiL8Nie3GPwWUfmvW2lPRSjxinp+4YiC+EqI4xeiNiKEgmMpDQ4KiEw2WFpxldFokXIXIQRq+IPEJif9DLdfzMnzdKUYi/DZ+ZcpRY+Fon0p1l0yjFhPCGhaxBCLwYmUpiOjCE/wBHA2dYYhCjYllg2VIZbxIUSyaz0SOFGKQmQ8x6hKiUL/Qq/wCDnjx6y4pS5RMuU9b+4nwo2vAmP0Y4P0vBI/RkJ3DUZRMWmHTuOEINCH8Ohsly+DD0bstib5BClPSF2k33KUb3wTEMIP8AoRf8bPGXLwuPAn0pR4UUbKUTKNjDgWIb/MgxP4guaiL/AMRMsIdPEwsb4J0bwz1iXCHmHX4VhuLDJAt0vxcuT48GxPFlGxYbH/Qi3X/Ag0QYxoa2fc+BYmNk4Lg+4eJDF4I6YkSEojwKhwJCKNHooGxa2MXD0Vn+UbSOhDdIQtohM9EtZNHGzMIQmz4H8MNj/oRbJfx3+BohBoa1IhPijKLUtYlwgln6JE1LSs/MNwXR50lCrEuFGy6kcKQS+Gyj6QjEEso3fqaTZsJjLsILF/oYv8lBrZ83GQa+LC5GRkGhL5OhiWLYIXRhdYTo+HP8YuHNg0HaIQbGfggn+BHTrd2kHWI8SJ8hMeTaXWXaekLrxYX9DEFF/wABjZfi40QmIQuJEuHiXPnyrrwTE+5+FCNnhR54exB/sX+gsbLj/QSe5cjGiEIRI9EksQmLKUuTGyl+VjFzwbv0hC/oRZQQXy9v2yj7/AYxMfdvy0ImzwiEhJlMpCQikXybLRhsyuijxqsWFIebCDKJjQlMTKUpSP7mL4mw4U9INEKUbExhP+hELhPl/E+583aQgw1sGeBG0pd/8EcIhuUTDQfSDxF0wwhBCX0bdFWLwQdBcCGsXNNCEyEIQmpCGy/EEhohNozp0SJtHk0v6EWiEsmTH9P4Y8pS/XuGiEIPCH6IYXGf7PdWEVqcIMQzwo1WJQcMWCHelogkhFzw9Fk+Ke68Qg/pHhUNjybQhJjyEIPZv6GFF/M19ND+Lkfw8fzBh4XpKNfMhMeeCdHWYdpGI6JFh0xwT/AvCjKKFKliet5MuLFr2CKXLk+mMpR4MUf9HQUv0yl+2hiaUuwaGM7cMIeCE8a6KSuRopLchDiGh2JH4e50NOko4H1i0Nh1P3FF34XFrEiCg2UbLlFl2CWUpRvD6NP/ACRkIQf9HyP+Ga9eUu37aIJI/d9RIXRISJRohY0VpCtLBMbp3jzEjg/8Cnh6SFqIyZjMpFENMekEhcG9h4Up6TUT5qKX4fyxY3j2v6DWFFF/wmspNaeLZlIe4jxKLjOMg8PcSYS4gh6GoIIJggx6QsLRLUMT6VZKNTvKCEI4xfiaRY0QmtzFyE+ev4DHpv6DS0l/4b2EHj9F8spP3YdQk8mKD0lCkIcFo/C/5HI3YhM4PTwo8cHpRHiokMaEeCwdeConqQ0dFrZSlLi7UUu0geVKUbKUbH/QskIKL/KpcuP4hYejLYeKJlx4n80gnwUaGOrKJlQx3LR0bxJDExlmtGHYuCGJEQ2LH3GEiwq1BHB4UdIxamkQhCa2UpSNlC+Wyj2v6AgkIIIJ934vzMZPiIfMY8YniZ6NCWXLlIOGIpEKIuJEHgxKTpIj0QhOY5YvBJasbK8WIeEUOwwVExFZXjIJHBTLkIQnxFvI0QmPWhoeP/QBIQQQQSF/Df4YQfzSlHiGhBo78QQmOhYUP8BqIWE6XNpc4TOIbE9q+igYXWqNwlkYWQWEdH+ybCMhCfL2lKX+Bsv9A0EhBYEEEif8GfEGsetFHSMSYk8qLilH0JjBeCVxlpMTg8JiG4JnZ1nghsbmGMnBGA0QaIIaeUdY3eUwoFhC2In1CfMxBo58XHjF/wB/oJCCyooJCX/CuPGXJkxnGhrowSmsQawSZEQTEG58IWCLHs9PBKyzgiCDaWqQhfFSGbdcw0QSEQIGiCxfFxfuaxjZSlyDH8Xaf96SEFgQQSEhCE2fL+aX4v1XlGyjDJ7coyjaQ0LUXmLGeR0xBIbHsRWi1CwooU9Fngx1jbKxCdFl+EOa5kyi2D2lxS6JlGQaGiHhWNl1/wDfKCQsCCExISITITHs+L/HCM4cGMaxwLINEIMNKEFkH7gh+H7kGGixjpZoz14jE2Xg+jaiVcLSCXBe4ulmX5c5pfml0xndTLlxSlyjKNDKMpR/96khBYUEJkEL5QybS/x0uKXb8ELL80vxWVwp3KJ807IRMb/BGFh5yqEIzkduDGWsEyw9aGxFKJShLUImITGUq+KX4uUo2Udw0P4WV/3ZIWlQSF/A/wCBj/kcKUd+KNiylLj0aZOYaEfokfmq5Cnp4cg0Pgui6LCBnBKxIIPwdkEcyMTH1DJSYWUbHknRPLilLvCEIQhBrITKP5Bsby49YX/dUtFBInxBC/4T2lLsWQmMeJZMgl9JFQ2Ub5lhaf7DgoLc6eunHh4LpyNwtHAukJkCQw0ITJnRH6PexhFhRMh0TxiZS/byl3AxlxjeMTuF/wBzSFpUITIQWT/iX+NjxLW+/FKI4MbKURGVDpBcKIUH8Ev8lSGWzZAXT0PmKIQxLmQYhiZaLJkpDhEyTEP+Hu0uuho6NjD+Jq/7pQS1Uvlav4X/AAP5mT+B/T+aFxC6Mg8S/chxFxOnD928LjO2LkQYbKJCR4NhdEoNnvySYmXYNDjNynfiE+KUpZisZR7NY8X/AHMS+DUvpZCE+3/C/u/wPF8Tv2nBsfVwZ+nMcLMosPBvaXmU9Ehs9CCQn8BT0hcPpBISxEGI/Ro/McavmPDGOlaOjpWiiCdbKMb/AO6CCXwal9ogkT5Sx4/p/wAiyfDKNlEQae/pwp3Oi6QbkwvCwai4kNBJtjz0XBmgk6JxDssIYtiZxn8E9PV0YtRSDx6QfwvwHjYzmNEGU6O5Bj/7kIJC0iC+4IS+b8P/AIcPNvy/fmIeJZCEPMdHTosbgnRLOjwQZ+Y02eCiLSCY9jfBDKYniO/VXxcVEJlxrL8oHMhGeDQ4PLrKQaF7hf8AbEhYUEUifK1CQtmpCyE/4VmVF+W9WMrLi1DG+Y2zowfD3EghiJ0/BP8AJxsxILogmINzCGKsRTmQqIL54XFKUYpzKVHBre4abEhSjfw/oQv+1JC2qEJ8PFiEhfa2jf1df3SlKUq+KM/BIWMiGuiHEXVyDEmLgwg2dF8JDY/RImEhofB9IMZBHWSej/o9losTJt+JiDYrOfL09g6Po18UpTpSE2X/AGlLRRS+r/MS1ony/wCOfwvV8UWPIJi9yCQyYkcKkWiXMT6PDp7cgLpIUa+BLLpo2rEx4hfiIeQ827MlHoyje34T+Fwv+0JbaCX8aQv4Fr/4b2Fnw0PHGUQhwhEcHhvhenT/AHGyqYyxC6NOigbUYUixlH1iWJdJwghB8H3CyRibRco8E8mrajgxo7kGX4eMIPaMmLLi0X/aF0Evi/axEJ8PF/xWyjeU6yl+ywunEXo2shBuYwmJcP0eenmN4kJEhdZD9yiGJYxq4mINiE8iIefNxVilHlHlFlxs6GkPaX6Qwwv+zoUQX8F+EJCXw8bxbf56X4m37m8KdZ+YmdxrolzDwrZGeDCZSjYk2eC33P3Gi0SGUT1DWIdDARTTI8KXJj+ITJrD1ZBoaGhpoo/4KJ6L/s6CZW3+BCF8seIuT+Fv+O48ayD/AIVrxEJEU9F8F5ioaPC/I33X0SHjFiJ8WDo5T/QuJ/wUu34lGJ8UaxjD5/FSEIX/AGVYX+QhC+mP7g/m/Dy487kyM8GL6nx+l1IcP34pTp0hD8xI4ejwtPELuIMWe48TXbqDESExI5nTuUdKzuUpdQh0uwhM4MY0ITLtLlCF/wBmWVFr+KPViF8Uo3t2jf1PqE+GdOl2/TYsoj9PzKdIfmwSEiIhCsb068DFwgo+sMQ+BC4N4whSjxDzC/xDWQh4URwgeXRUuGGii5BomwSEwhC/7KvjpfilxCEJCXyxjF8XH8sv802fKes7RH6eBC9GYrhDCEvhIY6OiNkZxHpOH6fo2evEyjFlKW4n8MMeCFsI/n34EIdEy4x4i4xEPXMg1iwmJiF/2VbrKX6QhCfb+qX4mv8Agn8Dy/Exs6Io3ieQZ+4bFqZYM0Ty/wCMoeC6caTOs89Lc8HpMo3iZR9xCFjSl+EIpcbDCM6JlLjXw1RIMeofNQhIQhf9lWHF8X4QhISF9MbKLYQ58XX/ACMeQeQjJieMQpUMpUJ7zVisTLBldOERRwun6LPNC+OhIlQilKOYilKijHghTEcOFKUvzBiIZMu0Y/8AZQcejWUuoQmIQv8Asyxp/gIQQvl42Qu0hRPt6/mfVyF2ZRBh9EsZ4IJloxkEQmQov9j/AMBJ5z5JIevzEqIZSopRQh3UXIGglNRw58UpSsrI2RkIQhMh4OMpFvozgx4XEEhISxf8CV+C9Iw+zPXTj6nyl/jx86km0qDSG36cad//ANXJ4/bxLs/wZ14/P9G//jkJun2/a/68T95386kaGv3Lg/8A+C/X/wDlfqn/2gAMAwEAAgADAAAAEAwwwwwwwwwwwwwwwwwww1/fSQUfbQdPAEtqgvqgvqkPQVfQfSUfAPglrk/wdaVbQPivilhBpnmyUbQdSUvgtrgviUfSVfSUftv+EZAWDLQAPPPPPPPPPPPPPPPPPPAwwwwwwwwwwwwwwwwwwww//wCkEHX0kDygJb4pb4JL4DSgHWlW0HWha4L4pelH0HUhapK4L02dOjOX0lH0DYoL4pa8HW0HWkGJKxFPTfN9aoBDzzzzzzzzzzzzzzzzwMMMMMMMMMMMMMMMMMMMMNP/ANJBR9tA08AS+qC+qC2qQ8JR9B9JRsC+KSuT/BVpVsA+K2q/LDepGCZ9B1oS+CWuC+JB9pR5L9NO1eaL86VrAA08888888888888888DDDDDDDDDDDDDDDDDDDDDD39tBB19JQ8oAW+KW+CS8I0tB1pRtB0oSuC2K3pR9B1IUuSoZmbp2ANCehB9A2qC+KWvBV9FzozBOZJvKv2FrCAQ8888888888888888DDDDDDDDDDDDDDDDDDDDDDX/APSQUfbQFPAAvrgvrglqEPSUfQdaUPAtikrg/wAlWlW0D4K/tcC8uBoMa97I574J64L4kGkuxKGVzwVELcAaBQADTzzzzzzzzzzzzzzwMMMMMMMMMMMMMMMMMMMMMMNf80EHX0kDygBL4pL4JL4hS0HWlH0HWhK4LYpe1H0nUha7KxKJML67veVNAJmoZ/7i0HVdYqVUy12m0R9kgp6oBDzzzzzzzzzzzzzzwMMMMMMMMMMMMMMMMMMMMMMNP/0kEH20FTwgL64LaoLapDwlH0nWlHwjYpK4P8nWlG0LxNcS8Nm1yEMZYRAkzAso/h+zvtMWxGdFYLryGM164ADTzzzzzzzzzzzzzwMMMMMMMMMMMMMMMMMMMMMMMNf+0EHX0kDywBL4pL4JL4hS0FWlH0HShL4LYtelH0nUgFzg9RuEFlm2xPlbX6suR5w2kyjGsp84UUxLkBVX74oBLzzzzzzzzzzzzzwMMMMMMMMMMMMMMMMMMMMMMMMP30EEHW0FTwgLa4LaoJawDwlH0nWlHwDapL4L8lW1HNEXSETWgFflWv1a7OdfGa5pXra/rM1h9eHrfnVvrr74ADTzzzzzzzzzzzzwMMMMMMMMMMMMMMMMMMMMMMMMPf8AtBB19JA8sAS+qS+CS+IUsB1pB9BUoSuC2qXpBx8kYkpjjsVnbz96qj7jh/hKYwx4EvZ9yTEzy9a0+gsCW+ICQ8888888888888DDDDDDDDDDDDDDDDDDDDDDDDDT39pBR99BQ8AA2uC2uC2uA8pR9B1pB8K2qS+OA8Ea2r44lDFGnLvSacHzRsEOXP1P5I8Urvpftdnys3UXCS++CA0888888888888DDDDDDDDDDDDDDDDDDDDDDDDDDf8A7QQdfSQPPAAvikvigviFLQVbUfQdLEvilRFWmalSvo2M9HNxbOAW3OBF8V6C3JMiJuscOC5lH0m5gSQgtvqggPPPPPPPPPPPPAwwwwwwwwwwwwwwwwwwwwwwwww0/wD0kEH30FDwALa4La4JawD2kH0lWkHwDTNClHFuNoslJWN79YjtraI1I0/XXSr6GmFqrSUWdBBllA8K6oIL74IDTzzzzzzzzzzwMMMMMMMMMMMMMMMMMMMMMMMMMMNf/wBBBV9pA0sAS+KC+KC+IU9B1tB9JVsnzEvfK/1RE3RLgwUFG0phqVfW78itFJrnYkIqrnykTgwaly++CCW+sAA88888888888DDDDDDDDDDDDDDDDDDDDDDDDDDDD//ACQQffQUPCAtvgtqglrAPKQfSVaQbTFqeipW5Hzco1YXd1pUcsJTx57dcF0zKwWl5vy7LXHK8a2TW/rggvvCANPPPPPPPPPPAwwwwwwwwwwwwwwwwwwwwwwwwwww1/8A0EFX2kDTwAL4oL4oLahD0FW0H02dK2C2lkmgIpJjKrYq+nAl9IKq7NIUBLDij40LVt181JlLR+gTb4oJL64ADzzzzzzzzzwMMMMMMMMMMMMMMMMMMMMMMMMMMMMPf2kEH30FDwgDb4JY4Jb4DWkHUlUbc+mD/hOAZZFaUKvlQteGzqNDHAXFq8vxz4s2P9/tLrhJ9cL3tv64ILbwoBTzzzzzzzzwMMMMMMMMMMMMMMMMMMMMMMMMMMMMPP8A9BBV9pA04AC+qC+KC+oQ9BV9VBH4eCpjO7x2XH5nJWj6xeWH5vNbhMvXDdw0PkTfuLafAOZUYI5m2+CCW+qCA888888888DDDDDDDDDDDDDDDDDDDDDDDDDDDDDD3/pBB99BQ8oC2+KWuCW+A0tB9B6OIkj5mslSj8Wg1It9lV9nSh+2qPJqi3ZEYZE644FNykKG5iN6SC++CC++IAU88888888DDDDDDDDDDDDDDDDDDDDDDDDDDDDDDT/tJBV9pA08AS+qC+KC2oQ8BVGQSECj7uAplsoFnW3PEEYH9jOrcm7DJmV7mAZftIqZaF2D3GSGlCh2+KCS+oCA88888888DDDDDDDDDDDDDDDDDDDDDDDDDDDDDDD/AP6QQdfSEPKAFvglrgkvANLQXOpW5Yk3VY1Iear23la4eUFSm6mmfgqTYrvxB6mJ1TBRy9DdYTijqEvrggvvigFPPPPPPPAwwwwwwwwwwwwwwwwwwwwwwwwwwwwww1//AEkFH20DTwAL64L6oLagDwltnvcGjdXkKQJIh6eb41hA5hEYsduwhX33y5JnavGGNaV8VEfGLkB4Jb4oJb64ADTzzzzzwMMMMMMMMMMMMMMMMMMMMMMMMMMMMMMMPf8AtBB99IQ8oAW+CW+CS8C050StBeMB63WZnJbuKANY3qOWpOq1KsntyIh+PvlWnBkwzU0mpB+bi0KS++CC2+KAU888888DDDDDDDDDDDDDDDDDDDDDDDDDDDDDDDDD/wDSQUfbQdPAAvrgvqglqAOS2XppH12U/dmUiRhdUlyhfok0d2zBb3yL36b1wozw2c0pk6637rJuvgtvigkvrAAPPPPPPAwwwwwwwwwwwwwwwwwwwwwwwwwwwwwwww9/aQQdfSAPKAEvilvikvABvWBuCWUd/ilZevS3Co09/io9RpI6cixXNxxQBg6UORV1YbtdtSuOl/igvvggtvqgEPPPPPAwwwwwwwwwwwwwwwwwwwwwwwwwwwwwwww0/wD0EFH20BTwAD64La4Lariox7+Y/wDuya3HDx+L8AtEP37YTu7aD84nvTD360BueUmZf4Vq1ETbm2uCW+KCS+8AA08888DDDDDDDDDDDDDDDDDDDDDDDDDDDDDDDDDD39tBB19JA8sAS+KW+CSpJ21u8Y9DFoOexB1Hqi/HCwZEPFNdUGbEottueG/asn1AnIGyIbAnBdT+KC2+CC2+oAA8888DDDDDDDDDDDDDDDDDDDDDDDDDDDDDDDDDDT//ACQQfbQFPAAtrgtqgg1IG5u8cA420XrZ5UXX5jWEqz8laaUITiaKIjfzShdbHBo9aGqntwuaIVvglvqggvvAANPPPAwwwwwwwwwwwwwwwwwwwwwwwwwwwwwwwwww1/7QQdfSQPLAEvikvghXUHSrdiZYQKAC7j6eXe4ZEIH7sOpEb6+YdwcforwglPp3EZJgWmxEjiU/qgvrgglvqAEvPPAwwwwwwwwwwwwwwwwwwwwwwwwwwwwwwwwww0//AMEFH20BTwgJa4La5Hu9QYczk6298aI/5/5cVOahfKG/T++NjR0eFHF8HFpyAGdcxGhzqKy/Idb4JL6oIL74ADTzwMMMMMMMMMMMMMMMMMMMMMMMMMMMMMMMMMMMPf8AtBBV9pB8sAS+qS+qFD6rEi1wdvhvC/ED9lf7iNDttJ2LhrtFhzHw24pyYoF+gjaZIluqaIwIK+qC++CCW+oAQ88DDDDDDDDDDDDDDDDDDDDDDDDDDDDDDDDDDDDD/wDyQUfbQEPCAvvgsl9ktXomC990GLMl7/K2CuiiWGvQZDAJmAcM4Qgngtoz5NSr1NAkY9utp+R9vgkvqggtvAAFPAwwwwwwwwwwwwwwwwwwwwwwwwwwwwwwwwwwww1/7QQUfaQNLAkvqhkjmbtO9FuJ9xbMDhtl/L154Vg2nuCJP8+eY6dDjuf94qS3dKtxykX0TIlCwfqgvviglvqggPAwwwwwwwwwwwwwwwwwwwwwwwwwwwwwwwwwwwww9/7QQffQUPCANvlm7EfR6nfXx2RLb6uIeqDbWa4J0vpoc21G3+tpAgZjC6OmJzjWMyRqsSvlrAVvgkvrggvvgAFAwwwwwwwwwwwwwwwwwwwwwwwwwwwwwwwwwwwww1/fQQVfaQNLAEvqo/4WEY5pFEdx7NOrr1wz+UQyFRC6dwCphCcRWxQsTEXGqDJi0SbhQtvdK4wQfqgtvgglvqAEAwwwwwwwwwwwwwwwwwwwwwwwwwwwwwwwwwwwwww//SQQfbQUPCAlqhW2rQE7k2DbQxpgVYrV8Ww0sE/zTJHQVdb/AKXj4uQTAuk9BDQpK9XklptlGMFb4pL64ILb4oAMMMMMMMMMMMMMMMMMMMMMMMMMMMMMMMMMMMMMMNf/ANBBR9pA08ASuYIlM2e74B/nN8hg7m8RO3Y2KbdYBBERsfr8Wff4gCLs7/enuemPzGP+DvH3BB+qC2+KCS+sCDDDDDDDDDDDDDDDDDDDDDDDDDDDDDDDDDDDDDDDD39NBB99BQ8oA26E2t5pmnq/cFyRLRYL8y/8aw1+NWY3wsE7WUdmFvSMbqR+RSxECluZPUHSxtBS+KS+uCC2+IDDDDDDDDDDDDDDDDDDDDDDDDDDDDDDDDDDDDDDDDT/APSQVfaQFPAEiqA7Teehpth1l2dt+G8+ZU+GY/do8XmrUrLJP3Cxz8SSQNXL5Bvr7KgINxWPQQdrgtvggkvrAwwwwwwwwwwwwwwwwwwwwwwwwwwwwwwwwwwwwwwww9/7QQdfSEPKAhfBbXK2l8sryxDiZHKwaHSjUK0Z2KDPJqKNCtbXyJw4DItEnHELUhh7LuSGfbQUfigvrggtvgwwwwwwwwwwwwwwwwwwwwwwwwwwwwwwwwwwwwwwww1//QQUfaQNPAIm7my4iayt8F/50qJ250OxBRSslaJ/oo4HL2LLn5wUzyVMzh/1uAipi7Ljhf8A0kHa4Jb4oJL4MMMMMMMMMMMMMMMMMMMMMMMMMMMMMMMMMMMMMMMMMPf20EHX0kHShYckYwCQZqcaZPZQMsdGvgr6zxQbwUEWgHevqAal9wxACrXQgcsxVctJ85Ydn20FH4oL64ILYMMMMMMMMMMMMMMMMMMMMMMMMMMMMMMMMMMMMMMMMMNf/wBJBF9tBU8A6JEUy97ZRo0I2xNVVNCvLulhfLFvnLdi5Qmye1/c0MGW5sjQLYAd4ZX4IKY19JB2+CW+qCSDDDDDDDDDDDDDDDDDDDDDDDDDDDDDDDDDDDDDDDDDDD3/AKQQVfSQPKNpaC/wER9Bl2y5MIeTpFHNvV07Sf5wtrK8Gra34wJ8TuFGJhurEpD/AJhAs3mH30EL4oL64IIMMMMMMMMMMMMMMMMMMMMMMMMMMMMMMMMMMMMMMMMMMNP/ANJBB9tAU8E54CJAB7x2aY553GSWgD7lpjb5h3/fdgHCJbnWj4hj1f14qF4hi1Rx6J0S6G59JB3uCW+qCDDDDDDDDDDDDDDDDDDDDDDDDDDDDDDDDDDDDDDDDDDDD3/tBB19JA8okzjdht3XSCBni3DH3J9hxzpJ1laGJqQ9vMhsxpOVRdH9NvCTtwvol+3N3B0h1tBT+qC++CDDDDDDDDDDDDDDDDDDDDDDDDDDDDDDDDDDDDDDDDDDDDD/APSQUffQFKINXQBfkKr+QwSWwW5ca0TfaNvlNQMYCBH5nxaTQ9AIsQ5fWd73wz0L8MYqRoUfaQdvgtvqgwwwwwwwwwwwwwwwwwwwwwwwwwwwwwwwwwwwwwwwwwwww/8A+0EHX2kCgbL7JFilcvoAy+l22XuHtlnR5T1jSJL2wsdbIvb25991PSDdQusZp7JOPLWAEFW0ED6oL74MMMMMMMMMMMMMMMMMMMMMMMMMMMMMMMMMMMMMMMMMMMMNP/8AJBB9tAqNupCg3PaN/UGgz0aSqQwBW6M2b6CE4+WaKjimh+o+yhMof33eS+tNHeMCENJpB9JBy+CW+DDDDDDDDDDDDDDDDDDDDDDDDDDDDDDDDDDDDDDDDDDDDDDX/wDQQdfabLVZyzM3xUWbMnlIdtVnhrGAFsOFq28CAyR2qLMyKyitmo/Tlb5WxyA1RZ7TAfQVfQQPqgvgwwwwwwwwwwwwwwwwwwwwwwwwwwwwwwwwwwwwwwwwwwwwww//AEkEH33Dz8OBe5MgdNRb+BxgCZssCuIoDT2qZKalWF1oQsWprnVke1FMyDDOBFxk/pY320H2kFb4JYMMMMMMMMMMMMMMMMMMMMMMMMMMMMMMMMMMMMMMMMMMMMMMNf8A9BBV9U6r09KNmQgExu7GPzZyK9rhwCSwmso428E5HA4OBLdbTV2H+mcmRmZSHcMn/dR9JV9BD+qCDDDDDDDDDDDDDDDDDDDDDDDDDDDDDDDDDDDDDDDDDDDDDDDT/wDyQQdffuSWn7fr71zel6YxnBTua38AbSJhhBSuwaknc/CBlAeH8IWdIYI9defuoGKsQdbQfaQVvigwwwwwwwwwwwwwwwwwwwwwwwwwwwwwwwwwwwwwwwwwwwwwww1/7QQVaYqgqQsFZamLPqX0icE365b51w1ElLqMzph4hxErM7ESesY9j3KjglHoFaPgoSQfQVfQQdqgwwwwwwwwwwwwwwwwwwwwwwwwwwwwwwwwwwwwwwwwwwwwwwww/wD2kEGloCDLHs2Zz04sVhcyxKjTyrVWClL704M3SIsspnJ18eRkdZjFHKesByizuooG0HW0H2kFb4MMMMMMMMMMMMMMMMMMMMMMMMMMMMMMMMMMMMMMMMMMMMMMMMNf/wBBBtM9fn3LMHK4mq8P6fe/dgMwVjzlt4LIRKDPyV5VLC97FaUw+ybIAICuE0iyDp+LB9JR9JA+DDDDDDDDDDDDDDDDDDDDDDDDDDDDDDDDDDDDDDDDDDDDDDDDDD//AKQaBu2ee5dGhecme3B6G1bl2n7BGa0zzjDE134ucNOamfaBbUsniKs59kQltnX/AHa8FW0HW0FIMMMMMMMMMMMMMMMMMMMMMMMMMMMMMMMMMMMMMMMMMMMMMMMMMNP/ANBOt/5nwSKAeQ3brxQql5GkFSP2B2eAW/1JTzkEpVqiPWtG++/RMwW+iU8WVPvYC+JB9JR9BBDDDDDDDDDDDDDDDDDDDDDDDDDDDDDDDDDDDDDDDDDDDDDDDDDDD3/pVE8ABhqe16SJ6QJI0idVkPv0tDcq0TPiSpXffPqjtODW3pUxmxImYU3W7ozIeKWtBVtB1JBDDDDDDDDDDDDDDDDDDDDDDDDDDDDDDDDDDDDDDDDDDDDDDDDDDDT/ALXZOOscCN+fhRjDoJe6aLvgl8j47/b68eDDLE7rHx51DHKzybg+UQWXsoR1M4vqgviQfSUfSQwwwwwwwwwwwwwwwwwwwwwwwwwwwwwwwwwwwwwwwwwwwwwwwwwww/5bVfp7cPf/AE5geVj6UklFVDGga0KZiNNmRigbp/OWwVRxgbMvehYNYEWJJYelcL4pa8FW0HWkMMMMMMMMMMMMMMMMMMMMMMMMMMMMMMMMMMMMMMMMMMMMMMMMMMMe1b2NCGB1edxDaWW193UTzv1mKQ9FGAKn9ECMarQ+skKKO1ctWVYBZ4tQz9ztIsJK4L4kH0lH0MMMMMMMMMMMMMMMMMMMMMMMMMMMMMMMMMMMMMMMMMMMMMMMMMM2WXBqCWFacUDz7j+2XKtesEehEV/HKhZh6ujTMQzgnm/XZ0GRKJoIIFeWavb1tz2oL4pK8FX0HUMMMMMMMMMMMMMMMMMMMMMMMMMMMMMMMMMMMMMMMMMMMMMMMMOUWZ5bMTjMWSq5YlyUEPMcEho0EOmFKNKnstcdcA1nNGkVHGFDgwCWGEfhlmmHFV3H4Ja4L4kH2lEMMMMMMMMMMMMMMMMMMMMMMMMMMMMMMMMMMMMMMMMMMMMMMNnnvHHpp3hVHFKANUncfGK28I4jSone3KNjWNdtYyR0T8/VMXfcazgVUoABdibX7nSGDaoL4pK4FX0EMMMMMMMMMMMMMMMMMMMMMMMMMMMMMMMMMMMMMMMMMMMMMc2WKWqUbcFndcNBmFDjn/myvujwoC7ZF1KNVRhU+dSg5xDQu0HX5bays9OE+QkF2nNiB5L4Jb4L6kH2kMMMMMMMMMMMMMMMMMMMMMMMMMMMMMMMMMMMMMMMMMMMMfXWW66ALFFAICHUIsFz02agbxeXoIhJKR8AVSFTB1pb/wDJ3Xtn9WKXGX4CYpF87ojcuIaiJ2uC2qS8BV9DDDDDDDDDDDDDDDDDDDDDDDDDDDDDDDDDDDDDDDDDDDNlB/H0Q7LBfuT2H1ZP5HkCKEQcUmEmS9vbbXnfzV60dJ19C7nlLlmLZXhiUHM7zYxOMaqCftA+KS+C2rB1DDDDDDDDDDDDDDDDDDDDDDDDDDDDDDDDDDDDDDDDDHx+N5nkHPUa6sspE6NIDW5FbVo4lSqZFz4XGyimoC4Gr9D4UVYFpVb4GViO791LLMYShRMb2B1JWuC2qS+BRDDDDDDDDDDDDDDDDDDDDDDDDDDDDDDDDDDDDDDDDHFCToeIB+xsBtBfNPtd8lsprbKd59GvJWs4UPBkQC6plTV0SdsABTn9V3xjzedzCuZnPSziATlRtA+KS+C2oBDDDDDDDDDDDDDDDDDDDDDDDDDDDDDDDDDDDDDDDDhhkvadKK+agWO2ndLU7FAzzrQU8PTg0FSQGU2wA4AulfHr7qRXb2f2jmyXQhS2GYs/wMBwSwSmp1JWuC2qS/JDDDDDDDDDDDDDDDDDDDDDDDDDDDDDDDDDDDDDDDTW64exIOzv/wAnd5PaQ3Nx7I9y9gY7ElSDUq7NlvY2kPMNhr5ehVX8sBQC1yAO5VV2jW+ivyZ6mmgUbQvikvgtqwwwwwwwwwwwwwwwwwwwwwwwwwwwwwwwwwwwwwww0ejgJRaPBKtWoE5ZiQYJVjfvGjuItjOVltWluiK8ViG+vpvbHAx6kOd/Rlnt6hmqbWUmyjPYCEyNQdSVrgtqkvgwwwwwwwwwwwwwwwwwwwwwwwwwwwwwwwwwwwwwwxeXRSo1FWKJ+068PtOFzADupHcR3kzmkyPF4GD8jV+KGDPj0h8NxaYfV+CYHP4z45fypJp7WLQ9aSUfQdikvgtgwwwwwwwwwwwwwwwwwwwwwwwwwwwwwwwwwwwwww1/XKUV2z0BLiDspcoqD+UO2vNj2FARoA1NpnQzgGtW3Y8oOy1H3xMHlkuCkEe8ubYzwTof8pH7CobQdaVrglKEf//EACARAAMBAQEBAQEBAQEBAAAAAAABERAgMGBAUDEhQVH/2gAIAQMBAT8Q+FWFok/Okf4UTEIaF+aWFq/mSEsIQlqD+ZWFqCfkQSx4mJ4hD/XzKQkLINYNT8SCU5gmIQ/8P9/MIQSxFKNXBie6CRB7NTEx/M0JtG8pRrLLyhGRkZOya+WsTL80IpSlxoXE0kkgnmkZk2bdXzZcup5PSiRBrplxRYkT5gkIpS8LF1SlLqeMnLxRCEL5dBLKUpeF0/BFx5ceMUQhCH8nhBLh5dWIWNlKUvFEMRRMfDGxsQhCEN8ihCdPlCFjYylL1cpRPHiGNiEIQkOP4+bSl4Y9QhY2NlLlKXF1SjGUYbEhIgkLG+RfKxj1CELGPaUosXC5aGGiCCRBC+ZUbKf+DEIWNjHjGy4sXN1MpB4JcJ4vxyL28qLUhCx49erEidMQhZCEINYQg18auUh4PBMTyCQhDxjZS5BISJ5IonkJkIQQT41FG8IJjcE8JEFtxjxFKIXL7pRMXTEGvjWxijf9LOBiFEicXGMaFqYheHr5QhMvLEE+KeUYbEJDGtekkMuPFjJjY8VlTuvXs4QtWMfxZ42PEv8AokNDWMSySYxDyCRBoY2NjeUWL/omUvcxcseH8S8bf9CQ0QeKCTXjxCQxjDZ/pCanMLj4XSxC14fxLGx8UNEIJCW3lCHhsQ9W0/F6niKUb2/iGMbofFKXhExEEEP8Ex5MSEEylKXFlKXEJieXg/iGPkhhvaUpeFqeMQaJB7BISylKJlEylKUomJi+OHh6iiwpSlKXtYxkJogsIMbKUpRZS6hCYnw/iT7UvIJlKUpRMpdezEEsY2PITpcJiYsuJ8SfhSlxMomXVxchBImsY31S6tQhMT1CD+IPW/ClxMpRC4bKUosHobH6LULGxDQnwzG1j8VwsTE9eUpSl5fmsTELhifDMYWMfqmUQtY8pS8X0gtQsesfw4sfpdWJiGMb6f4EsSEPhjXwxix49hOYThCEMY/wQnEP8xY8up8MYh8TGXZ2hCxj9ZkJzS4hY+GP4U+Hw/KEEhDGPwhCeiF4P4YfDRNhPBCEQQxk4nM8rkxa/ijH2yl4hCYhC5fU8aXhavF/CMfTHzRPIQgl4T0fC24vF/CMfhCEJiExMuUpSlKX1vihLxY/g2Pia1zCZSlGylERkF1S+yQkLxY18G+VyEGiEIQhMgkTRCfhhOULynw4xi5hCEIQhBISEiEye06hBLbs18H8GxjxcQa5hCE/TCEFwicPWhr4NjQ8XpPd+SIJE5XD5QfwbHi4vEJ7Tb3OFiFxCcNEJrH8Gx/rfDydLFwia8ZSjxj+DeQnKH+K8Xpau1rx68Y/g2Ig1jxfjZdfC4WIWLFix9XKP4NiEMmrqdLp+K4RBC1C2lG+Hw/g3i1onmyebxE81iKXHlKNlLjH8G8TFxB+S84QhO1qFtKXGUpSlKN/CPEIuTH4vynosWIpe38S+aXJ2xfkSH1SlKUo2UpfiXq5uQhNfve33SlKUvSx/CPqlxfipRsvlSlKUpfFY/hHt7TL7UpcvrSlLtKXlY18G/Esn7kP8D+DfkTL2/B/gfshDXwb8y8n53tfhQhj+Cf5Tf8ADQhj+PL9FL6QnCIJDH8FBPRej2+a/AhCw/gJjY/w3wntfdCxj/vpH/BsbL+R+V8b6oglrH/dSEsbGy/jvlcnMJy/NYsSw/7iRMbGG/xvwpeqX8aEhLg/7aWUbGxv9j/CuoQhBISxaf8AaS1jY3l/I/aE9kJZCCWrT/sQRRMY2NjYv8xcL+BPKatWzg/66y62MNixi1fvuwnS4S1Cxcn/AFWLmjDYh4ul+2l6aJ3SixcP+uXLY2N4h4v4q6nbEJifL/rILhjDIJCQ0QSGT8t28wSHk9aUuJjcsf8AVhOGGKIQQxrqfsfE90J8sf8AVXDGG8QmMfCF0v0QntdWFwx+LF/4X/8ABM//AA//xAAgEQEBAQEBAAIDAQEBAAAAAAABABEQIDBgITFAUEFR/9oACAECAQE/EPorxnFLf58Jds6Fn1s+T/mYtgk4RMP1p8llp/IxdsjmeP8AsfWhYetlDv8AGbvgkss4y+sMpYYZm/7Yxd+fG/dnCyLLJ+t3hLIt8GIhCBsWlpaWnrOfz4HDrP1qpeBZJx8bDDxq3bteWYuwQdIOZ4N+snZZZxOPd95Z4yIg6OB0Jkpg+r9ln82WWScSfQWWWWWdOZCCVscEEnC+sFl4FlnHj15nDy+BhsE9HJEuBNv1PtsvkLLJmZ8BZBZzOPXmER/M8CME8KUsfu/T6hsvnLIIOrM9yyCyD4Ms4slsItPEXhc/eP19P3xlngjrLMxBwFllllnMs8ZZK3bTmEy4Kf3EPp77eFnDp4xFlllllk+HzspkNvBiyiz6xCCzgTw9CIiCzrPtkj8WHE/Di8M2M2CX054WdYNilI9PC8OEEQ8ZZZePtth8HUtthLZWUfTWyOBMG8jkw/jiyzMcIILObLLbzZ9pJZFtswNkkfiX0wmIhwF+SOETJwssvThwEnWZ4x7bLLODwiZeQ/SyeBw/CDbHh+eMrbfASRwTzJGTh+PJJOHAQmUvpRzN5BM+B/HBy3Z5Gywc2yJ4MPDUa5ePD0eDqSdFwIn9KOD89KWWSib8L8Ut4czq2w35dMOZIYbKzgWdXhb14M5ZWyj6SRCJnL1nS05nSbZi25Y36h6ybzTh6PDZxSzPB9JOBx5UfmPxxqXZ/Pp4nQfiZ4OPMx/PDmWcSCzmSScG3wPpBEI4+g2QWeXjHQfzJEPkk3g4ZZzOGZZJJPqfSCEJtlnhkTzLLLPLPF1ob8Wkx51zIOmWWWWWWSQks+mxwcziScfhPDPOeUgnE0QrUxjdiCPx3PbMknc+lB0NvA5K04tYzLLJJPGRb5FtiCPDPh4ySSSREM/poEQLLOMkmMZlkz1Ig5stvMgggs6nHhPXiSSWcycfSBbEHDPWSTGJZJZJZZZFnDwOBAiPWeXjM8OKX0YhZ0Qx7eJJJJZPnLLOAssss9fq3mdep0cJfRwnoj4E4ySSSSdCyCyyyybLPW/CyzwmJR9HGIII5nneMzM2T0sg/g3ysynhzI+jhwiObb62ZmZ4z0R42234Nt8bbbPts/ow4RD4PDx6zxmIiPGfC8223ucWenmfRR0hh4fAzM2y9I8bbLbbb3bfhZn0Qw/RR4GHhbb5bZlmZejDbbLzebbb7yCyzqzxieHB+jgl4MMQWWeGW2XizzYYtjxttvnfgeJPsj6MHk4O5ZJPGy2zbzLIObbxtt8vDgWdes+d4Q/SwShtttt4nBiWWWocU5Jzfiyyz4Fl7vMjgR9EON7sQxB87f8AJ1PM5hsEoSnDzehZ18714yyy9Yt4W5DD9DODmWRbDw223psPE8FrFt49Pk222WWXmcfA27DL6IoevNhhht43gm/BIbb42Hm/G8WXu+w4/ohEcXm82I9G2xWbbbb8J8myyyy+j0pfQyUce7LbbbbbzbZ7kH8D4WW2Xjbfjp4eEvoo9ZZ6f4Dh4Z4zM/McH0MjrHG3xvnLPjyyzu22zxnjPnPZHB9DObD4fhPL8jbbb4Zn4WOkQx9DJ4Ph8ng87b4LPb6Z+R4RB9EHHhwZ+HbfDHgt9bL422Z4z8OQWREfQzj3Ybevdt8bzebbbDHdtttt6z4fW29yyyCyyI+hnHu2x8m+xtltttt6TPHjPrILLLIIOZBH0M4z4Lf4httttt4en2yyCyyyPJ9EOtllnNtt+F7tvvILPhJtlnGWRCBZZZ4PopZZ6zu22222/KR7OPrLIILLLLPJ9FHjLLJLLPW+88Z0z1njLLPAyD4dj6Qyzy2WfEdCyyCyzr6yzmcySz4GeL6IPWde54OZZZ3LILP7HjH7+hkPhfD63mQWWfytlllnlJll9DPJ+F7nSOEfKeM+F629LftH6+hHk/I9Czh8rwfGec9M2yzftH0Ihhhtn4H2dyyzxvvLILP4GZb9/oew8Pb4fR3bbfW2/BsPrLLPDxZZZx+voO8Ijm2+2eFnSLLPneZ8jxZZej9f7+2wQQfAcePTjwi23m22+95nMs+HbbeMyyy9H6/3VtiCCyLLOb7J8sFnTuWemItt6+X4FlnxP9xZ4EEcPkfj34cs+LbfgWWfE/216EEEFlnrY/i3+Q6svGyyz4n+6QQWWQeHjMet8nxbbzbbbfJ8Cyy82W3/AHRt6QQWWcJ9PwHt+DLObbbb3IPO22yyzbLb3P8AaNljmQQg4lncnrPdtt8H8CWWc2G22223r1mySelv+wBPGJiCHdj4GfgPJ4PL3LJLOEHjbevckk9H+qOPkRBJ069evwng+A95ZwbbbbbevhITwsOH+uZjgcAhlbEdfDx9HxZ6W2223w+N5ncsss4EJ8Ev9XbekIeAww22zPN8Zx6Q833vxb6fG8zzvAnpEP8AVfAQg5srYjrPxZw9nSbf4Hh3OZZZCHSPiGPy5Y/8SQ3F/8QAKBABAQEBAQADAQACAgMBAQADAQARITEQQVFhYHAgcTBAUIGRobHB/9oACAEBAAE/EP8ADD/AFyfZ/AwpwXAtj/4B/wCZQO3bIM2Sw5J1CcMILg7FP3Lt7ZzdnB27Btgf5cf+Q/8AjH/rcvh3Yk+3ssxYiHT/AOYgL8btcOS3htOrV2HxCd2UUiTe3WKOCwFm/wCfn/0Pr/lyyOl9r1KS4k2YW5/8okBblk9iDSUuWQy6bI8m9EkHnYekphYceWRsktwNlp/nR/8AZ3kdjhLVvCP1fd9SvD4BE/8AkEoLaeWMipFqwmDLrAewBwmryRMmXLbwZ7HnNs9iM7bD/WJ8ZDOzvXwMSyN8iJjCWgR0s/8AikgtOWLfi38tD8Dv2zPICP4yg7Y+kD58Jg6X4rW63mXNYn+sT5XGG2G2EGe2ZDDbmzS3PhP/AIYRCVclc9sD2QiDIj/Nr7IDj8Xzs/Uk8kVuCbAhC2bhtD/m5/8Ab+7D5zrYSS1G4ZRcm/taTJP/AIJALTxmfYQP3ZV0WjIPE5H7FhctDLq9O/DPuA2yUPgOS3EOn+rz4Xt78gPV2lxyXm/Ga+BdjPwbYTEkks/94IRfk3Swm32bw/ACB7C6vBEdbk5F6igWDJbfylNuXi7bZU/J6P8ANz/7O3q4+AanNwjkdchko0zvuwLVbeom9+GWWWf+yEZumDMvs5Xb20+4XAuXHrYZY+tC+lyJOC13MkB5aLy6Z4kEB9RYi5Ln/NT/AO0Tdvg6xA/Uo3Z8AK1k29hwnu3bZQU+I25Yf8Bllln/AKZGb07KsOWX3ZC7PlbF+Lfow/dryQ+4fBMe2T2P9hTl1YJCE2SL8B0ua2P+hfr/AOUT5PGaA2v2FSN2yWy4jjy4+rxeo4vZZl4jLDixxAgMBuWWfJllnwyyyyyyyz4yyD4Od822PZGWxU3beezaRwyOdbR42nrLn1PbF2D9sPu//b/9hduC1vYL8GDKRYl4f52f/UJcsuziy41fJX4ORBPVgjkSDABaeWjBlknLcIezEJCJpCxSHzXL27Q33I+7+lmxcufGHwfBi34Ml+4L7kwjLkpcOx8vU3Vze/CI821zLFoy40Ga5jb+0/3CGF97aWE38v5WztkT5/1eTnqhqyJzOhSI8wfAhL2THYNJ4x7Z8fUy9nsFq8LW2vhFEfo+L+lp939LB9svu/RD/YQ+x/UULIjUH7APtockTfhOPVoSsAYupZ6nDkOJt5Fg12D3LwQ2ZAdyX8X1JXpeRsvIWOHpYTy1GTIvP/r/AFeN5iozrlqHIazDJ2IHJmtkY4S2C3I9bHJcZeT7HJZWz4AIThPZgWTIbOyZfxau4W0EYbD9/AolM7PbDxnRepIRn3P7WRDScbZywDsW8mXJTkp+w/TKXYeBgGJOHS/t8ClYF+Vkx6P9An/zm0krY07DPeXmaHl5MEgrO7GJ6bDkjLDfi3tu/CgNgyQIzws28s2wyHNiXGdYydlhrDCXfhGIJLZ/bD7hfe5XvYxn1JtZnYWFn2NvCPsKhdkPIf3YPZL42ftk8J446tgeQtuXsvS2AcvD/Nj/AJn/ANDbZhMOWCS6bM9I4t1n20IAz7Iy3GW8jZO34ni1WHIf78BtseX3AJddhtxP4n2gyNutx5Ood3djbNsmWZ+76VqRtzGWm8EreQ+o5+EgIQtGYjmXeNtMllux+5MNCLTCcNly6Zs6l4Xn/qA+D/yEHLX5sS5aZ2wuq8tNsJVbUr8AJLPuXkMUeQJxarcQZOnZUpNYORDhHsPyL7mPLv2+qNyZGEQj9ThXxvQRBOK1aQ62Jbk0zI4ckSDGDLJv1Neo2B2IZ1uMizLPHIK2DLTPgakTNufLA/6q2340i6/J9sGHZP1KzYgnrJG9bBq9yLGQ4bIx8nkdxov6tJNY+lnqDtnYct+rzD9nVzGbaEGckWUDIO9g+r32DcGMGEjiZ7l9q1eQxPtlPk4NtvJOcu2zhZyxcJV7GoCDiOdj7iBmQ5Jj7DloO21phw/6DP8A4h8b8GvkTmPZsIOW4ybPOz9J523Jxb7hPudqcE/aNy6ZJs+EaIOyRyT2V829SwtDJ520sC6TR1kkF+UFkkG6ura8ue57J0bHFoRJ2G+Qh7OuWKyZmS3g2Hs9J/vD0OyjnkA1hHIxCZ42TL5Hm5MfJ6T6RgvH/n9f6f234ButnGyAWd9s7JsQIXqQg7Ljetl05bhavIWpA7srLyPtYy7ZGrBiO8L0M84X63IxZ+WEOi8P2A31sqtj1Y1wsWRLPLqiDsn6jrtsTOJnrdOSJHSw2AYMLhkhamDtjpCMX05D8b7gEDAvpLWcV1Akg4QW5b1g+7GdoYf82P8A5m22/IbEOD8jieGTqxwsW7t1Mcyy1A2BCYYIa2fVxYdQblyyyaxdhra92feQBrb3kPtn6lu9WcvuGC3loOt19QEIGyhFV2FnsqvbtsmvLftLvkb5aEt2A6grJB8COpifGlgdsxBgzpqwGHbRpy5ZJ/CRZOdbSMhOEi1gM5FWIkPJIE+xz/UbIIm/g3isE9ZM22PpG7Mnp8eZuXu7Tx7YcSqSyJnSW6teSaRRyDnxjCOkgc+2hyUQKbAvZBwgbx5NxEnS3GLLPI01kficfUiMtfCZxGh2GwPe+J0G4ck+pbi9ojknSdFzeIzYf+4R5Z+Sm7BeXkwbDwF2J92IhZeQ7ZlkOnLmR5/qDI1H8fBbGCHkBfI/M6R+7RhyFvb+yY6R7JeJLaJNx20Jw7EOwBPCls8ZQ124ZDchPJHmQcZhj7ggYZAYRTk8ZMPHsgeWnG9UqchsPYDvW5eTbHDy/BdPGNPWx4RxbHSB4E623dkN+MihyXsvxt6mLFamQXVnhPrcLQu2ssZYHltulwsm49kGyf8AUBqdv43BH8Rg8vXw4iPEO242QkiUldlpcpv4+CRldgtxPl3iwvGWYTM+7IZPm279zggCfIgfd522MPZs0W3+ZOv9jDYsuus/kFpyQanvkH8JfqAGyMPgCz57aGM8yd+r7m1JetzOXLtNyfZ8sWP1ezITkvth3hDk9cnGESgbZOQbXmjbZMyMHtni1DEH/OT/AIn/AMEa3e1PIRLjDL343LfE6XX7mBvucS2BhyOEtqajmWGwEE0trId2WXFvIi9/IgyPyXI0dk1lKyHtnOoMwWPRYGFz4yDH23sQ07JeCFOtvjaMsTWDgmCs1cLkg+1/Mr+w57dHlo+w37iyXGUcZ4kB4fB1cfbVrNkZA7esLE1hqMGwGDNJuMsckeR6W5F4ksEd2QORw/06Erd4Y4nRl2xI3btuXTMofZ4n0Qh58kclJ6tLKVsdui3Lk9iPgr9lPLPsOMOdlsH8gDsxOcicEBsviDok8Z2D0h7I0d7J4+ou8k8SMmUGNyLDNXD2EPuzolP2OewmA9nrlr9RNWAPLUuWF5AXZayFltyKVtJ+x7Hl3Kso0JDJD5Yxha6zrSwVsFtLm/6dD4NLI2I+rBaMl58/Z8Fz26+C9E678QZOC5l92LMZ8tneWTY+TTW7bKeRb8QsGYuuThaMIyeX23atmZ2V5+3ANjEwZPcZuvue3JN8JPDO9Lriy+2RhEOMFgR5AzyWuSB26uXDsxdgelk5I/ID5b+Fp8t2A7DoUrWCL7eiz6mfJY+4WPBGIQR7svswuly9kcf9CJ/7Qt7C4LJbj8TkpPtuT9JtCybr5ahjjacJ9uZsMepdLTbIbdrDtoSmJ2SvJk1mFhs6jLyQ6lXSHGPYNXTkb3cZN5B6g8Eh12CN3wi6W88gJPRm+tuPdjV7HJNMEH5CY/V07dsk5DerDe2PLY8kWwpai2ENyxDko9jjBLX5Yk62JkAazt5dntwZOeyfuU9sUXCy4/0qf8wt/hAFmX0TajcLq/BL+QScsZcAHYD5dIRMG2+tjy4JezgjV2y9j2Rsj6xPJGZaajMCxA+kiZ8IQZO3xHTL9E8MZBOWndj7yKYCzOvZwly/tpanKdkeDBOmEfqWbPY1IE7P5lOLUi2uTzdQH208kS2uCSuOxfZyNsJ2LoWwUn8X37rUjt1hH3G/u3CjXFeilAssy5I/00Q+I8vLeTx34Bs8hvYIy57YXID9RWY5D8BGcYxLzLhLssn3GG3YNg23l9r1+AYSbMBYN5j4BtxHeXqHauFpeyDjISLwgpke7t6WU72ZG7G0OSMCNCxWr6Js9tjmy7G2OSyxc4ctrDyxkA1iewDJyJNOTIcnAQ50sT4XECMdkOTFZcjaxNnAcmxZJ4Xj/Pz/ANotPn1hJpLku2Q5exnvwrBZYy78LiHOezxl9TEoa2pbrPsnZGwJ0wFs29l5Yx9SMIbuydjp8izNSAnlibcbB2+9/Jg1ZGBHlzyXAPZ9jkQ9sCt9Tlt6a3R5KmkBokZmWkwJsjOTQ6gBI8sPVjOSOQLz2X/ZfoWfhD9wzL6tHnw58It+Bs+IMYZobCRyMSf2A6uRPkf6YI9+LAhsZ7K9TVOU8kc2OsBy6bQkPZQ9k7P/ANLTr6nuD2QdNfgGsXDYPZbBhhH0umeEvIKxT7z4GovibifCx5mWXYmN8l9beITkFr6hP3OjsAPLSeEJnhfplHhIZazOS+m5bl0h05y0+9gDc/iwlmyvudj+buS1JtnJ0/CwT9W/ic2HwyFhbHknNlswZTcIByAZbXlueCcO/wClyF0+ILPyR+oH7ubO5SDIykzYDxvsnYlQuyHv7uPIKxgMYa17Jm3PqI5YBvuX6sGTnfh/Uuz1XLGrHgZt1kbkB9fAAy1djiFk3jPW8jnt15GHsATp4xfttfLYnDs3JB6fZa5ehtzySLZ6Rp+j8E74nDIeS/YSXc2N9ZzwkCxnkhb3Plt9X8JiK+HkJlpsO9J8ozZuNB5sxyBko520v9Lke/FxvPLxt2dHlrbf7aCJrfZMdm7Onsp3Nmpsh3qyZjMNbIh2DKBYK0/uwB+C8St2de34XCWufUE5hURum20w4sgaXQMsIPIoHWYnEvU+SjywdnnY3y9NvX9u33Jv2f6uFkhqFIAeFhiEvzhRQiwy37w5wgYu7KDL12wnLDLxjBlCa0fpfgkGdtfUd9gwmUqSl1ZeyfsIPbbuFPhex/pUhGPbkts2BHE92paFg3qRYeFqz9Qt13ySwMsPoJtQRy742PkTIodjA7yRZDK0kjl0uEmFxPoubk0PMPZ1ywJUS8tgQj6htyGzL7sJZa6sSHOWj2xDLT1PvLh2zfQlDID2R5JiQnke8MdgPZ1k8mPIgDrG/TJhesn6g+5cZywSBfg0O2s67NvLR7C+vh09sPJG1ZJ0wZk3U0C2spb/AKCP/TI/AMjz4AwGSExm15fxmPJ47dzuWhM/s95pvsbUDxy24fbGw2CODQzwG7GwAkbXvrYBI0MHA+5J20u3R7bfL9LrpaXLpF5fZAY9bZvJzqDCEQEB7GmX4dntl72L3fQl1y0SOrpLjHW0yYQPptp4WN62KWAesfhD9Ey6SseQDLW4OkD/ACz4QqkE7twdjf8A8v8AojidMRdPwsmBisfJ17Ykag9ew8Fo3ZcrH4eUP+fn/qkYxg5aZpy5WZZvyshmesR32EC9dhwyNaj8RXUmrZ/WxBGZPBzYi8R5c4W5MjVqku+Q+zYOXcn3E4WuW28u4w5cV7vJ/gNcmhb2ywwl1yGF0yYOsBYg9j8slfbHN20R+pxLSdrwxh9Z/UB6ry5c0Q7xYfI1LH2EQbauX82RiOCf3PidYHIEY0WAw0sY5IzEjdebEZjxg8SfuR9bBAVg20Glwlsf6SPgI/AcjrFkEg5G78L83OS0jdiGATYZMjJOpQROY8fGnb2Xs+QFME+5JnLA6wVuSuJxctnBBm36R7cNj73i9SPU94l9MM6Wue3Dtpu2h7J6vcSOHLjqzCDG+9gXryB5Onsv12B95JH2QNky+lydweyHSB/M+iwc5CPueuyackCa9v1N6dq6bYOcgs1p+5LHCzWXJ75awF+d07YPLfqf0nz2239p063Ttta+Hn/QM/8ATPiPmGoxuYIj4WfB0cmi3bjs3u7IvCS2FkcFvtgy+hKBYmbQC6Ml8kg7dtnUAMnPuEcsJpK9ZkyB8v2k+4axBjPHSN9S7Y3asC65YOrdV4tDIBAXreOkB3GH51P6bRMHWZ5a+57InYA0h3rBPL8i4e2F5IDtpCoHlo+4AWryxJKwZCNbcl1sMh8BZ5E/UDewYEPVvhv6xqAZmRWEj9zfEf6SPie3KE782Y+o8+P+pxbEnYdeWRnL7W7EDzhM97JpEnIg724oIvEaGfU5BYoIggX3T7k9awweR+2c71Dhn3IwZyc8HYdLjjDrH2kbkabG+znjHrOeusB9xtVxIHCdUuoPJ9BQHMZ/bPbuI2X9hfDIImT9iGX77fqYdJ+JJ5Yezx/b7U5ctT7FXkrOww8gVnnsZeuWtg7AWEr5fpCt9Xq6Lpfld9Wha1ydLRt6T5fWOyRltxD/AKFP/KQ+LO3n2zlnL6+Fy9LBbu9OklW/Ugo9mfhbk9Tbe7zZBYovYnecmE3APuFQCQdg6XfAgOrUQ4Rp2cCQ7A5y2dZ5wjnZ6TwyGsQMywOwZp+x2EdthfLJI3BZJGV1u8zaoI//AC4Ci59bC7PkyFIxMf8A+82em3Qk9QH+Wf8AsPxsMAbPj5x65JDkcZHl4lx5dPbTLT4Ktr2xiPYBnAl/4IEsHlsbqzsHgjbyKM5C5czGeWso/wBEn/hH4CpOfDeX1D2WxtNkzU/S7WwgTp9I9LhyUF1gPS0AQ0Ds5Rcm5HHgEO7keDyBl93c+ZHbSFsm5+BGt0zLl2us5vd0yx2eznV8kjt5NHXbdCOMXJIetuE8nA//AOlqFLEJh+TUvX1NiYyxjBxbxGRnuf7Gs9GaJERd4g5H99szlrh7ZP5D6Zbl9SN7afUGwHk46xxaG7bDLM9kSPyVPt3Z7a2HO3qAeQHk0y7f9fg6xK2h5s+fOf6OPgjH4q2ZEw7N9WSSU8t1kztpy0c8nR9SNnZdw2SYua+TQ9YAz/8Awh+GT3gRj2CMLS21hnkaM6zsJdv2gphDHYNnDd2HVm3ndmDjcMVkP220moeX3dzTRtYEweLW5zHJ1+yjtTIdbTdtkH+40vX5OsTDjFlywRy6PkKD1IOLNOwA+XXhCbOsyyeWN8sQyeomdlPq0nHll7dWCNTYNh+p3q1ZxLkzadYbwsvbfi5WDK2Tfc8km/qW+Wo/0Uf8iMI958D8H18tvMssPbJgYXHcE5wLoUip8X0Nnhblz4vCIx5GnbRnnFu3Fxews5J0wIhvbw7IWX6cutrG+hIsYZYHPttKjZ5jx2UPbDDyBDqEuQo75Jm4noP+p/YsGH3LhvSff5IMS8In9WWL9wUE2ACkm79XBEhsojCZXDl51kqPsNv+gSD2FX2UnTf9Igg3X21+xnsz77c+fDrOJ36vOzV25+XZtUy9LD6mGB+Tyetz8B/oY/8AEQ+aHnwBz4bLLxBgzJ1ECTvIz2+rfRTPPLmB2GgRkiE55bWB+PFqONsRRYB8niyFq2jMf5JPZYIER+rlXkfp7dB7eneTDq+gn7NrMgRncgPXbfLb7t137gMrC7IQUfcHt0Ozbbdn0mWMvuTRMESMPwNvI07bcYw7O/LY7drQsMveS+t+1/UH1Cl2PqMeyFyLctJMhpdo6jLT4TPYSOwW4R5/pEexmvCGFsv/AALM+D77OtgPZ4Jvkl9S2aR9xZkBnZvpnVnZJwhb2MQ4QPpIJLcdkCAZBtRtP1IvfYpvF6B7H7mF2OkjQ5+JmC0tZG5Bi+4Qv4TBy6Z9SsvZ90nvsgOQrhdY26NPZ3HtgfyTPmBeoE21sGdIx5ckfqeHexi2c8jwSxukEIZUw+rBPZJelh7P8Ib7YfUn2g+xYPJIrOENYQ8imvCJR3I+yJteY/0Of+Aj2MOlrlgX1L8B2Tl922mxRn4HfEp2U/UOalh5Avskg5Il158FeQM4IGDuMCOpD4H9QM5L2ZlMY3X1OZbdYWTl+QNuFPIOx9MvF+WJwhwDzL2R+KbMSXFH1KZA9k28zLvp7AxwZ451gf6rEwjKdvIUOdIV5HPb7Q5y7dZWbIcYBggEpCyT6iuLX1f3Y+rUtX3eWbNTwlWbE+LjZiLtgS1k3XtguUf6PPiduxcocllg/by39nMly4cbaCN+rCXLphfnI4lx5K2GvYb15ZPq/uASfkP7P4+AL0hZ20bjsj7kTybIW4w92CMGw6TV2c4r/pbenY1QudTyymGsW4RhNkJiyqlhwyH3YHvIFzCPazv6xtE3CQJE9k2IB4y8BavYB4QD2ML2Bbf0QPpDXvwmOk59S/Ubd/YV+7LCdXCwbcZGeRr5OnvwdJGBnfpZ9LbLnpIfLg5bALf47vMf6PI3L2HGQ5/bMLZD/gt0W49grpa2HIVq9jDbz2/K6t92a2Jrb+RxaeSb8i4QqSTR75PT40kEY4PuzL8KNHLOn1fQQOi0syDHZh4y4tWd1yyT7udeLZcnYBk8Rn7jbpCK6eQ53bqwL2P5HZwk+rwmz2Nnbr2PwQ/T4GmpJMw/UBdMAuWQL6Nt8jfxD4kp2JlfPhgSnwS1+Db5Ysas5ZdJ8/4D/QZ/4nq5LoRc2+p+F+Mm+4XUPdTHZHqBOXLUkDJS7aWw3qUhp2XHLHdnB8RLli2gtDk4l9TBv3DuSPhBOTfodunPjQcS+lHpG3bCanPJx5INdieDpdR4zXTduAEfKNm+CBXj8ZK98XqJu6EHp5YGTkvYOWM7H4i6SY5HfYU5Z4SvuR9LJ9TPkh7Kt/kMu/UpuSHCOwSrkj7j8LPwZNGp/c3F+G5bns+/Auf50f8AqHwO3hlua27GdRL+SN2dy12/qExKcidOkU8voJn7YQVulrvwT4TM9WAul4uHbUrJNZ0umWQ2CT90R3zITPUX1ZcR07aOlnv/AOFgNtXfIkcclajcgDx08vTG0cIHRQGdrFESjEuwMkMmTGz6jW5tumEohwyEsfqD9W1FbnF1vJPqWa5B9rIWo37IkzyWTN+JT2XbY+OS38nY7Jyz5X28/wDEf6BP/CfA9h5FHqwcW3TkY+XdyxPZj/Lr2OWRmXER32XPL+sVr92s0PbbrbkII23eW1JLRLA6wXhArY/B59W9ujLeoBZ42DjB2SE709kDsb9QoXdu8hhkHGMMS6Z9SvEsnQCYS82zJDlr0cS0HuSOkgLC5I+KYHwGOrdIcsMJ8jPpAs7JcW/tyYfDu2Nj9QyhdSJIt5O/UxbfqwHk4htrclpC/UQy1l29T5y8/wCjj4npeUIB9nHSwdR+kGGy2cyzYAlzkA+t0CTromnI3sL+4PSMvewz24Awb7ITrEcTLJHryHINO2dmtPIS6Snw4yAf9XN5IXLV2wyRIgU0susYkep9i5rfxtnjA6fLD2CWMbnq2YE9RgW+pT4yftkRHy19MPcZCFD9ghTT4XU2/AH1fY+E88kt0jmVfIxIsGQ2SQkmN6bWdl+MEut9sMblg+yLVsGZPn+jj4jsfLgJboxv+0lhANPLjZ2wH9j+3UXJ9H2RSHnS6Uwv1HFjYMkftMfRN9Yl4vt18/8A9tOLGGk3bcgDt27C0lHja6mUB20dlcWEB6yxycvi7YkbGX4SQyw9+5D7Ghllx5cYLHH2kgH0OwPqF7+oPEo+7ZjK7xTrlwSwjUPyOEjHwp39ufu08kMAQTqzA+pywTqySfb2S6dYc8n9J15dE5ZXLTqOvgKOMHbn4D/RpDt5R8lhbtxhfGN7NulvNiO9eSHU2Y//ANKd/wD+l1Lz/u/6GM+uWTtcxTGQnj205b7Mk+72CGAvYkdtmHkkSHl9nyYdLceOTj2RyV/1sD+2FxkTp5Ons6cLWziAXLpKGMbNh2EJZ9H7KS26h3I9FsZqMbny09g+xhy6jmw7CsHZJDsZYNmQtlpIQ+kvewh5JN6susGQJBsyZq9iYWbY8k9SAThFPbpHIduZetufEmX+jS9xHL8ocu/UIT+IT7A4nsnh+ApHML6HX9iC62zDrsMh7EUceLgbb+4Vmxvq0mHkAz7sMra4JsnJg5LcnV5x5adTtjOSXzsTb9QJ/ZXUkxYQ1pCOmXXknNs/kn1C8MjIDGXIGf2C9fJzUXWMA98kx9rbex+LR7H8h/bMN8Zp7DvlqMLMbDD9+CzbA9lHyNC6tzkI9LT5C+vnBYtbBKtr6g3nx4Sn1cSagQlxl2w3LJhMYcsJHvINsJfEfB/lJ/6Z/wCYtSCbBkFPj2V9Qx7GeQTpBp/1EgYUmY9SX2FnGV8uuSPuF6wz7hejE7Bmm19b2EserLigbpDDWRYwbqkCHG3kvbID7H5ifZVy7NnErcjdnQ7Y3biZDkNRt2QouuZYBCww4j4jGGTrCHYLDvIMtfU+dh267OCd+DY5DMzLTyH2uS3eX4PgYfEhYI5+DBnsAfAq8gJ55JKfixk5N0/CAy+kP1mPfhW/6L+71HtgSgx8PJ7vCbuGMKvtbyT+RLr6Ic5ILkbO8YekE2foXWefBI9eSX3Y+1nwbL1ho1i+5euYbvU/qExocnhv3HYn8gJHOXHZL7KHPLUtdtVOjJjyemy3Lb5kMZYggPSynSRuZH7l+Bfp5YYxP4j6Th7IPqA3MMZLu4vYJLWSyMWLey5agpuyEmyGz7AC8tIV9uEiG2Z8de2E8k2HbzaHsI3TH6klgLr7Pvbz/osj22n5kBg9Xjx0QvIV7A8Zb5I/kiOObADtnW8NyIO2dlwlWeX1krJlAG/dh5N93UkMbhkEEgB5ZD7R+L+51CIGdkrzyT4b2yHT4ERkBZWuiYHYQlFE0xLaeljOz9Uhckp/FmPZQJVZVxDsj7svlmPkGC7sN+EfdchnMs1twjsM8tkyr5Alq8R8s20PIE9uTMnJDdJ2Tj8Zt/Vr7ltbeuxQ/wCiibvwAcXCJ+2rXSx4t/dvMurPk3R/Zdjss8tyNh9OxZh7dROz+XCby0G3bck7LNRk0Lrcgl2QT5MISJsRq/qf7LH+SFy4dmPc9duzL1jInEI4z0nfUH0vYR15aJ/LD+II2zLN7Guy6yDrPgcNv7fxFDUY7fi2uz7GvnCexn5P8jZBaW6xmT5bdRiXX20F99v4kuSjyXZCWEa8nckJ2WPLSSFseQ4yEhyXJX9LSfP9FDYVLg2zlwm+y/s90j7gclpmyGY9mb3k+xFA3TiwZ8s7yyP5O5LskOWk+mwHUnYQyYpAB4sJkN55KkHUpnJ0ZODSOFuO3idWw+wB5azCeOwDPDJw0kDGbGyPImYwcJFkEZELy48g92Ry9P2zXbuTIL6QTywcYDsmADZXxH6sk68+BvwW+QtoSEkGTTcRyxuHsh8nyd1gYXw4Eq8u5lzluHsO0ytWx9wEMfZ8t/0QfHoXjDAlMn2f1Cx+oJOCI3ewC7MA2PR0iLlb0+UfyV//AJXYuWLyX7IUEqXG5kV8gV5l2AYnsBUhnPbjn3ZyEzPuJw36hYsGw+JHr6nLl3evZc8giwcg3yUc+rBbhDHZlmwjPUR7gPDMTtuPJ4n3ktTJYi25L+kp7B3kBOQhIfYM5MGlstNqyLAC3bsZFG4TGUtZ0dkHtr5JsAlCxnH4WpG7OE7c+w/XwdXCPbeyrViWeTXX+iCPbsR8jyyY2wXsqxxDyCJDC+yOF0cZG/YuCzLZfy3tpJUb6GAcJ7hY8JZ3SPYQ/qN+7Ggp2yZsGaD8gG+r7HxALbOT3vtuHVsKMfIl0volxh0t7O7pA7Ki+7TO28hjsHT7mGEppGzbR5H6jPuOYQZR9xCwOL6C4WDy/acOkMs5dWGwTlnHkuAfZE5LLsJL9WJhVvLZRMA8nxQB7YE8P7YfiHYA+CtnJNqCX78B/ogj2Llk7A30JF9uLv3cNJ3L7i4OwByWr9plKW4S/sitobjX4Oi/GxO2RCPEl0JTzlpQr5a4ZIbCYX7sVh2JQ4vsEe2AYQa0t3tgaNinXWGxLP8AqHbY0vONoy/UOGJHTkH3CrIEw6xR/YeoDENLgtNkV/FhCTYsjrsR3WUGXIv2tOi79xLSxh7a/Dr2DcQfvw/K78KW2B+7LSYP7PTk23WGPwlX2f1fhCGXnLb7gpc+xdjH2ALdlvNmH3bR/wCQ/wA7L3HjJ0PgufUoes51cZWT2V8nPLhFsVnBKjl1ahOo8+Lvsnp34NDCL7rL430o2JrLBET1KBMPfLrpc5eyfR5A42x+w+Iznxxr3s7vytuPkvbQSPGN+4XrbORiy2N5c6+rOX3JqMwfJhy5Z0bN7t+oc5OvIyywvYMc+DzYkjG7mUt9QvZc5HCY3S/G2yNqCXZJEbtfsqEm5fzFlwt258THkt9gHsJeWpC39QG36IbT/Q5e5+WQXrOz0Lko7Od2HojK2Xt7aLLXRcL7llfuMfScctR7ajvUcm2GZKbEn4ATHWdiEbR7IIdlQuwMfZDh9y8IFu9lyXJNqddnGz1IXhKbjAxMLyfsLC8kOMH58E3vxtbdOTrKTj2Ljlj6jnENdvwsGxLqe8tGTOQD22kIRdewZdkBIx4TxuMOyRy1hH2Qs3dt9uLqceW5g2NYjEDsP1LpOklewunkRp7FHrACfxatIP8AoiTN7Z+XIIy67dPEp9X6EMh2LPhg/wBJs2RO9+pHBJ0iCpYLLBiWrsRePly4ylOC2/V5SKAdngRnoh8HZWGRA5F99SRmv3BkOXXHLOCRGA6LV0shwnbjA99Wh24MIHqembLD213kl9hhsMrsg6+znkr5Y6bPjz4Dn320/V2tNskbbhyRY9EpN/cIJJJKcATFshLx5bGSmShkYLGbQ+AcmwJT43JfwFH7SX/cGDEQBbeW6v6luHsB8v8ArL/REm7Y5ssToXB5Y+pJ6zNJhjsW8sVsCNc2XDKEwRJ4ezl7dssepui+xJ7ggpoNs2ewXQ8vyGyikiCIQNvMOyRGOS3JIJmch+so4TvRImMclDs66WvG1clnY1OwMaPJfvsCtkUnZbmYOXjbTxsfr4QmmDw2uiB6hED6gDth6TjvwXrpb9WD268voTpn+fCpnbUtT2C8tTn3L6Ql758GrP2ZwvtQ2fltde2Xtp8mIfZKZyIrx9QfcIeS7PIf9DHxVGwJPY2Yk5flaezUkyYTTYfu8Q8hn8RCXJ3B5ab95enli/co9h8hb4sOWmOIfejUbCb2LcnbTw5FhyQfcje117ZO+w4In/pJ3LF2T69j6GDeRtm2v/yQRdSLxTOLG7d+2j5GJdljbpYJ23wS1kZzhMTYnz2TrFhMejJEJb+w7YgnNn2n6rczlqNCTaMuWEptWNtyXajUuFCX8yJxnEZJP2QfZRDcsfBcjs3wurQ+AZIzX/Q4h24CT6gvscOTrtjjI9PqAZgbKLmZar2EvpfkN7DsyPokGE87O7PZtJXU8EXoWHMg0WHk2EE4UvUO23PqXnqQw1yWhCTj9Sp9QI9Pui0XZOpyV1T9V00LSZ4hJHpLCf2EcjGeQjYHLhfp5OKwG2+4W/DLpfhJHEyAdIEyBO+2B7D+tock8GCe2JkFOoxydTQtJ0TqAEi3asC1dffhkaWwW+rlr6k/Gk6m/UupOdsnl9D4E9lC0WfkvTGG37hXxFlt/wCEf58S7dZEyMFpWHlvpmeCR1TnI/VvcFn1Fp6vxAjm51j28zgDHDLAQJ2AewvnkOZ7YMb3Ny5DkQsI+tmGHt3D0kwvJvzS2FnuXRnkEGsuHGQ6jKwH1Hf2fhCOo9Cy+5fqB7M8WDHXJdkklnnFo58BZGxGbS7PfuUy3+WA7JfdgfZBOzBOkH7b/JjT21sCSh8L/XwtjbYF+rLGPi7+XdgcP7njsH1OQhMl+rT2P2vxmJTQ+5h+pQ8uvbZgIzBZ/qSH/if6AL1eU9IEZ9RmB7JnbmgeQPW23IPWOHPI+/uMfxP9BAlGZdeEphHpt5Y98ZOsq0lWSLfkmj5YcjmWfsSGwo+zLfhzZCwl+2WefesBJ5DcdiydTOHsD/tGO/UXiegkaHtjhnhAbcJI7K4vFPTY45djiB4+3je7Xe+X/V0kkME3sr0jzGcONvduj2xpvwIB7CZ2V8GqxErZ1L21lbT78YZcjLSDYEj2U8Q/Un4C5uWTeRp2IlPlrezvSQlMIfH0jtqNuyMMY/6GF7l5cixINVDWfVwwtNj03C4MsYZcX3+4Q77MRuj7eAd2HNy82GaROjycZMdCwAkLZSZ/A2yfLkyyE9mJgXp4QEHtpq+2hpdxSfyWkBzv3KMfITxkOTyPIYxBjvtp2hC8YAdtFu5EDy7hjdhIQdtLDIOXRuiGMN8jBlndgHI0gGX0sITJe2pAycSG0lGo78E/Jf58GkhX9WHrZeQs/wBlsB2Q8lfcTOTqXsYO277EwCNWvMgkCx8jX4DBHkJj4tL8Dz/Qpe59LEICay2DwsM5aB32AL/+JKPr6vuw1Sy3ltoT9ZJ0LeVYofLLyc629EWOjuzIS7jOSPJlJVwMDsvNka/iMZ3T2c0JzXlkNsjvYAfkaZsutgkVz7j/AIQwbrPuQ18tcfLD8A8bAWML49tl4ls3bhATZ65APJHYQ426wuSdLKSOk+cv0tiYRjjYQhxhHktuLaHJZNPhBAuPIT9QXlzJ9T9lzD/Eh9nPksBlu3tglN+Bd8+A77EQyr7DI8kwH3YIbNy9fKf6FPiLRNuAWGv7bku9bMSQ19meRMQ4Q+iQOFpZ0tms5kRaQZrbHkOfg9hxrYCvqMSWukXkRFBij07dqEZPh/I3CDw2bb1Ms4lzsI87aD5A8RyIf7mkqsIz6uW3FbkwNnV5aHfbhDjj9wekPyHSH3MD+2tt8Ez2TG2GLRxJd2EOy1+Bl58FWAfZHxLLLt38hT6iFXY1Azn3JyVshafVkhTnktY/duR6kPl5YvkB0nfMmBBZbLnwHwr4l/m5/wCYvd6jy/SHwTDw+4o1aJ2eLOSDkDwjjyZuer6uuTh320EmXzl9wnbk9WkhYHwkkXSYRDa4TofUfQ7FnbQY7cKl9CL2xvoS5hjX2bzI/wBQb7OlvonL7Ipj6kmJQYz4fLLU/Uk19RngZ+hdO7BhEdI0Mbm255aZ2R/hZWp2EMPzPqwHjKHfFq9hktgkpyzGwyTGCUIbojUH7tfLGwjdksHkvIaxojryCsHkkbO7B7H8hDsg2M/qB8v0hSd5YXCZwYzOfAxyP49sf6GrpcvmaCxcPyRkPfiDO/DmHlodJ1RdwjcwPplTkNBOEabzi5PLTSQFFODJ95W9ZvYAC3EvV4OyI1eT7SeZ5xgHLU5c+w65CfqcHW9Z5Du+yHDKerBxmNiAK7EYvZR50n2C/Wd9LwM5AjDOvLftIDSPMYjHeJOwJln6jlo/dj6hTkN7dtWmNWYLYQbIjlALiGwn5OiQ8IZaJjSdnD4YReJVTJ2+0vvJjGM+pc8sX4aW59hJw8uoX4Rn+Wn/ALTJtwJcieMLowOlgqBGbwbEt4lTZjQSh5IZYOi0+QLk3OLNIWhyeBnPHtp88i5CVeR9B8Q/s5mwQCA51dQ2Bo2K6Tx6R/xDwWbi9hGLkf5LULsB2NLRxsukYssSwpmXVCfnkQmxdF0ZHJj26Sy/6sJkGZqwIgt38QI5HxBX1dPZe3JAfYNtJ7AsCWlpct+iWJKWxH7GLV7bvJxJzIMf0gbBM20OSKT7sti5C+IR7bNz1YGCSIb7Y2IL4KbYRR3/AIn+gCfS+t5iGoEEwPWf5J24HZGvbaeQay6k6dLUI5dtySACZCPbo2bJIWUkOYL3LA6Smxswdn7ITBxGUgxhekutj6CIcHJpBjsSWzk2o2+8tPXIun3am+CyXu3o1p3FiDGWAnXmQ6hINsyVcIz20bUeSi08SBPC8yQb2wbjyF/J7ZkG19QvUBig2WCA9kzWzCw2WAT2QHIWy334d+Ife38ZsjT2UPLWS/chc2EtC+pRH2QEH22A5G7OJJ+kIx8+v9Cl7vC5xA625Ls6kuQNVvJ8hHWJzG+wB0tDoctw9sP8gH6FyNLbQT1kHqMZXINX4fLMOG4yL4vAgu8S3yJ4sVV6hHDctTVnE6zvgsusMhkG5rhIuwKr2xIWGOJNjQTY3ESEXlxjkAyF0QyOQ7CHJVvIg2y2UzHJ2M2Jd8vEmWMjI4Rf9SKxBwgb7La+RrK2TI7638X22gYzm8XxM/a2Ubd3tk9l+Ek7fYlhFmsE8mXth9StG3XJhGiHI0xdkHvwDv8AoQn2fkpcj29syfPhh9jMwdtVsjbnMHlcaXQErb4lwCUYxEGjyP8AtLbyHlgszsAykIzFCLqP7TDpAZ1xvcIdjsTiblJyj0sZ3ZhGLRyxNQLhti09kwaZPLGHa609omMMNvv4GWUtgfCZgiUizMuyR26+EnYDYZsJfLPhMxrBq3CHY69snCWQyPv4EYN9nFZ2n3aPtosFxKlLNfjqeX2Cf6gy0YVsNWDbzWMGf6EJXlec+QsTy6T/ADI+Ev3COdkfRkBNlP0l6kMHAiCp2X6Izb8vzk4stP3F0Dl4sZ8ReCJoShrs6+UI2HkTnt1GSnJDaMvC0mkYJkZ5iD4RtG35BJithZE5CcRuF5Ejw5P5z3E4YJM+EjSfwCMZlxOYjqyNQD2CjJ4vJXeSh2Cm+vgn9tVv8urTL4tQ7aFy9vyYQ/qzASh9znkGe22ZPu0HI+yYj9vJW8kzsv6kSfcxZc8ntmeQu3LrE+fAP/hP88fbylwkfBxdfUiwx3JF5H2jrlmZ3Z09l1ffElh9QTGW3bTWSDfI4S3y4SRoL0BBkORpGTF8ZyOnk3hOvCbT1Yh4lhTUocm8SDkSmZL6EuaXPduYpjeGw9yJZHA6j2A9ifgxJpiDsMrq1ubEu2FiensB58BTbHy/6w7LdbD92TxlSLckgWBKy/2f7mxixLRk/tg+pD9XpbX7YsJyx+yP2xvZOctDCTyMS9x2TDl1AbaxK/L/AMs/zlXQvKV59+QGewyk4bpdN+hcyLPq4YTD5C0+zcyMZ9zi6jeM4QmIwDwsf9gP92zth4TeiAucteMjVl+EXEjwjIBwsHhfQQTn3CcuF+oReRwSL/uDtI2ggR5cQDNYXT4Pw9hSOuzn7DY248uPYW5MJf1PTkMt0gz2XnINs3JPuKqFOfh2IFoZJsiuxnyARn38LR5P432C7JbzJtWKdkbPgh+LQ8mfpF8x2DPIYWzsBEO/6EJY/E+HwGsEqOSn25L1lhOuQcsm+kvIL0pIs+QxthI+iSa+2Hr5YwLSZANMj0F9D2XTkvuZcQYQyh5Y/tDMSR6jTdn7QS0+EKZKNWQLhGPfYpyOwJDyWVtbWdjfgfZftlgJ36uurW8kUter36uPqS+R/ZJJUiEY2Tb1Dkm/CICdhbT7jfuSrGR+Fn6LH8sT6t/luvIf5OvqAbXz4ZjKCRYNsZGX5GeN3tI8/wBCvvxcSW2YCUyXsso8jkt8j1+79JqPM5G8yfEPuB8kecsFOr+2B9vyU+ElAv7e/wCxuZd+ll2+khTiPxhzPCGuG2+0yNcs9nt7xbzyzux0csWZOeLEhZxD3J+FxltXXwr8YyztmXG6W97BfYXfcB/JD7aPL9QfUiPL/uXPqW/Vr+WpYfbk/DMhJdsyd5DYn9IfpvfbM8k/GNzyW2kueoJ5GHsYOwWqhb2DEyfgsEfpL27YmeyP9CjZPzy1lnd+BZNzHTYNx9FqhBrdd+LU6RdBcNyXe2Uc278ZAM036tigJePJ4YSc6QytoSYZMu+XtC9cdn0fhATy4fIW2tj5KjRcT1sll7OsucvfjbdhnhHUIkmeS72QxS75Y7XL7Gvu2eXnGzkp5L/LVfICROpu58VndjblY/shhn3f3sz2c8v3nbyYWlHlp+oP2FpBb8YQjB8qJ8h3V2P6iT2Az4mkO/8APf8APSwbzuErx8F2X6m+4wZsoF/bp9QGOjPlr9QBmQLyDzLBjzc+AOeRrDZZ+r7zIN6sOLLsMh7ZuTvFgWGAOETtnmGQBnrH1lD4IsWiy2P+0fuZn7uekndurctSXVsD4H0TbPW5bjLIssPYxA+yQ5JDjZzY7bydfjmQQE/1bCzbA9u/LZ9WB1v3bdvwMXnkZdL+EK9b8Oxp6QEC+vZXeEHezr5Knbp9X6bRgLfyNfSWELeQ0uc783/QasG5/CfBZlnFpfWTQhDCzEsqtnJr3NMt4vEAWJ5H8w7Bk6tS6d8jZyy9vUoOfA/ccWbOfB6t7YGWEhzYdnRjntj2dRVWH6k78GYjASGH5B2DWCdzpyNJrny7sjdieLfhcTi/6fFZbPtZ32wclEn3JfGcfUpmJxCm6Wj2xAEBJv6R9k48lmgtII3HyGewPIT8jtuXUOWkN+Ack7az/wAp/nBPsvLyQ/Dy1/LsGOoDbC7cZ+ANr7YBA/BO/A0g7HtjI+11ZZZaakHL1btvqGNvI21zy1+W9t7YrKkqN8ZywU8h2W8ZM8i2Xlq1fpZL8YJdQL9WJ9QWHPr5ijwg/ZO/udGTrffWRkutmkPfgwHtncubITLr0k2QP2X1Y8nHZD+SwZEK0YATD7YfuALRvPJb3YCwSCMaLMs22Gomew3mPbXLL4f9Bku3l8ArHnxhknYaR7Bdw8l1Alwldu/bCXaTPj7ubKdMIN92kuWuPjo298npNkWWT/F/1n+Z7isCwXrSVt0h26O362jcyfbNgv4gzllJmj6iOJMFEbH7A/ZD8mzs+w2/OR+2IEslmbW7Y/ka9Zw+5ZyGOz5Y7IsftgPtYLHy2zD9SH7j321OLreI7DkJgkG+3EFYpJBeYl7MWWnw/wCgz4/W8fAYz4Hx930/F/7t5a7LLDknGP5JnkpkuD27fA8T8AraepAw/b7vI6SC7sGyYyXUpyQ9nfwHZ2QvIJ9T73nwHfuA2Dvl10t+pXy7CQyYYPYTvyNrdslP1CPqA3RsYIV65I+nZz9zm/ns6fkYFxm+r+2Sf2V62HnZ5h7efLX+YV/WRPZg8hEn5dHbSSHI7B2yLSDsAQr9T4clPtt+hfvZGMk/L+2SLH7mf/Ef5yf8GYtIlwlt+G9SQSc+D8K3sggN1nN5DW42Jsmlu92M+DmAZ/l0NgizdvWRFMnt5PZ02i87bLQyxaJ8DcNlkjLvOJyeSCkBGmzhyMLl+rSXYMKsO9gFLPuR9pH7Sz7lYzpnYIN/aB9sv6+ILAIO3DlgcmWZ9xV78H/WaPbUGEbx2Cewbh5b/LX0jjbVyDkLAEd8h3sAupn/AEEQ7HyPCHJ4xd58L8bPsd9sJmZtYYLZ4Lo7N2WEDlwkndvq+yDYx/Lc8nvtn9uiDxazIcLO7AShdWDIsxt5Zzt/1H2SPqfYg+pDcRmfCb4ynyMuzpI9TmRiPbj7lJNsgiOHWB5H225dZ9+Bf0kLU6zfxncD7yM5YWHkrY/sp9sT6bC5gycicWNwCAkX6hrEHbQZ0WCfsED8CNbUa3HvwJJM7JP/AIj/ADke/NpcXSxnwbfhwh+GZ+A2BkIHfj/Bekmycl4kjk5ZEa+FFp5Z2M8J9n3YyTYNJ0uJI7BybqyDLpaG0sb5fRmPJx7btxLhnyprskGw+4flunbD9ziKgTOOlp5L7s7YLSc/bC2wtvqw+7q9sFs8h0g3sgcZttbScHwOfBNl+QM+K4dg5YhD2D6nVdLIfD/qPx4TP/gP/Af5kO/AfLzH7tWQuw22f8Dz4P8A1Ol7DstgS9ew623mW4/D+2clm9I9vO2lvL7kH7iSBfLY7LhGPV4/yG8SIzlxnDduHJM7AJ/YPphPIdhAlM17flNORc3951z4jzyGtLljD8uj7c/c/wAStzaTkOyH7lkj/wBRr1jJzs59kH7nBztlZEv7T9XZZ/LPxn6ki95ceQP3f9bGYQEYeQ1+QWsHPZ75InhFTWzO7BWE57BOl68lhjEm7CHYw+H/AMe/5sQ7eVwhkMSXsfG2227D23kyyw2yfd3iDkOW9h7Ly2Xl7CPLxfWQ4y78TpZ2PLsEeXZ8DAmdHY5LOlp9jRGNQDNDbkEwyB35RGyFyCAxDvpNm2M4R2TYSSJbJ/m/hZvkbNeJZIn3JZGX6Tv5L4LV7YZb7gPu/OX7d22ylvYw7GDybvlgeQYkHt3ZnwEPYT6hwt5dW+7bn6sXsa8gvWTP9BF6hePkWSPbYfghL7hG58MsJlk0dlAz4y8YdvqUpfiOksnq+r6tyHWMOTxl26dkxYz1vHlthJwjUe8IL6uiUtPZ/ECyO2H7aH1LfqH9tfuWJ3to+ow/tj9yfr7I62ZjAn/EET6sX9gjpkj6dkx/qQuvqD9lx9SD6lfmW3rbkwF3eUBc+o6s/t0sIM6WB9X4XBaPlh34GfuTeF/SD+QQxfpfpH8uz/zP86Pj9bxByXnwZiPksI+SWWS3kMg+GT8LLDjL2X6hl12PY8h7kuRaPsT5Zl6sujekMv6jJ+85lwCZEODhD9ZajD7bicheSP2v+kDYfsc+519Tz6j+pjuduE32Wx/1Ztr8LFMH3B/u/wCtG/e/GXX7i7nyzn6nf1a8XlsECXE1WrKngGbKB8P/AFnXkVewK5BCexRtmwJ/mx++WGFpeW7P+gSXZzvEPkSLbZ5b28W27P8Aw9zfUuxw8m+48mbyG3EIm7M1Db2/e2xk/lx727WSTqHbT437Th5ara5m2v6t02602N9lvJBH1M8yx9o0/Ldln1eN3J3s3CWZL7sfUw+5K9vsm3oHLP02Z9fB+F3wLo3I/wCrTFPu3+bfwgT6+AFg/cX0xzyUfV/Niw/RBHsn6gi3wtxAfZI/IPLTalV5bTYX3l9DsN+pUP3AlDwjWQkb5cv7Nz8iZ/8AAf5yTvCUuTZ8GyeWy8lj4Bl+WCsW/UsfKdmHLNdvuXSGdlPt4uS9hDnt9CET+rTJez5csanEnuXC60Sw/doZHi0vtpxtj7aCBuJCzvse+xl9n2Rm3rahxgPSHnkm+XR1hj5ecyZZ+fAyWfos/kBLPuV/Z39gPrH6Np8Gfq18j4EmyX8J7L2ZoMAIT5J9sA3dpYmds5Bt6jzW8eXDZ/8AIf5Of+cn2XSd4P8Agfj2SZm2OLdt+PF7+H3Ptlnx9/D78FAxn283iyGWy5P7P0yHHYh5flHD43vY6wpMS02Fdj4YV2bhzZt9lBt979T3l2NlqbAl2bY/Yg7JUfhjPX4DyH4T/UoP2TXzJQ9sfZQ+78I/rAeX7sgnjt/0lnsmchb1jf21+wQbL8j/ABuvq/hDJg7YCcg2GW30X37bjwtPvJwLEDbpkj/JDeJ3/wAR/wCA/wAx9fBeXn5bJLJJksmGG22WOX9tvfhbfh8k2TbwyfY/bxD3Iti8fD3EcaWukct5L8un4ckNiXss9tOxjm3HGZRhGMRy3HlwpTIA4Mdy79T/ANfCEHsbI/T/AMMraeyBPEZLtoe34Wor6TBB5aPI/dgStuSyHtqPtu2YiYYLgu46vzirr2AQkAXgyEnI/RB9Ere36wC6fhzJf9B+vl82/wA+GbHfbMkkn5MMYh0kQ8jjJNty9ufknw/TIvGe9k1vqXuWQP7Lnk+Q7Jmrs6wx5HG20bR9uPuXW0d2MYEeX0JLB0vDZf7Yx5txucC8WPvxS8jHc4Nzb1eXjjshF7YSFdgsbLHezTCAwh7DfGVM+SL2AQByzfYWAfdnI3N7yxnLT9yob9WP3Y/cUKS2zwh0hfYn1IfViWnwk9cgkIW/hd9kv18R5Iu8gEPbeTP/AIj/ADu8/DPznJJ8+GXXwS3G8XUPLYdmyZly3Ys28fhez1s8+MYsk8tG1t+1yXb1ednXt9x2aHIbCxzyXbpdOWhMMwEl6Sf7s5se9pZKKHPYgCb9xqzIIasg5lkN212OVl/S/VJ+wFhPbF9s2VazrOntr9khvxfwbU/m09vJgiBK7l68tC/hCfUKQ9gS/L324HknGQn7uZzy/Fw+Iw8lA2cmf9Be/l6LL6m9s5bJMnw3WSSdlRt36QL1DMyXny9Z8+HDdO/Gu2z7ceXvbJcg2c2yb29dtAtIccujyadWvdjI4K5DfIEl1C7MgzyFN2IMuI/CZsfXZl/Lb6tNk6hHCxkh95IB7Aek98bP2yfUa+pachr78Tn5M+rCkPhYL2Ee3A5DXYIcbvkL1k2MyP5+Jz6k/I/C29kEZcvXsv8A+2K/kA9l/LQgrPsYEp/0NPJ85Jl9T7bZCTP+JZ65eJEhbL+wJZbbCB+NwniHnwGx8tCxsoJnblwXXk8gTJeZPJ6jmMTDGLuONo5+zhlxYlG+wIa5cHx5kjkuWzsAsfaDcJnsp+pT9WCY9tzrK8Mme2t4xBLpdsPqBH9XH3LC9zRDryL5Zf29QXaQHLr7OPuMPlu/Ua+r+FhKHk6wlyNbf5YYfkHO3qAt4NkyZ/0G9fE8gns78Pt/+WdnzJn/AKt/k2Q5MTtrbJCGKaZN39S7KC8l1zb0sw9voyWbk7Nt77Z+575P7nrL4LBG4LhyOE4nfSX7J3c58A+j/wDkF6mWt5PuZa3bly4bYH1LnI57f9pHEgb/APKdGjbubevMhkQdgrMC7cIY9yE/2c8h/kg9jDyZ+rR7Zk/tbsk67C8hzSFW3Jj6v6yEbvLz2X5G+r9YxZPr4FMJsZZnl1ADzb28cnydW5v2ZHi/6TrP/gP8zP8Awe/gY8skks58s+2SWSf8AshMyxjMqMm3bfiHO3q4zVJ65K5mPZbnYTETMZd2TXSfCLxvwvsgHs84u83NY53ZcydxiEcLNZO5AHCBOyC8gT6iWp2FFvO2/iDu5YcunIAR2zHHyEDdkQJTuCx1kP0X07f1Z04RWkO+4B20+p4BZalFxbDFggX7sz7uLvsEITDntj4YQ7ZsgoFnkju2AuJn/wBI/wAx/T4+PlPhO3lsnfh+E2dGfLJ/6nk9+DyU9QySHd6nceHwpcXU8WJd9h2lk+7diXIhktdt5d+vwv8A9jvfYa85Z8Wzew/yfI/i67N3knTBpO+vhADiQJuQMMsH1H4v1sDJEkI6sG5O2nlv87HplLbjy4lGQR9kP3eC6btxxIP6lvqI+rMkkE17ZsCEauffx6x/dmXJLZr8Cw32wJAWs+3cABb8H/mf557+JvJBZJJZNlnZm20nLfj18gQ+BdnQurcEit2POQ8nbOSmcR5LnLWS5c5lj0YA231PmN6yOQZrb+re9hzbekwZtyja4xhC+2Lkn37aPbES6QYxhe2jepBI4fA15GGqVmWU8C+iYdYvpbXy/JIH1Ln1O/qRm2rDFtYD7nLfm9VjByUwi5+ox8Cpkm2ocL7swlNkcltYd+DP/hP84L3GHl5WfGTNkzMs4v8A9n/u2G2ck5NKlfAEk6mWB3t23DlnfbQnFkEt+5x266zn1JvMlJOwQf34XHhbnYCV8eX2s4IEfOX/AFbRohnZJzIfvdzLzZaOZdnLP7YPZBCLu8vuSh9nIj7YJDk497OvGX93XZghD0hP7Ov5A8SPyGksowsn1J45AsGSXn1dfYDGIDEQPq9bEtliB9kYTPqY2GTP+0zZRFmf/If5qQ7doQ5ZZZPxsy5PZiSJYxqzL/uS1PZMxfq1NZJd+LqV3koRt7bmG4dkyCEG/G+5hjfpbjlhZweR7GDckJ5A4yDMCUG3XY2LHPtqiaZlmYjZzcLtrbybGGzyOvb8Ifd7Omto7NBBN+m4fZMsEqwJ3bvmSvW2YQPbD4yf9oX78SgJyWQ7As/ILizbtwla/IlA+O6nHsi3+R7Dlre5Svqf/VP8tI9+DhDnyzMt7JZ8IMlhPJdhzkhBfbN+55afk/xOP1a+RMyXy55YO2T6nvhYPtn6XBfwsx8nLl67Gcwaf2dCRRtSUO/U55ACAYeMuc5s82Wi5y6C3PpA3yO+XcyP12xzEMjd6tnIuZkiIwEp8hztvc4sn2ubwsflm/do+/AqILcgGz+L1Ozj5I3Edv8AtGBJJpv4YASRFfUL92J8K/sN+7QsLbBfqXgLM9v+rE7OtmSNvcW+pf8AQXqPbwuUPjJLISZbnw222TZLNhksYQhyTZLCSe8gkn9s/Yq4yJ7Cb5A/IPuDtkgvxjJ15CfYzJa3znxIsjkDu23lgsywHbOyhoS55ZvpJ3lnLKUEmHdu5vkcMZiyPqfPZIILB5A22vIwdjN8l3wtZCX2IRm0+pnyT1Oth7aSM+PFptvuE/cYnlsmxkPyD93CV+oF+GZJdQCR9QwBaxj2Qzi4z7d7lLP/AJD/ADY9+IeXCOSNuW7K6ySTMk+N+H+T/Uh+Sd5Z/Zn65LpO7uwPu6ncp8Jws09sSyXMnsZaTlnUCkYPZR5Hjj2NelsctnICExgiWJYiYQd7YCAMhJSx+7SG/eX9bAZl9JE45eSWRiZDPi4TA32542/dv4X6dn+I1mW59sHlyNXEatH3P9WZBskMsLTGfchbj5dX8fgG3uzJZibZil+/iMvLpuLdkfcZsTY8n/1T/LSPYeQ8jywmdWT8ifCkpOMMLZeSw0hjLhPfkh+AjYXnxp9zkYu8YR7Op5y4cshkh7eTr7mzRt9bBZ+NuqDnSDHlpBCbHZ1PUeRYLKx0SQA7cwLhGfu8Zarl5L+k7ZmSe7AbCSPqVbMXYP2AgWFmyZc/AMlkryExQhcX/cpkrtrENuT+Uf0SY77O7S2j7sn1ZfqxMIXvx2s5+I49g20Jf9BF6heUY8svqZJJmZJGxvT4OzbPfkD4SN0tZ4nc5CRxtVk7DlmXbyF/YH6tQnsIN20cYnpAm7MPVkbsIeXXfqM+QZHk3LA7MzZd+7Xr6+YOPuASL+JY6Ww5P3L+th/sjxsvqBeIp1GXpZ8G/pbPt17EPfPg9txg+rVYMASCUYGSP1Cdn+y/tpMKAXE6nli3YgdvLthLL+yw9nVxcfPik6kwdi5/6R/mJerjJeS0jMnJnnwZsyfGkpXwe/DMwb9/Ckd3j2UMY+rLzJPu0sJfUQcg+2wnxkfJZ0S/PZPu3ZDUj7AfJ5YHklvXsCOwTxkc9hjATH4QS1yZN2wNRq5CjmX3RuI/aLu1hcdZA5aHLV2GCIPWc3WyOTi7i/6TlqWmVjEvtAeWZ/q0xvwXwi2exMG3ImJGQk/za8Mqf2itc2JJl0lyf/UP8uPgfIQ57a58bdSdkmW2bJsSFhCZZSpHeM8Sq317M3W+5YObKnkP6RPlw9LR5YeI8nRuZZ2UvIXmQ/Y4wPpZMZe2Rd8nbdlmjd8xY7ZGJt1i+2SlGOxoyOmWf3OOsj+IGY+3rdu1C2OAknsb7cDhdjbw3uQalvdu+G0e9tfCB6vwux34L8Li1iv2/wC5SGwYQt22M/bCT9fA78ctT/WUtfqNgwf2TLGVZfGNjyf9BCF5fEeX1LLbMsst7JbL8Pwzy0vHtjPJHuW5zJBPL9EiEo9k0vFmN+JW7OcS/wBkm4OyBeCT6IhRcvfkL3Yx/ZWYS+25LewfcjwQcFq9nDk57EHWD6g+B2lTl2TJZmXdh6nD2Xnsldn+E+lr7Si2+SSP7I4+AG0i7afuJiQk34DcOR/YPkdsawohy2V+FRZYE/L2QsXEOzDLh/6x/lgfFtl5fAct0meS9tll+Ny0sknkzLb+y/J7AXixMPqXbR08kbD2+o202AWfLzhnRk3sas6SnWEOWk0bO37kj6bN9u3kv3uuZAZX02PfWw9lnDBRgPl4M37bp7IXZRWk83CNWBwyvmwv7WIQTJnZPgyv3aelw8nTpKPpL09kfqCB+D8IBann3f8A7YeMd9+dUogPtz8hD6iMSPjf7Y+ATyQ3c/I7lP3IPstIcbphh/oEPkfGwPhtvLbbBkkksktmMWZpKe25ZsuF6sfEnuwn2T2BG4Ycsya8tkqT5jcZOQu28sJhaHbHEIJ9WJCxiD7kC/C1MJdbA59T+rhJrZI5HnsVYysZ5I8CEnkPmTKPlsJe7UgL8GBbhhCG+Wp8RhdIz5HUA/cY+7H3LMCUzHVtL92ox78AP5bhxP8A8llPqXLtP1P3oCWSrdllPyx+p19Sy9Y+W8j/AD7I/wCBr+fwDkOxv7LNvweyP7Ok6+Gfh1ZBte2QBctJA5Gr7AyKM+3P3fXL3NlG0HYc0btPIig7GmPNLz2cshYfVxEbTVleS6FkcjsH3YsDIGY3bkKL4h6SYllEFXLPnJOjkD6Rnsn43PuWk8ewhyaB3JDuwD8HeiFl/I8B5Yue2XrAEn6Y/S0jfuWxqH7goxKByxKM6gWD4ASBOflt9SM2xtgfUJM7uHPlmwMB5BlyZZ8/z4P+JV/L4xhewJDPw22xNGQmbfhvuwkjIZEn9un3bzs4JW+yD2IuzkD8gfLX7lDjHXbWHTs5dQDkHkAclWEvvyFpOt8GObNNFs5OW2hjE1hwx1ZpjYlu8m3soE5myXE++3LhNDVqO3cfVpljZHkn9h/sEaiFhuUzYLCs37hsgSw/UmfUDbsoVq1di8jpBG1S2auFtuVbsiTOfkssk7llmXj/ADzI+T/z+X7fCIgvqblklklk22znwwcmdL6nGd+WH3ZBy7J+TbZEK9uHGf8AcH7sc7P4WB1JED9ghJ4k/ZCSgDWMOWDs4Y3u/kJq0LKXLkgQU5fZlDW+gkTjcnTtlO8R1t04JhIV0L0MG8J5tjsEeEXyF2FlbZJ3ZachTLpEfUYfVi4jH6gPy0+rJefGSFhY+Ht4S7ZpO4mSCyIS9lsM58FtXqb7h2XP86yP+JYy/wCEoZPxr8dtluTLls9skkvJ4jrYy9llrZF+5Z3ZOWrH9ueyeC+oSvfhfcmmfA4J3y6ZA9YT/ufzYZIeX6gUlcjrwvryNM+EGY/ATgdhL0i+xEznsIgesTwsVa+5h5YY9uBwjU9kHbpJ4yX24fJKZZIbbc4GeQn1fQJD4cQkrdi7OZP5ZZJGFjtgSbFS+pIyZJduZ78eZM9mXGfhtZs/zjIPkN7+Px4Wnyh8DhAfDy4kyXB8PbJc+DFbZuJdl5LL+Tv7Pla/twXW9dsW6F08u52eoWb0QPy9S+lb4QoFlwL3cS1jDpB5kZnIu7O7Own/AHNShW0bsbGJz5OKAeEmnkaLM7PG28jODKe23WD9LAS8jvs9Ng2T8lPWCYFz7+LBkEcmO7bJYB9QWp92PgQuSfxGmx9kQ34B8ClsR2Y/SQykpK23bllz/N8j/gZ/n8ZmC6fEDPgnJDb2BLGE/DEnyfg2TbZJZZZJLfLL7j6fcuJfyGyfs6IMGkllsGAyfbbyW8j7WUOxAxjM5Ie2+Pq++OclnqHepy6YM4S77RJHscaS5skccJbyA/BjqGOXYWDgeNn7baa2SYkyD9pSzYTNtvC6djGC6fGA3dxLttkKRu4iKME8gvlghZU+DFpZH4bj4lLFmQyfspUn4YkRHyHI/wA1D5L+f/Aw5guGF5h+Gd28fDUkyi6eyzlnbJmS2W2Z7sSXyf7kXyxPZB9T2VuzwjrK5k4l2CHuS5dfU9TAJt6YW7xhLfrO/J0exozgtFLXbO5aukwBvIwIdm3YyybiY32x4W8z9ictLWBrxfZzyW52duU6jgg3sKclzjaJayxD7kPWw+5D6h2Bk78jFr4AkrBKfU5+WloSJjZloQLYTYHsaT1B/cLOxEguTZvkUcj28/5pkFrbf8AsIWwwbBHCIlydgbtst9zfxajfjfln4Zk2APJ1w9tLBdk/lkggSXbeSi3ZCL/HtotkOvhQGQaMlJ9ZI72fOey1YvLY97A/Ihg6Sri1nu2L0sgQzlhLQYVMJlJrG7nyyxeTt8nAEBY4QyHNha+544ymWPgEbH5YvhG3EN/dj46XGReWBsPxY7j4CNqVdLZZsblJmpvgedmGHsa4n5OP8yyD4dZvz48YFkWbCjkCyCT45JOTLnwySWSfGStlmKfgM4+38pE8lMRD7sWFyc3LnsucjXshKhPY/lkmmRz2dXYHrAwhsbfeQMdGRBjjaSIEAmjyRcI1qJEUgrpvxtYEPuGuwD6nRI/UeidjTyILreLDjIWcDkscp6sJyYP2x9IT6tED1G/h2+QCw9lJc5MexUwksllmT2GF2b/UgyH2wv5nKlZWgX1C+5Y5Ij/1j/Gw+Da0+vjzjPwCI4hB8CD5ZJkln2WW2W+5slluJRsJQ+NiLly2UmRYbEbDLDiFj2MycX/eC9+rMSN5KeWvbby1vwAQ09tHkkdkrDWw5b+rh7LzZV0LEj4CZ5aLeQDWAcy4rB8erqAfHqCJ0tfVr7+GE/VPPZx+GZNLPYH7fVge4B8BSzZGVLW7GwLLAc9mMEzdsPy+kyH3aLG2+Dk9kmPLe2dndR/mARHW2+IyCCzlnYcss+ARyMkn5fg+z8M5OfCtZ9nbFuHtl7sCSD4bsFgkNnMicyd+BmQGzkmnI0l8IPqeoZyDsuTmXXs09cnUuTSwHJ2Cb2czkfbeoVPb+rXCQmnGxNek7JFjzsp4jSX2D4OE4Wj5dS53n+X6wLjYl17AX0Z17d3TyGwzX7uQED44kt2/qRIZ+6y+WjxtH38Vs3VyYjs+XBK+5dnIyP8ALw+DS/hcLGyLYbPkaikD42WBZ+C/CfD5Ot5bKenJGRjZHfhnWzke2TfV4SX4Gs4S26TqZhAzsK8hdgUgEL2MAeuQalnCBBpyX1bEVxSJyNjc2e8+LVYQZGwg7ZzniKewi6YB7KZyZRgS/wBlPk0Rk8nq05YSZI2JKNeS2F/BTi7dsLeSufBYzCiWWmJ+59TfpP4n7UJ6wHsr5aLyUsLMtOXKfgdhDkf5bkTWVfL+NkeWdhNvwR8D5AJslLRsAkT8MZJP+B8m6XVny78csNnPqd3+fDmTPvJ2zlrYV+lpeR/bxpAYZxIMgz1hIpMjFriDvZjp5L3GwdLbiW/iJvIeZawDLYfVrcIENbMbftYfcgckX774LX0pl62ppA2RlpfY11IuQJ5DTsTOQdsxuHbBwtHsdsJJdSP+5J5y/q09SHySxLW2UQ4b93V4lTyT7lvsI8vZk5CJWPyOuWFq/DX1a+PPZdl5eI/ysI+S6/XxZwyJZYgg+oGQ+AOTz4W1sIwdvrvwbJ4zcnJkkksme2WTt23thJSbtv7Im2TWS1DkO3bBO/BwymTrtgXXlxGoDq6eTxv18guSd1l8TnGwe2c5KXbAZF6xNwgi5z4QMYzh0A8uJI6QT458XbRy7SwxfuyZkIWaSp5a72M+kfHJJAmEM4jnw4/V+EiSgjGR3luSbS0kMnXnxa+vgdRPqHJ2w5aTyy8/4A+s4j/KQ+S0+r+Vl9Wf1ECzJOfAgLO/KGRJsxJ9k24OyTHBPJeyz8JMss/DbbNyScId9sCUsZm3JPhBntkbGSFk3Xt6ySzSzCGvZYckg3mGdTHtk26yN/UCBZYYS5krDL4LUWY4INZM8nfttgiMDy68jH1Km4IT2CPbt22TGBel4k72dRueyt7H2WHvwySQsD2VWSQ2oNgsLLOrAgnstIvL8bGZR5CfgEm8n9wJyEliA2PqdJFIO8vp8x/lAW/xfxv5Q5F4giZfCtht0gZ8bEzJKBl5PwPZJPhcmbIfBtn5W9XixvZFmIX8hlmKciLtxKeWIQvpX7fB/MfWVzS1liwy659yrhaQ2BhHXbxlmPb75JpZdm8JM0yDP4uF1keZMOew+oAWH6gQJwwi9trqc4nDlve25Ak9QOQ58esk9+LMHwAX21PbV7cuWkpLHL/qTkUty0Z+xIWphO7DydtfETGLH2WEsDPsrx/lAW9veXLl5YwWT8beLu2QQQgIj4234xWA+HE+Bi5LsvxieXdtkWSRnbZ75I5asSA+5Py5BAZaTssYReyi4XmOe3N2UyUeTVjhaWDsekcSASI5BX+2BesmGhtp2fpILasNMH3DxGf7L0kA5Hl6g2If2T7n2jTkISa5AZxwsoHsnkmDLQ62jzy3Tl9dl2XIbT5aj34HduQr5D+ykMkWf1YTCXLDI2WvqN+5+L0Tp9y/ZxaXJ5MX4H8v0uW/l1by+HiP8mLa1vDl5/Bnxsvwt2Pg+SMe/GWWS5IbkvZWyzPkyTYrJ8DPZlk+HtmfB5aJOvIHqHZL7trf1B3siIZaQmAewfixlhPUuQhy0giKiDmzF5Df1D+y15a6SIqGNb6S55K+lo7INgvse5DJyWjiJ7JH7p6le392ZoWWwdl9Fg9mOxuB+pnZ+84ziLWVu3Za2HfJLh7KtqSexduRCSRlJlizxuoclSJLITYGWljYv1a+B/kwWrfxsyxJtl+QWSZc+BBCITPlW6xn+TsjJMzZM33MmyM6T2xkkvG4fDTk6eWyzpaCFLLMYSDAuL1GaEb/AIsUY+StuoVjL9l+lwwhdPsgQP1GhGrIIJP5KZ20bpk4chpbkKt4tsmYtQhLyOeyfplXYQcv4tU4JW8gc7ddJRydbRbQaS3pL+rs3bJSGIgudjbECJJ8OrM+CW1tLcyEkD4BzyUfZz6mYlJPyITITL1YfEo/yUj27lxjhbLMvwNvw3bIOwtPgCPhW/ACsZlCZssstvJ7JJLlsstspMYz2RhLJnthYLnr5aQjcsB7YMGC5ZMnCyPP6mw8lTfXZnV9qCUXJRyPulPUAw7pabIWvwAPEPu4yhEzC3ZpuRDrOmEBfxKHsuTqzu39WpepYzlbmI43k2XSA9sPwQb1ZC1LWRbxerPg/wBsE+AZLewgsSfBr58Y/qO+Tp7bZYwQFofHZsXqUf5KXS8IZkufC2Jfg+TYGEYQQTHwV1biFdZU8t+H4eS/k78DeSk5P8vuZycy0JDGWGzeEh1h3kCAFrt9ds5a5A+txssBvEoNhmtneToSXltj0XByDHYB42sm+wNwiEBkW/UL5AmFusB4Sp9yr5HPYnBPEgPZviwbRC5b2z4zpLWGyZxn20Ts6SPbFqQTf2z/AC/pf9Ry22ZCUJxG7S2Zu25LNIRMY22RkCSJdnYoRNkyNg/ZSHZ/LE9gLGRt/wCTh+I8iWbbYLJcth+AjBFts/IPY7BOkqySPgyyzKl34S4tfho38WOyCxffhj4fBitlAly9s7E6w8tzkeXl7OHLnsumEeaxxDkDTZbTI6nvkKJaJTYgBDnkHrMe4PIM6xryA6SfEI63XZYT1njcmATG0t47GbbhNQzOySLGzYPq0gEmPIZsGcy1ONqZ3IxLgyLd8tWrRJZSO2o3ObpL9ruMP3aeSo58dLxmabQ3YRhEf5J7heVzDaSm2OfBbG7BCORh8rMfgDrDkQV+GJKy78I38ZiZLbPZJ6uCZeT2CEs47at3lyQeexrLD2+okDCGvZ5I/b9TEfUHNteEmOwFsChrJau/Y8kLt55b+rpYHtywtXkcbBcLQbdvJglC523xsjLrySWUevbKvCPbEgTt18FKs7Oq4RpsJPyVtbNtds2IzGAv5+HYN+rX3Avfi/AtEgkPYDKfJj2fOSD2dE+zEhSZPnw6fB4PiiUf5GfF9mQx8G/G/IfAQtLOz5fgslvwIy0+Djep6SO22mSyYszLlu/C4W3En4cn4J34wu2ZMW2EIwgS37kk8yTIvJ7NyST6UsbHGMdk2BkGeW9yDbPqw9sXk6dkJCfD9uPfZ16R9kCx0phPpAhywO2H4rGNeyoZYHZX6svZS2OtoTnW/Eltp8ZsqPgLUt2w+HExFr6lF+1h8+EfIH7cE9sHsyOfAm9tLLv5PUuf8QD/ACT1LsmVvyjtozPsXEo/AefDb2WUnkasMNra/ckl27LlsxEjPuH58NszzyGzZn3M7O/H1Zntj6hkSb5dIBs5Blgctdwf2GPYE5K7ftBrtluOED6kGNoWPYSULVwsDvt9ezt1k+pz1YwRx77aVmc+DhyETvsFbjt0vwtB1O3Lz2RM+ljO3lx7L9TV7YfIwZ/Nsy97Pph3l1G7q0XY2VtfdglfVq630C+jfvYJD20x+4xlsYX7n+SfBe7IS7OkVtCUyUsLHlwh35j/ACU7wntstvfgNt34Df8Ah3eW8t2SWUe38Q20js6uPY/UpLsofFn4MzLLLDO2mWkh8PHI20kMl+raWDyHOlp7YJaSgjPtsWnyOuxA5yNWzOsxw5AzJfq5SvsDq0h6YTxuGkk4WoOMwHLdhx8Olujt9cjztoElcsGOyWcuDkI9sMFYFm8T+4vH1bnZZLPZo+APvxUSPq1aITEQjYfkmD4hnkRchNpMC78iT61ogHkwyynZXW29zz4VP4H+SDkAw/sr7gJxttIjkfA+AQgz4SyU2EnewoxAsaFqUkwuRLu9syWWWXJbfgi+Xntydnjbz4QkC3Piu3HbiMfZcbCTxll+kMF8s3rI/UD/APYDDDGEniCW1hewEgZHWlm2Zy4QM2K8gOt378t//cPeXc2HSBtshiZD2fIMPbRDDII3L22sfAI7bPPhn7cuPbMo2lm58jUtfcv2uvJ36+CPg/mEhJk/lbnEJ+GoJqPr4CXkigH1Y5/onfUjPjpb2L8AdjH/AJ2xjJdG83sgUkoHYa0JwyHYQ9qSnvZYLuAEeJBMhgBh9mzy4bxNeQCF8Q8gyMAYN9VCpFW5cAeDlphYg7/D1f/Z&quot;,&quot;width&quot;:&quot;2000&quot;,&quot;height&quot;:&quot;1200&quot;}" math="0" shadow="0">
      <root>
        <mxCell id="0" style=";html=1;" />
        <mxCell id="1" style=";html=1;" parent="0" />
        <mxCell id="cJcXv3g0rdDpwHF1EV-g-1" value="Employé.e.es" style="swimlane;fontStyle=1;align=center;verticalAlign=top;childLayout=stackLayout;horizontal=1;startSize=26;horizontalStack=0;resizeParent=1;resizeParentMax=0;resizeLast=0;collapsible=1;marginBottom=0;" vertex="1" parent="1">
          <mxGeometry x="870" y="340" width="180" height="130" as="geometry" />
        </mxCell>
        <mxCell id="cJcXv3g0rdDpwHF1EV-g-2" value="- id: UUID&#xa;- hours: hashmap&lt;string, time&gt;&#xa;- overtime: time" style="text;strokeColor=none;fillColor=none;align=left;verticalAlign=top;spacingLeft=4;spacingRight=4;overflow=hidden;rotatable=0;points=[[0,0.5],[1,0.5]];portConstraint=eastwest;" vertex="1" parent="cJcXv3g0rdDpwHF1EV-g-1">
          <mxGeometry y="26" width="180" height="54" as="geometry" />
        </mxCell>
        <mxCell id="cJcXv3g0rdDpwHF1EV-g-3" value="" style="line;strokeWidth=1;fillColor=none;align=left;verticalAlign=middle;spacingTop=-1;spacingLeft=3;spacingRight=3;rotatable=0;labelPosition=right;points=[];portConstraint=eastwest;" vertex="1" parent="cJcXv3g0rdDpwHF1EV-g-1">
          <mxGeometry y="80" width="180" height="10" as="geometry" />
        </mxCell>
        <mxCell id="cJcXv3g0rdDpwHF1EV-g-4" value="+geters&#xa;+seters" style="text;strokeColor=none;fillColor=none;align=left;verticalAlign=top;spacingLeft=4;spacingRight=4;overflow=hidden;rotatable=0;points=[[0,0.5],[1,0.5]];portConstraint=eastwest;" vertex="1" parent="cJcXv3g0rdDpwHF1EV-g-1">
          <mxGeometry y="90" width="180" height="40" as="geometry" />
        </mxCell>
        <mxCell id="cJcXv3g0rdDpwHF1EV-g-5" value="Pointage" style="swimlane;fontStyle=1;align=center;verticalAlign=top;childLayout=stackLayout;horizontal=1;startSize=26;horizontalStack=0;resizeParent=1;resizeParentMax=0;resizeLast=0;collapsible=1;marginBottom=0;" vertex="1" parent="1">
          <mxGeometry x="1140" y="330" width="120" height="120" as="geometry" />
        </mxCell>
        <mxCell id="cJcXv3g0rdDpwHF1EV-g-6" value="- id: UUID &#xa;- time: time" style="text;strokeColor=none;fillColor=none;align=left;verticalAlign=top;spacingLeft=4;spacingRight=4;overflow=hidden;rotatable=0;points=[[0,0.5],[1,0.5]];portConstraint=eastwest;" vertex="1" parent="cJcXv3g0rdDpwHF1EV-g-5">
          <mxGeometry y="26" width="120" height="44" as="geometry" />
        </mxCell>
        <mxCell id="cJcXv3g0rdDpwHF1EV-g-7" value="" style="line;strokeWidth=1;fillColor=none;align=left;verticalAlign=middle;spacingTop=-1;spacingLeft=3;spacingRight=3;rotatable=0;labelPosition=right;points=[];portConstraint=eastwest;" vertex="1" parent="cJcXv3g0rdDpwHF1EV-g-5">
          <mxGeometry y="70" width="120" height="8" as="geometry" />
        </mxCell>
        <mxCell id="cJcXv3g0rdDpwHF1EV-g-8" value="+geters&#xa;+seters" style="text;strokeColor=none;fillColor=none;align=left;verticalAlign=top;spacingLeft=4;spacingRight=4;overflow=hidden;rotatable=0;points=[[0,0.5],[1,0.5]];portConstraint=eastwest;" vertex="1" parent="cJcXv3g0rdDpwHF1EV-g-5">
          <mxGeometry y="78" width="120" height="42" as="geometry" />
        </mxCell>
        <mxCell id="cJcXv3g0rdDpwHF1EV-g-9" value="Vue Pointeuse" style="swimlane;fontStyle=1;align=center;verticalAlign=top;childLayout=stackLayout;horizontal=1;startSize=26;horizontalStack=0;resizeParent=1;resizeParentMax=0;resizeLast=0;collapsible=1;marginBottom=0;" vertex="1" parent="1">
          <mxGeometry x="1120" y="520" width="160" height="86" as="geometry" />
        </mxCell>
        <mxCell id="cJcXv3g0rdDpwHF1EV-g-10" value="+ field: type" style="text;strokeColor=none;fillColor=none;align=left;verticalAlign=top;spacingLeft=4;spacingRight=4;overflow=hidden;rotatable=0;points=[[0,0.5],[1,0.5]];portConstraint=eastwest;" vertex="1" parent="cJcXv3g0rdDpwHF1EV-g-9">
          <mxGeometry y="26" width="160" height="26" as="geometry" />
        </mxCell>
        <mxCell id="cJcXv3g0rdDpwHF1EV-g-11" value="" style="line;strokeWidth=1;fillColor=none;align=left;verticalAlign=middle;spacingTop=-1;spacingLeft=3;spacingRight=3;rotatable=0;labelPosition=right;points=[];portConstraint=eastwest;" vertex="1" parent="cJcXv3g0rdDpwHF1EV-g-9">
          <mxGeometry y="52" width="160" height="8" as="geometry" />
        </mxCell>
        <mxCell id="cJcXv3g0rdDpwHF1EV-g-12" value="+ method(type): type" style="text;strokeColor=none;fillColor=none;align=left;verticalAlign=top;spacingLeft=4;spacingRight=4;overflow=hidden;rotatable=0;points=[[0,0.5],[1,0.5]];portConstraint=eastwest;" vertex="1" parent="cJcXv3g0rdDpwHF1EV-g-9">
          <mxGeometry y="60" width="160" height="26" as="geometry" />
        </mxCell>
        <mxCell id="cJcXv3g0rdDpwHF1EV-g-22" value="Contrôleur Pointeuse" style="swimlane;fontStyle=1;align=center;verticalAlign=top;childLayout=stackLayout;horizontal=1;startSize=26;horizontalStack=0;resizeParent=1;resizeParentMax=0;resizeLast=0;collapsible=1;marginBottom=0;" vertex="1" parent="1">
          <mxGeometry x="840" y="520" width="160" height="86" as="geometry" />
        </mxCell>
        <mxCell id="cJcXv3g0rdDpwHF1EV-g-23" value="+ field: type" style="text;strokeColor=none;fillColor=none;align=left;verticalAlign=top;spacingLeft=4;spacingRight=4;overflow=hidden;rotatable=0;points=[[0,0.5],[1,0.5]];portConstraint=eastwest;" vertex="1" parent="cJcXv3g0rdDpwHF1EV-g-22">
          <mxGeometry y="26" width="160" height="26" as="geometry" />
        </mxCell>
        <mxCell id="cJcXv3g0rdDpwHF1EV-g-24" value="" style="line;strokeWidth=1;fillColor=none;align=left;verticalAlign=middle;spacingTop=-1;spacingLeft=3;spacingRight=3;rotatable=0;labelPosition=right;points=[];portConstraint=eastwest;" vertex="1" parent="cJcXv3g0rdDpwHF1EV-g-22">
          <mxGeometry y="52" width="160" height="8" as="geometry" />
        </mxCell>
        <mxCell id="cJcXv3g0rdDpwHF1EV-g-25" value="+ method(type): type" style="text;strokeColor=none;fillColor=none;align=left;verticalAlign=top;spacingLeft=4;spacingRight=4;overflow=hidden;rotatable=0;points=[[0,0.5],[1,0.5]];portConstraint=eastwest;" vertex="1" parent="cJcXv3g0rdDpwHF1EV-g-22">
          <mxGeometry y="60" width="160" height="26" as="geometry" />
        </mxCell>
        <mxCell id="cJcXv3g0rdDpwHF1EV-g-26" value="Contrôleur Ordinateur" style="swimlane;fontStyle=1;align=center;verticalAlign=top;childLayout=stackLayout;horizontal=1;startSize=26;horizontalStack=0;resizeParent=1;resizeParentMax=0;resizeLast=0;collapsible=1;marginBottom=0;" vertex="1" parent="1">
          <mxGeometry x="800" y="650" width="160" height="86" as="geometry" />
        </mxCell>
        <mxCell id="cJcXv3g0rdDpwHF1EV-g-27" value="+ field: type" style="text;strokeColor=none;fillColor=none;align=left;verticalAlign=top;spacingLeft=4;spacingRight=4;overflow=hidden;rotatable=0;points=[[0,0.5],[1,0.5]];portConstraint=eastwest;" vertex="1" parent="cJcXv3g0rdDpwHF1EV-g-26">
          <mxGeometry y="26" width="160" height="26" as="geometry" />
        </mxCell>
        <mxCell id="cJcXv3g0rdDpwHF1EV-g-28" value="" style="line;strokeWidth=1;fillColor=none;align=left;verticalAlign=middle;spacingTop=-1;spacingLeft=3;spacingRight=3;rotatable=0;labelPosition=right;points=[];portConstraint=eastwest;" vertex="1" parent="cJcXv3g0rdDpwHF1EV-g-26">
          <mxGeometry y="52" width="160" height="8" as="geometry" />
        </mxCell>
        <mxCell id="cJcXv3g0rdDpwHF1EV-g-29" value="+ method(type): type" style="text;strokeColor=none;fillColor=none;align=left;verticalAlign=top;spacingLeft=4;spacingRight=4;overflow=hidden;rotatable=0;points=[[0,0.5],[1,0.5]];portConstraint=eastwest;" vertex="1" parent="cJcXv3g0rdDpwHF1EV-g-26">
          <mxGeometry y="60" width="160" height="26" as="geometry" />
        </mxCell>
        <mxCell id="cJcXv3g0rdDpwHF1EV-g-30" value="&lt;p&gt;&lt;font style=&quot;font-size: 50px&quot; face=&quot;Comic Sans MS&quot; color=&quot;#66ffff&quot;&gt;Such UML&lt;/font&gt;&lt;/p&gt;" style="text;html=1;align=center;verticalAlign=middle;whiteSpace=wrap;rounded=0;" vertex="1" parent="1">
          <mxGeometry x="1550" y="60" width="230" height="110" as="geometry" />
        </mxCell>
        <mxCell id="cJcXv3g0rdDpwHF1EV-g-31" value="&lt;font style=&quot;font-size: 50px&quot; color=&quot;#99ff33&quot; face=&quot;Comic Sans MS&quot;&gt;Verry Java&lt;/font&gt;" style="text;html=1;strokeColor=none;fillColor=none;align=center;verticalAlign=middle;whiteSpace=wrap;rounded=0;" vertex="1" parent="1">
          <mxGeometry x="1280" y="160" width="40" height="20" as="geometry" />
        </mxCell>
        <mxCell id="cJcXv3g0rdDpwHF1EV-g-33" value="&lt;p&gt;&lt;font style=&quot;font-size: 50px&quot; color=&quot;#ff0000&quot; face=&quot;Comic Sans MS&quot;&gt;Much project&lt;/font&gt;&lt;/p&gt;" style="text;html=1;align=center;verticalAlign=middle;whiteSpace=wrap;rounded=0;" vertex="1" parent="1">
          <mxGeometry x="1500" y="310" width="230" height="110" as="geometry" />
        </mxCell>
        <mxCell id="cJcXv3g0rdDpwHF1EV-g-34" value="&lt;p&gt;&lt;font color=&quot;#ffffff&quot; style=&quot;font-size: 50px&quot;&gt;wow&lt;/font&gt;&lt;/p&gt;" style="text;html=1;align=center;verticalAlign=middle;whiteSpace=wrap;rounded=0;" vertex="1" parent="1">
          <mxGeometry x="1330" y="530" width="230" height="110" as="geometry" />
        </mxCell>
      </root>
    </mxGraphModel>
  </diagram>
</mxfile>
